<?xml version="1.0" encoding="utf-8"?>
<!-- Generator: Adobe Illustrator 28.2.0, SVG Export Plug-In . SVG Version: 6.00 Build 0)  -->
<svg version="1.1" id="Layer_1" xmlns="http://www.w3.org/2000/svg" xmlns:xlink="http://www.w3.org/1999/xlink" x="0px" y="0px"
	 viewBox="0 0 1024 1024" style="enable-background:new 0 0 1024 1024;" xml:space="preserve">
<style type="text/css">
	.st0{fill:#FFFFFF;}
	.st1{fill:#353031;}
	.st2{fill:#4C494B;}
</style>
<path class="st0" d="M0,0h1024v1024H0V0z"/>
<path class="st1" d="M348.3,1.2c0.2,0,0.5,0,0.7,0c7.5,0,15.1,3.4,20.4,8.7c8.1,8.2,10.5,17.8,10.5,29c7-8.7,17-17.1,27.2-21.8
	c19.4-8.9,46.6-8.4,66.4-1c17.7,6.6,30.9,19,38.7,36.1c0.5-1.2,1.1-2.4,1.6-3.6c0.6-1.2,1.2-2.3,1.9-3.5c0.7-1.1,1.3-2.2,2.1-3.3
	c0.7-1.1,1.5-2.2,2.3-3.2c0.8-1,1.6-2.1,2.4-3.1c0.8-1,1.7-2,2.6-2.9c0.9-0.9,1.8-1.9,2.8-2.7c1-0.9,1.9-1.7,3-2.6
	c17.8-14.4,42.6-18.4,64.9-16c19.6,2.1,36.9,13.3,49.1,28.5c-0.1-2.5-0.2-5.1,0.1-7.6c1.1-9.6,6.4-18.9,14-24.8
	c5.6-4.4,12.7-6.9,19.9-5.9c7.6,1.1,14.8,5.4,19.3,11.5c4.2,5.6,6.8,13.2,5.7,20.2c-0.1,0.4-0.1,0.7-0.2,1.1c-0.1,0.4-0.2,0.7-0.3,1
	c-0.1,0.3-0.2,0.7-0.3,1c-0.1,0.3-0.2,0.7-0.4,1c-0.1,0.3-0.3,0.7-0.4,1c-0.1,0.3-0.3,0.7-0.5,1c-0.2,0.3-0.3,0.6-0.5,1
	c-0.2,0.3-0.4,0.6-0.6,0.9c-0.2,0.3-0.4,0.6-0.6,0.9c-0.2,0.3-0.4,0.6-0.6,0.9c-0.2,0.3-0.5,0.6-0.7,0.8c-0.2,0.3-0.5,0.5-0.7,0.8
	c-0.2,0.3-0.5,0.5-0.8,0.8c-0.3,0.2-0.5,0.5-0.8,0.7c-0.3,0.2-0.6,0.5-0.8,0.7c-0.3,0.2-0.6,0.4-0.9,0.6c-4.9,3.4-11,4.1-16.7,2.9
	c-4.5-0.9-9.4-3.6-11.9-7.6c-2.5-4-3.9-9.4-2.8-14.1c0.9-3.5,3.1-6.4,6.3-8.2c2.9-1.7,6.5-2.2,9.8-1.3c0.4,0.1,0.8,0.3,1.2,0.4
	c0.4,0.2,0.8,0.3,1.2,0.6c0.4,0.2,0.8,0.4,1.1,0.7c0.4,0.2,0.7,0.5,1,0.8c0.3,0.3,0.7,0.6,1,0.9c0.3,0.3,0.6,0.6,0.9,1
	c0.3,0.3,0.5,0.7,0.8,1.1c0.2,0.4,0.4,0.7,0.6,1.1c2.5,5,1.5,9.5-0.2,14.5c3.5-3.4,6.3-6.8,6.3-11.9c0-4.2-2-8.4-5.1-11.3
	c-3.6-3.4-8.4-4.9-13.3-4.7c-0.3,0-0.7,0-1,0.1c-0.3,0-0.7,0.1-1,0.1c-0.3,0.1-0.7,0.1-1,0.2c-0.3,0.1-0.7,0.1-1,0.2
	c-0.3,0.1-0.7,0.2-1,0.3c-0.3,0.1-0.7,0.2-1,0.3c-0.3,0.1-0.7,0.2-1,0.4c-0.3,0.1-0.6,0.3-1,0.4c-0.3,0.2-0.6,0.3-0.9,0.5
	c-0.3,0.2-0.6,0.3-0.9,0.5c-0.3,0.2-0.6,0.4-0.9,0.6c-0.3,0.2-0.6,0.4-0.8,0.6c-0.3,0.2-0.5,0.4-0.8,0.7c-0.3,0.2-0.5,0.5-0.8,0.7
	c-0.3,0.2-0.5,0.5-0.7,0.7c-0.2,0.3-0.5,0.5-0.7,0.8c-4.4,5.1-6.6,12.4-5.9,19.2c3.5,36.8,65.1,37.7,92.4,43
	c5.9,1.2,11.7,2.7,17.4,4.5c5.7,1.9,11.3,4.1,16.8,6.6c27,12.4,49.1,34.3,72.1,52.8c-1-1.3-2-2.7-3-4.1
	c-9.4-13.4-29.8-49.8-31.8-65.1c-0.8-6.6,0.6-13.1,1.8-19.6c8.4,13.1,15.6,32.3,19.5,47.3C840.4,92,842,78,839,66.1
	c-0.2-0.8-0.4-1.7-0.7-2.5c-0.3-0.8-0.5-1.6-0.8-2.4c-0.3-0.8-0.6-1.6-0.9-2.4c-0.3-0.8-0.7-1.6-1.1-2.3c-0.4-0.8-0.8-1.5-1.2-2.3
	s-0.8-1.5-1.3-2.2c-0.4-0.7-0.9-1.5-1.4-2.2c-0.5-0.7-1-1.4-1.5-2.1c-0.5-0.7-1-1.4-1.6-2c-0.5-0.7-1.1-1.3-1.7-1.9
	c-0.6-0.6-1.2-1.3-1.8-1.9c-0.6-0.6-1.2-1.2-1.9-1.8c-0.6-0.6-1.3-1.1-2-1.7c-0.7-0.5-1.3-1.1-2-1.6c-0.7-0.5-1.4-1-2.1-1.5
	c-0.7-0.5-1.4-0.9-2.2-1.4c-9.1-5.4-19.7-7.9-30-5.2c-7,1.8-13.1,5.9-16.7,12.3c-2.9,5.1-3.6,10.9-2,16.5c1.3,4.5,4,9,8.3,11.2
	c3.5,1.8,8.3,1.8,11.9,0.5c0.9-0.3,1.1-0.4,1.5-1.3c-1.8-3.6-7.8-4.7-9.9-9.6c-1.2-2.8-0.7-6.7,0.6-9.4c1.3-2.8,3.8-4.8,6.8-5.7
	c0.4-0.1,0.8-0.2,1.3-0.3c0.4-0.1,0.8-0.2,1.3-0.2c0.4,0,0.9-0.1,1.3-0.1c0.4,0,0.9,0,1.3,0c0.4,0,0.9,0.1,1.3,0.2s0.8,0.2,1.3,0.3
	c0.4,0.1,0.8,0.3,1.2,0.4c0.4,0.2,0.8,0.3,1.2,0.5c3.9,2,6.6,5.8,7.6,10c1.1,4.3,0.5,8.5-2,12.2c-3.5,5.3-9.6,8.7-15.7,9.9
	c-5.5,1.1-11.7,0.6-16.4-2.7c-5.5-3.8-9.3-10.6-10.4-17.1c-1.3-7.7,0.9-16.1,5.6-22.3c5.7-7.6,14.6-12.1,23.9-13.3
	c13.3-1.7,26,2.4,36.4,10.6c13.5,10.6,21,24.6,23.1,41.5c15.2-25.7,27.4-33.3,50.9-49.4c6.9,8.6,13.1,17.9,17.1,28.2
	c7.1,18.5,7.6,39.3-0.4,57.6c5.1-2.5,9.9-4.3,15.6-5.2c26.6-4.3,48.5,6.2,69.5,21.3c-14.9,23.2-25.9,38-50.9,51.1
	c3.4,0.1,6.8,0.5,10.1,1.2c14.3,3,26.8,12.5,34.7,24.7c7,10.8,10.8,23.9,8,36.7c-1.9,8.5-6.8,17.5-14.4,22.2
	c-5.6,3.5-12.7,4.1-19,2.5c-6.9-1.7-13.4-5.9-17-12.2c-2.9-5.1-3.5-11-1.8-16.6c1.4-4.8,4.6-9.4,9.3-11.7c4.1-2,9.4-2.7,13.8-1
	c0.4,0.2,0.8,0.3,1.2,0.5c0.4,0.2,0.8,0.4,1.1,0.6c0.4,0.2,0.7,0.5,1,0.8c0.3,0.3,0.7,0.6,1,0.9c0.3,0.3,0.6,0.6,0.9,0.9
	c0.3,0.3,0.5,0.7,0.8,1c0.2,0.4,0.5,0.7,0.6,1.1c0.2,0.4,0.4,0.8,0.5,1.2c1.2,3.2,1,6.8-0.5,9.8c-1.5,3.1-4.2,5.3-7.5,6.2
	c-3,0.8-7.3,0.7-10.1-1c-3-1.8-3.6-5-4.3-8.1c-1,1.3-1.4,3.5-1.7,5.2c-0.5,2.8,0.6,5.9,2.2,8.2c3.2,4.4,9.5,7.5,14.8,8.3
	c4.4,0.6,8.7-0.4,12.1-3.2c6.2-4.9,9.6-14,10.2-21.7c1.1-12.7-4.2-23.7-12.3-33.3c-17.9-21.1-38.4-14.6-62.5-16.6
	c8.8,2.5,17.4,5.5,25.6,9.5c7.9,3.9,15.5,8.4,23.5,12.1c-28.4,0.4-46.2-6.6-69.9-21.3c-8-5-15.7-9.7-22.7-16
	c4.5,8.5,11.6,15.5,17.7,22.8c11.6,13.8,22,27.4,29.8,43.7c11,22.8,15.5,46.6,19.7,71.3c1.8,10.3,2.9,21.8,6.6,31.6
	c4.6,12.4,12.2,26.1,24.8,31.7c6.9,3.1,15,3.7,22.1,0.8c5.8-2.4,10.8-6.9,13.3-12.8c2-4.9,2.1-10.2,0-15c-2-4.7-6-9.1-10.8-10.9
	c-2.9-1.1-6-1.1-8.7,0.2c-3.1,1.5-5.3,4.8-6.1,8.1c-0.3,1.1-0.3,1.7,0.3,2.7l0.2-0.5c0.8-0.1,0.5,0,1.1-0.3c1.8-1.1,3.3-1.9,5.4-2.2
	c3.3-0.5,7.2,0.2,9.9,2.3c1.9,1.5,3.2,3.6,3.5,6.1c0.4,2.9-0.6,5.8-2.5,8.1c-2.5,2.9-6.3,4.3-10,4.5c-4.7,0.3-9.4-1.2-12.8-4.5
	c-3.5-3.4-5.2-8-5.2-12.9c0-0.4,0-0.7,0-1.1c0-0.4,0.1-0.7,0.1-1.1c0-0.4,0.1-0.7,0.2-1c0.1-0.3,0.1-0.7,0.2-1
	c0.1-0.3,0.2-0.7,0.3-1c0.1-0.3,0.2-0.7,0.3-1c0.1-0.3,0.2-0.7,0.4-1c0.1-0.3,0.3-0.7,0.4-1c0.1-0.3,0.3-0.6,0.5-1
	c0.2-0.3,0.3-0.6,0.5-0.9c0.2-0.3,0.4-0.6,0.6-0.9c0.2-0.3,0.4-0.6,0.6-0.9c0.2-0.3,0.4-0.6,0.7-0.8c0.2-0.3,0.5-0.5,0.7-0.8
	c0.2-0.3,0.5-0.5,0.7-0.8c0.3-0.2,0.5-0.5,0.8-0.7c0.3-0.2,0.5-0.5,0.8-0.7c0.3-0.2,0.6-0.4,0.8-0.7c0.3-0.2,0.6-0.4,0.9-0.6
	c0.3-0.2,0.6-0.4,0.9-0.6c0.3-0.2,0.6-0.4,0.9-0.5c0.3-0.2,0.6-0.3,1-0.5c0.3-0.2,0.7-0.3,1-0.4c0.3-0.1,0.7-0.3,1-0.4
	c0.3-0.1,0.7-0.2,1-0.3c0.3-0.1,0.7-0.2,1-0.3c0.3-0.1,0.7-0.2,1.1-0.2c0.4-0.1,0.7-0.1,1.1-0.2c0.4,0,0.7-0.1,1.1-0.1
	c0.4,0,0.7-0.1,1.1-0.1c0.4,0,0.7,0,1.1,0c0.4,0,0.7,0,1.1,0c6.5,0.4,12.9,3.8,17.2,8.7c4.6,5.3,6.8,12.5,6.3,19.5
	c-0.7,8.3-5.3,16.1-11.7,21.3c-8,6.6-17.1,8.3-27.2,7.4c11.6,8.8,21.5,18.7,26.9,32.5c7.1,18.5,6.7,45.8-1.6,63.9
	c-7.5,16.4-21.9,30.5-38.9,36.8c13.3,6.7,24.4,15.1,33.2,27.4c12.1,16.8,14.1,40.9,10.8,60.8c-3.4,20.7-16.1,35.5-32.7,47.4
	c7.1-1,14-0.6,20.6,2.3c7.9,3.5,13.9,10.1,17,18.1c2.6,7,2.7,14.5-0.5,21.3c-2.9,6.3-8,11.8-14.7,14c-0.4,0.1-0.7,0.2-1.1,0.3
	c-0.4,0.1-0.7,0.2-1.1,0.3c-0.4,0.1-0.7,0.2-1.1,0.2c-0.4,0.1-0.7,0.1-1.1,0.2c-0.4,0-0.7,0.1-1.1,0.1c-0.4,0-0.7,0-1.1,0.1
	c-0.4,0-0.7,0-1.1,0c-0.4,0-0.7,0-1.1,0c-0.4,0-0.7-0.1-1.1-0.1c-0.4,0-0.7-0.1-1.1-0.2c-0.4-0.1-0.7-0.1-1.1-0.2
	c-0.4-0.1-0.7-0.2-1.1-0.3c-0.4-0.1-0.7-0.2-1.1-0.3c-0.4-0.1-0.7-0.2-1.1-0.4c-0.4-0.1-0.7-0.3-1-0.4c-0.3-0.1-0.7-0.3-1-0.5
	c-5.5-2.7-8.6-7.2-10.4-13c-1.6-5.4-1.4-11.3,1.5-16.3c2.4-4,6.3-7.1,10.9-8.2c0.5-0.1,1-0.2,1.5-0.3c0.5-0.1,1-0.1,1.5-0.1
	c0.5,0,1,0,1.5,0c0.5,0,1,0.1,1.5,0.2c0.5,0.1,1,0.2,1.4,0.3c0.5,0.1,0.9,0.3,1.4,0.5c0.5,0.2,0.9,0.4,1.4,0.6
	c0.4,0.2,0.9,0.5,1.3,0.7c4.5,2.9,6.1,7.2,7.2,12.2c-0.3,1.1-0.6,2.2-1,3.3c-1,2.9-3.2,5.8-6.1,7c-9,3.9-10.9-3-15.6-4.9l-0.3,0.9
	c0.5,3.3,1.8,6.8,4.5,9c2.6,2.1,6.1,3.2,9.4,2.7c3.9-0.5,7.2-3.1,9.4-6.2c0.2-0.3,0.4-0.6,0.6-0.9c0.2-0.3,0.4-0.6,0.5-0.9
	c0.2-0.3,0.4-0.6,0.5-1c0.2-0.3,0.3-0.7,0.5-1c0.1-0.3,0.3-0.7,0.4-1c0.1-0.3,0.3-0.7,0.4-1c0.1-0.3,0.2-0.7,0.3-1
	c0.1-0.4,0.2-0.7,0.2-1.1c0.1-0.4,0.1-0.7,0.2-1.1c0.1-0.4,0.1-0.7,0.1-1.1c0-0.4,0.1-0.7,0.1-1.1c0-0.4,0-0.7,0-1.1
	c0-0.4,0-0.7,0-1.1c0-0.4,0-0.7-0.1-1.1c0-0.4-0.1-0.7-0.1-1.1c-0.1-0.4-0.1-0.7-0.2-1.1c-1.1-5.9-4.3-10.8-9.4-14.1
	c-5.8-3.8-13.1-5.4-20-4c-22.9,4.8-30.9,38-33.9,57.2c-1.3,8.5-1.4,17-3,25.4c-2.6,14.2-6.6,28.3-12.8,41.4
	c-8.6,18-18.5,28.6-30.3,43.6c-6.2,7.9-11.8,16.1-17.3,24.5c23.8-18.7,51.9-27.3,82-26.5c-9.8,5.9-20.1,11-31,14.5
	c-5,1.6-10.2,2.6-15.2,4.2c4.8-0.1,9.5-0.1,14.3,0.1c8.9,0.4,18.5,2,27.2-0.7c13.2-4.1,25.2-14.6,31.5-26.9
	c4.8-9.3,6.5-20.1,3.2-30.2c-2.2-6.7-6.2-13-12.7-16.1c-4.6-2.2-10.1-2.5-14.9-0.6c-3.7,1.5-6.7,4-8.3,7.8c-0.8,1.9-1.7,4.7-0.8,6.6
	c0.3,0.7,0.3,0.5,1.1,0.8c1.7-1.5,3.3-3,5.4-3.8c2.9-1.1,6.1-0.9,8.9,0.4c3.7,1.7,6.7,5.3,8,9.2c1.1,3.3,0.8,6.7-0.8,9.8
	c-2,3.6-6.1,6.6-10.1,7.5c-3.9,0.9-7.9-0.6-11.3-2.6c-0.3-0.2-0.7-0.4-1-0.6c-0.3-0.2-0.6-0.4-0.9-0.7c-0.3-0.2-0.6-0.5-0.9-0.7
	c-0.3-0.2-0.6-0.5-0.9-0.8c-0.3-0.3-0.6-0.5-0.8-0.8c-0.3-0.3-0.5-0.6-0.8-0.8c-0.3-0.3-0.5-0.6-0.7-0.9c-0.2-0.3-0.5-0.6-0.7-0.9
	c-0.2-0.3-0.4-0.6-0.7-1c-0.2-0.3-0.4-0.7-0.6-1c-0.2-0.3-0.4-0.7-0.5-1c-0.2-0.3-0.3-0.7-0.5-1c-0.2-0.4-0.3-0.7-0.4-1.1
	c-0.1-0.4-0.3-0.7-0.4-1.1c-0.1-0.4-0.2-0.7-0.3-1.1c-0.1-0.4-0.2-0.7-0.3-1.1c-0.1-0.4-0.1-0.8-0.2-1.1c-0.1-0.4-0.1-0.8-0.1-1.2
	c0-0.4-0.1-0.8-0.1-1.2c0-0.4,0-0.8,0-1.2c0-0.4,0-0.8,0-1.2c0-0.4,0-0.8,0.1-1.2c0-0.4,0.1-0.8,0.1-1.2c0.1-0.4,0.1-0.8,0.2-1.2
	c0.1-0.4,0.2-0.8,0.3-1.1c0.1-0.4,0.2-0.8,0.3-1.1c0.1-0.4,0.2-0.7,0.4-1.1c0.1-0.4,0.3-0.7,0.4-1.1c0.2-0.4,0.3-0.7,0.5-1.1
	s0.3-0.7,0.5-1c0.2-0.3,0.4-0.7,0.6-1c0.2-0.3,0.4-0.7,0.6-1c3.8-5.7,10-10.1,16.8-11.4c7.1-1.4,14.8,0.6,20.6,4.7
	c7.4,5.1,11.9,13.7,13.5,22.4c2.5,13.7-1.3,28.3-9.3,39.6c-10,14.3-24.2,21.3-41.1,24.3c13.4,7.4,26.3,18.6,35.2,31.1
	c4.2,5.8,7.9,12.5,12.7,17.8c0.1,0.1,0.3,0.3,0.4,0.4c-6.8,5.7-14.9,10.7-22.8,14.8c-21.3,11-40.8,10.6-63.2,3.5
	c2.3,5.5,4.1,11,4.9,17c3.7,25.6-6.2,46.9-21.2,66.9c-21.6-13.1-39.3-25-51.4-48.2c-0.1,2.3-0.4,4.6-0.7,6.8
	c-2,13.6-10.5,26.5-21.4,34.7c-10.3,7.7-23.9,11.3-36.7,9.4c-10-1.5-19.2-6.5-25.1-14.8c-0.3-0.4-0.5-0.8-0.8-1.2
	c-0.3-0.4-0.5-0.8-0.7-1.2c-0.2-0.4-0.5-0.8-0.7-1.2c-0.2-0.4-0.4-0.8-0.6-1.3c-0.2-0.4-0.4-0.9-0.6-1.3c-0.2-0.4-0.3-0.9-0.5-1.3
	c-0.2-0.4-0.3-0.9-0.4-1.4c-0.1-0.5-0.2-0.9-0.3-1.4c-0.1-0.5-0.2-0.9-0.3-1.4c-0.1-0.5-0.1-0.9-0.2-1.4c-0.1-0.5-0.1-0.9-0.1-1.4
	c0-0.5-0.1-0.9-0.1-1.4c0-0.5,0-0.9,0-1.4c0-0.5,0-0.9,0.1-1.4c0-0.5,0.1-0.9,0.2-1.4c0.1-0.5,0.1-0.9,0.2-1.4
	c1.3-6.7,5.1-13,10.9-16.6c5.3-3.3,12.2-4.3,18.2-2.8c5.5,1.3,10.6,5.7,13.4,10.6c2.1,3.8,3,8.2,1.7,12.4c-0.1,0.5-0.3,0.9-0.5,1.4
	c-0.2,0.5-0.4,0.9-0.6,1.3c-0.2,0.4-0.5,0.8-0.8,1.3c-0.3,0.4-0.6,0.8-0.9,1.2c-0.3,0.4-0.6,0.7-1,1.1c-0.3,0.3-0.7,0.7-1.1,1
	c-0.4,0.3-0.8,0.6-1.2,0.9c-0.4,0.3-0.8,0.5-1.3,0.7c-0.4,0.2-0.8,0.4-1.3,0.6c-0.4,0.2-0.9,0.3-1.3,0.4c-0.4,0.1-0.9,0.2-1.4,0.3
	c-0.5,0.1-0.9,0.1-1.4,0.1c-0.5,0-0.9,0-1.4,0c-0.5,0-0.9-0.1-1.4-0.1c-0.5-0.1-0.9-0.2-1.4-0.3c-0.4-0.1-0.9-0.3-1.3-0.4
	c-3.1-1.2-5.9-3.6-7.1-6.8c-1.1-2.9-0.8-6,0.5-8.8c2.1-4.6,5.8-6.6,10.3-8.2l-0.2-0.6c-2-1.2-4.5-1.8-6.9-1.9
	c-3.8-0.2-8.4,2.2-11.1,4.8c-3.6,3.5-5.1,8.4-5.1,13.4c0,6,2.7,11.4,6.9,15.6c6.2,6.2,14,9,22.7,9.1c0.7,0,1.4,0,2.1-0.1
	c0.7,0,1.4-0.1,2.1-0.2c0.7-0.1,1.4-0.2,2.1-0.3c0.7-0.1,1.4-0.2,2.1-0.4s1.4-0.3,2.1-0.5c0.7-0.2,1.4-0.4,2-0.6
	c0.7-0.2,1.3-0.4,2-0.7c0.7-0.2,1.3-0.5,2-0.8c0.7-0.3,1.3-0.6,1.9-0.9c0.6-0.3,1.3-0.6,1.9-1c0.6-0.3,1.2-0.7,1.8-1.1
	c0.6-0.4,1.2-0.7,1.8-1.1c0.6-0.4,1.2-0.8,1.7-1.2c0.6-0.4,1.1-0.9,1.7-1.3c0.5-0.5,1.1-0.9,1.6-1.4c0.5-0.5,1-1,1.5-1.5
	c18-18,14.2-41,14.2-64.2c-1.4,4.9-2.3,10-3.8,14.9c-3.2,10.7-9.6,25.2-15.9,34.4c-0.6-7.9-2.3-16.6-1.4-24.5
	c1.5-13.9,12.4-29.7,19.2-42c3.5-6.4,6.9-12.9,10.4-19.3c-34.8,27.7-54.6,50.9-101.2,59.7c-16.1,3-34.8,3.2-50.2,7.8
	c-13.2,3.9-32.3,12.3-39,25.1c-3.4,6.6-4.3,14.7-1.9,21.8c0.1,0.4,0.3,0.7,0.4,1.1c0.1,0.4,0.3,0.7,0.5,1.1c0.2,0.4,0.3,0.7,0.5,1.1
	c0.2,0.3,0.4,0.7,0.6,1c0.2,0.3,0.4,0.7,0.6,1c0.2,0.3,0.4,0.7,0.7,1c0.2,0.3,0.5,0.6,0.7,0.9c0.2,0.3,0.5,0.6,0.8,0.9
	c0.3,0.3,0.5,0.6,0.8,0.9c0.3,0.3,0.6,0.6,0.9,0.8c0.3,0.3,0.6,0.5,0.9,0.8c0.3,0.3,0.6,0.5,0.9,0.7c0.3,0.2,0.6,0.5,1,0.7
	c0.3,0.2,0.7,0.4,1,0.6c0.3,0.2,0.7,0.4,1,0.6c0.3,0.2,0.7,0.4,1.1,0.5c4.6,2.2,10.1,2.8,14.8,0.9c4.6-1.9,8.5-6.2,10.2-10.8
	c0.9-2.5,1.2-5.4,0-7.8c-0.6-1.2-1.6-2.7-2.9-3.1c-2.1,2.7-1.5,8.1-4.4,11.9c-2,2.7-5.1,4.5-8.4,4.8c-3.4,0.3-6.8-1.2-9.3-3.5
	c-2.9-2.7-4.8-6.5-4.9-10.5c-0.1-4.4,1.9-8.6,4.9-11.7c4-4.1,9.7-6.1,15.4-6c0.4,0,0.7,0,1.1,0.1c0.4,0,0.7,0.1,1.1,0.1
	c0.4,0,0.7,0.1,1.1,0.2c0.4,0.1,0.7,0.1,1.1,0.2c0.4,0.1,0.7,0.2,1.1,0.3c0.4,0.1,0.7,0.2,1.1,0.3c0.3,0.1,0.7,0.2,1,0.4
	c0.3,0.1,0.7,0.3,1,0.4c0.3,0.2,0.7,0.3,1,0.5c0.3,0.2,0.7,0.3,1,0.5c0.3,0.2,0.6,0.4,0.9,0.6c0.3,0.2,0.6,0.4,0.9,0.6
	c0.3,0.2,0.6,0.4,0.9,0.7c0.3,0.2,0.6,0.5,0.8,0.7c0.3,0.2,0.5,0.5,0.8,0.8c0.3,0.3,0.5,0.5,0.8,0.8c3.4,3.8,5.5,8.9,5.3,14
	c-0.3,7.6-4.4,14.7-10,19.7c-6.6,5.9-13.8,7.4-22.3,6.9c-7-1-13.3-4.9-18.2-10c-7.3-7.6-9.5-16.3-9.3-26.6
	c-8.2,8.7-16.8,16.6-27.7,21.7c-19.8,9.3-46.6,8.3-66.9,1c-17.2-6.2-30.2-18.9-37.9-35.3c-4.3,8.4-9.8,16-16.8,22.4
	c-15.9,14.7-38.3,19.1-59.3,18.2c-24.8-1-39.7-9.9-56.3-27.9c0,7.7-0.7,14.5-4.7,21.2c-4.3,7.2-11.2,12.8-19.4,14.8
	c-7.3,1.8-15.8,1.2-22.3-2.8c-5.7-3.5-10-9.7-11.3-16.3c-1.3-6.6,0.8-13.7,4.7-19c3.3-4.5,7.9-7.3,13.4-8c5.9-0.7,12,0.7,16.6,4.5
	c3.4,2.8,5.3,6.6,5.6,11c0,0.5,0,0.9,0,1.4c0,0.5-0.1,0.9-0.1,1.4c-0.1,0.5-0.2,0.9-0.3,1.4c-0.1,0.5-0.2,0.9-0.4,1.4
	c-0.2,0.4-0.3,0.9-0.5,1.3c-0.2,0.4-0.4,0.8-0.7,1.3c-0.2,0.4-0.5,0.8-0.8,1.2c-0.3,0.4-0.6,0.7-0.9,1.1c-2.4,2.6-5.7,4.3-9.3,4.4
	c-0.4,0-0.9,0-1.3,0c-0.4,0-0.9-0.1-1.3-0.2c-0.4-0.1-0.8-0.2-1.3-0.3c-0.4-0.1-0.8-0.3-1.2-0.4c-0.4-0.2-0.8-0.3-1.2-0.5
	c-0.4-0.2-0.8-0.4-1.1-0.7c-0.4-0.2-0.7-0.5-1.1-0.8c-0.3-0.3-0.7-0.6-1-0.9c-4.2-4.1-4.6-9.4-4.8-14.9c-1.9,3.5-3.6,6.8-3.4,10.9
	c0.2,3.9,2.1,7.3,5.1,9.8c3.6,3,8.6,4.6,13.3,4.2c5.3-0.5,10.1-3.6,13.4-7.7c4.3-5.3,5.8-12.1,5.1-18.9
	c-1.3-12.6-8.7-22.3-20.1-27.5c-4.3-1.9-9-3.1-13.4-4.8c-4.9-1.9-9-5-14.3-5.9c-3.8-0.7-7.8-0.5-11.6-0.7
	c-8.1-0.4-16.4-0.7-24.4-2.1c-3.4-0.6-6.7-1.3-10-2.1c-3.3-0.8-6.6-1.7-9.9-2.7c-3.3-1-6.5-2.1-9.7-3.3c-3.2-1.2-6.4-2.5-9.5-3.9
	c-20-9.1-38.4-21.8-54.7-36.4c-6.4-5.7-12.4-12.2-19.1-17.6l-0.6-0.5c6,9,10.8,18.7,16,28.2c4.9,8.8,10.5,17.6,14.2,26.9
	c4.3,10.8,4.7,22.1,11.1,32.1c-2.3-0.4-4.6-0.7-6.8-1.6c-16.6-6.7-15.9-26-21.7-40.1c0.1,5.2-0.1,10.3-0.4,15.5
	c-0.7,15.8-0.5,27.6,10.9,39.9c8.6,9.3,21.7,15.9,34.5,16.2c8.3,0.2,16.4-2.4,22.4-8.3c4.2-4.1,7.1-9.7,7-15.7
	c0-4.4-1.6-8.6-4.8-11.5c-2.5-2.2-5.3-3.6-8.6-3.4c-2.1,0.1-5,0.1-6.5,1.7c2.8,2.2,5.6,4,6.7,7.5c0.9,2.9,0.2,6-1.3,8.5
	c-1.8,3.1-4.8,5.4-8.3,6.3c-3.5,0.9-7.7,0-10.7-2c-2.9-1.9-4.4-5-4.9-8.4c-0.7-4.4,0.7-8.5,3.3-12c3.8-5.1,9.8-8.9,16.2-9.7
	c6.3-0.7,12.8,1.4,17.6,5.5c4.9,4.1,8,9.8,8.5,16.2c0.6,7.6-2.5,14.9-7.6,20.5c-6.6,7.3-16.9,11.6-26.6,12c-0.9,0-1.8,0-2.7,0
	c-0.9,0-1.8-0.1-2.7-0.1c-0.9-0.1-1.8-0.2-2.7-0.3c-0.9-0.1-1.8-0.2-2.7-0.4c-0.9-0.2-1.8-0.3-2.7-0.5c-0.9-0.2-1.8-0.4-2.7-0.7
	c-0.9-0.2-1.8-0.5-2.6-0.8c-0.9-0.3-1.7-0.6-2.6-0.9c-0.9-0.3-1.7-0.7-2.5-1c-0.8-0.4-1.7-0.8-2.5-1.2c-0.8-0.4-1.6-0.8-2.4-1.3
	c-0.8-0.4-1.6-0.9-2.4-1.4c-0.8-0.5-1.5-1-2.3-1.5c-0.7-0.5-1.5-1.1-2.2-1.6c-0.7-0.6-1.4-1.1-2.1-1.7c-0.7-0.6-1.4-1.2-2-1.8
	c-11.1-10.6-14.9-23.5-15.4-38.5c-7.9,17.4-18.6,31.7-34.6,42.4c-5.2,3.5-10.9,6.3-16,9.9c-5.6-7.5-11-15.2-14.8-23.8
	c-0.5-1.2-1-2.4-1.5-3.6c-0.5-1.2-0.9-2.4-1.3-3.7c-0.4-1.2-0.8-2.5-1.2-3.7c-0.4-1.3-0.7-2.5-1-3.8c-0.3-1.3-0.6-2.6-0.8-3.8
	c-0.2-1.3-0.4-2.6-0.6-3.9c-0.2-1.3-0.3-2.6-0.4-3.9c-0.1-1.3-0.2-2.6-0.2-3.9c0-1.3,0-2.6,0-3.9c0-1.3,0.1-2.6,0.2-3.9
	s0.2-2.6,0.4-3.9c0.2-1.3,0.3-2.6,0.5-3.9c0.2-1.3,0.5-2.6,0.7-3.8c0.3-1.3,0.6-2.5,0.9-3.8c0.3-1.3,0.7-2.5,1.1-3.8
	c0.4-1.2,0.8-2.5,1.3-3.7c-5.3,2-10.6,3.5-16.3,4.3c-28.2,4-47.9-5.6-69.8-22c4-4.9,7.1-10.7,10.7-15.9c1.2-1.7,2.4-3.4,3.7-5.1
	c1.3-1.6,2.6-3.3,3.9-4.8c1.4-1.6,2.8-3.1,4.2-4.6c1.5-1.5,3-2.9,4.5-4.3c1.5-1.4,3.1-2.7,4.7-4.1c1.6-1.3,3.3-2.6,5-3.8
	s3.4-2.4,5.2-3.5c1.8-1.1,3.6-2.1,5.4-3.1c-13.8-2.4-26-7.4-35.7-17.8C25.6,822,19.9,810,20.3,797c0-0.7,0.1-1.4,0.1-2.1
	c0.1-0.7,0.1-1.4,0.2-2.1c0.1-0.7,0.2-1.4,0.3-2.1c0.1-0.7,0.3-1.4,0.4-2.1c0.2-0.7,0.3-1.4,0.5-2.1s0.4-1.4,0.6-2
	c0.2-0.7,0.5-1.3,0.7-2c0.3-0.7,0.5-1.3,0.8-2c0.3-0.6,0.6-1.3,0.9-1.9c0.3-0.6,0.7-1.3,1-1.9s0.7-1.2,1.1-1.8
	c0.4-0.6,0.8-1.2,1.2-1.8c0.4-0.6,0.8-1.1,1.3-1.7c0.4-0.6,0.9-1.1,1.4-1.6c0.5-0.5,1-1.1,1.5-1.6c0.5-0.5,1-1,1.5-1.5
	c6.5-5.9,15.3-9.4,24.1-8.8c5.7,0.4,12,4,15.6,8.3c3.9,4.7,5.1,10.8,4.5,16.8c-0.6,6.1-3.3,12-8.3,15.8c-4.3,3.2-9.7,4.3-15,3.5
	c-3.8-0.6-7.3-2.5-9.4-5.7c-1.9-2.8-2.4-6.6-1.7-9.9c0.7-3.4,2.9-6.1,5.8-7.9c0.3-0.2,0.7-0.4,1-0.5c0.3-0.2,0.7-0.3,1-0.4
	c0.4-0.1,0.7-0.2,1.1-0.3s0.7-0.2,1.1-0.2c0.4-0.1,0.7-0.1,1.1-0.1c0.4,0,0.8,0,1.1,0c0.4,0,0.7,0.1,1.1,0.1
	c0.4,0.1,0.7,0.1,1.1,0.2c4.8,1.3,7,4.6,9.2,8.7c2.3-2.9,4.1-5.5,3.8-9.4c-0.2-2.9-1.8-5.4-3.9-7.2c-3.7-3.2-8.9-4.5-13.7-3.9
	c-7.1,0.7-13.7,4.8-18.2,10.3c-5.8,7.1-8.2,16.5-7.3,25.6c1.3,12,7.5,21.6,16.9,29c16.8,13.3,35.3,11.7,55.3,9.3
	c-4.5-1.5-9.2-2.2-13.8-3.5c-12.8-3.6-22.7-10.2-31.4-20.2c8.4,1.9,17.2,1.1,25.6,3.3c22.7,5.8,43.2,20.7,63.7,31.6
	c-20.3-22.4-38.7-43.5-50.7-71.7c-2.6-6.1-4.8-12.4-6.8-18.7c-2-6.4-3.6-12.8-5-19.3c-5-23.6-5.7-57.3-22.1-76
	c-5.5-6.2-12.8-10.1-21.1-10.4c-6.7-0.3-13.4,2.1-18.2,6.8c-0.3,0.3-0.5,0.5-0.8,0.8c-0.2,0.3-0.5,0.6-0.7,0.8
	c-0.2,0.3-0.5,0.6-0.7,0.9c-0.2,0.3-0.4,0.6-0.6,0.9c-0.2,0.3-0.4,0.6-0.6,0.9c-0.2,0.3-0.4,0.6-0.5,1c-0.2,0.3-0.3,0.7-0.5,1
	c-0.2,0.3-0.3,0.7-0.4,1c-0.1,0.3-0.3,0.7-0.4,1c-0.1,0.3-0.2,0.7-0.3,1c-0.1,0.4-0.2,0.7-0.3,1.1c-0.1,0.4-0.2,0.7-0.2,1.1
	c-0.1,0.4-0.1,0.7-0.2,1.1c-0.1,0.4-0.1,0.7-0.1,1.1c0,0.4-0.1,0.7-0.1,1.1c0,0.4,0,0.7,0,1.1c0,5.2,1.7,10.5,5.5,14.2
	c2.7,2.6,6.5,4.3,10.3,4.2c3.1-0.1,5.8-1.6,7.8-4c2-2.4,3.1-4.5,2.7-7.6l-0.7-0.6c-2.5,2-5,4.3-8.1,5.2c-2.5,0.7-5.1,0.7-7.4-0.7
	c-3.6-2.2-5.1-6.7-6.1-10.5c0.8-3.1,1.6-5.9,3.6-8.5c2.5-3.2,6-5.3,10-5.7c0.5-0.1,1.1-0.1,1.6-0.1c0.5,0,1.1,0,1.6,0.1
	c0.5,0.1,1.1,0.1,1.6,0.2c0.5,0.1,1.1,0.2,1.6,0.4c0.5,0.2,1,0.3,1.5,0.6c0.5,0.2,1,0.4,1.5,0.7c0.5,0.3,0.9,0.5,1.4,0.8
	c0.4,0.3,0.9,0.6,1.3,1c0.2,0.2,0.5,0.4,0.7,0.6c0.2,0.2,0.4,0.4,0.6,0.6c0.2,0.2,0.4,0.4,0.6,0.7c0.2,0.2,0.4,0.5,0.6,0.7
	c0.2,0.2,0.4,0.5,0.5,0.7c0.2,0.2,0.3,0.5,0.5,0.8c0.2,0.3,0.3,0.5,0.5,0.8c0.1,0.3,0.3,0.5,0.4,0.8c0.1,0.3,0.3,0.5,0.4,0.8
	c0.1,0.3,0.2,0.6,0.3,0.8c0.1,0.3,0.2,0.6,0.3,0.9c0.1,0.3,0.2,0.6,0.3,0.9c0.1,0.3,0.1,0.6,0.2,0.9c0.1,0.3,0.1,0.6,0.2,0.9
	c0,0.3,0.1,0.6,0.1,0.9c0,0.3,0.1,0.6,0.1,0.9c0.4,6-2,12.6-6.1,16.9c-4.2,4.4-9.5,6.3-15.5,6.3c-6.5,0-12.9-2.8-17.5-7.4
	c-5-4.9-7.4-11.5-7.2-18.4c0-0.5,0-1,0.1-1.6c0-0.5,0.1-1,0.2-1.5c0.1-0.5,0.1-1,0.2-1.5c0.1-0.5,0.2-1,0.3-1.5
	c0.1-0.5,0.2-1,0.4-1.5c0.1-0.5,0.3-1,0.5-1.5c0.2-0.5,0.3-1,0.5-1.5s0.4-1,0.6-1.4s0.4-0.9,0.7-1.4c0.2-0.5,0.5-0.9,0.7-1.4
	c0.3-0.4,0.5-0.9,0.8-1.3s0.6-0.9,0.9-1.3c0.3-0.4,0.6-0.8,0.9-1.2c0.3-0.4,0.7-0.8,1-1.2c0.3-0.4,0.7-0.8,1.1-1.1
	c0.4-0.4,0.7-0.7,1.1-1.1c9-8.4,18.9-9.4,30.6-9c-11.9-6-22.3-18.7-28-30.6c-8.5-18.1-9.3-43.2-2.5-61.9
	c7.2-19.7,22.8-33.6,41.5-42.3c-0.9-0.4-1.9-0.8-2.8-1.2c-0.9-0.4-1.8-0.8-2.7-1.3c-0.9-0.5-1.8-0.9-2.7-1.4c-0.9-0.5-1.7-1-2.6-1.5
	c-0.9-0.5-1.7-1.1-2.5-1.6c-0.8-0.6-1.7-1.1-2.5-1.7c-0.8-0.6-1.6-1.2-2.4-1.8c-0.8-0.6-1.6-1.3-2.3-1.9c-0.8-0.7-1.5-1.3-2.2-2
	c-0.7-0.7-1.4-1.4-2.1-2.1c-0.7-0.7-1.4-1.5-2.1-2.2c-0.7-0.7-1.3-1.5-2-2.3c-0.6-0.8-1.3-1.6-1.9-2.4c-0.6-0.8-1.2-1.6-1.8-2.4
	s-1.1-1.7-1.7-2.5c-0.5-0.8-1.1-1.7-1.6-2.6c-10.4-18.1-13-42.8-7.4-62.9c0.3-1,0.6-2.1,1-3.1c0.3-1,0.7-2,1.1-3c0.4-1,0.8-2,1.3-3
	s0.9-1.9,1.4-2.9c0.5-1,1-1.9,1.5-2.8c0.5-0.9,1.1-1.8,1.7-2.8c0.6-0.9,1.2-1.8,1.8-2.7s1.3-1.7,1.9-2.6c0.7-0.8,1.3-1.7,2-2.5
	c0.7-0.8,1.4-1.6,2.2-2.4c0.7-0.8,1.5-1.5,2.3-2.3c0.8-0.7,1.6-1.5,2.4-2.2c0.8-0.7,1.6-1.4,2.5-2c0.8-0.7,1.7-1.3,2.6-1.9
	c0.9-0.6,1.8-1.2,2.7-1.8c0.9-0.6,1.8-1.1,2.8-1.7c-2.8,0.1-5.7,0.2-8.5,0.1c-0.5,0-1.1-0.1-1.6-0.1c-0.5-0.1-1.1-0.1-1.6-0.2
	c-0.5-0.1-1.1-0.2-1.6-0.3c-0.5-0.1-1.1-0.2-1.6-0.4c-0.5-0.1-1-0.3-1.6-0.5c-0.5-0.2-1-0.3-1.5-0.5c-0.5-0.2-1-0.4-1.5-0.6
	s-1-0.4-1.5-0.7s-1-0.5-1.4-0.8c-0.5-0.3-0.9-0.5-1.4-0.8c-0.5-0.3-0.9-0.6-1.4-0.9c-0.4-0.3-0.9-0.6-1.3-1c-0.4-0.3-0.9-0.7-1.3-1
	c-0.4-0.4-0.8-0.7-1.2-1.1c-0.4-0.4-0.8-0.8-1.2-1.2c-0.4-0.4-0.7-0.8-1.1-1.2c-5.7-6.5-8.1-14-7.5-22.6c0.5-6.8,3.3-13,8.6-17.4
	c5-4,11.7-6.4,18.1-5.6c5.6,0.6,11,3.6,14.3,8.2c3.2,4.4,4.7,10.8,3.6,16.2c-0.1,0.5-0.2,1.1-0.4,1.6c-0.2,0.5-0.3,1-0.6,1.5
	c-0.2,0.5-0.4,1-0.7,1.5c-0.3,0.5-0.5,0.9-0.8,1.4c-0.3,0.4-0.6,0.9-1,1.3c-0.3,0.4-0.7,0.8-1.1,1.2c-0.4,0.4-0.8,0.7-1.2,1.1
	c-0.4,0.3-0.9,0.7-1.3,1c-3.6,2.3-8.1,3.3-12.3,2.2c-3.3-0.8-6.5-2.8-8.1-5.9c-0.2-0.3-0.3-0.6-0.4-0.9c-0.1-0.3-0.2-0.6-0.3-0.9
	c-0.1-0.3-0.2-0.6-0.2-0.9c-0.1-0.3-0.1-0.6-0.1-0.9c0-0.3,0-0.6,0-1c0-0.3,0-0.6,0.1-1c0-0.3,0.1-0.6,0.1-0.9
	c0.1-0.3,0.1-0.6,0.2-0.9c0.9-2.6,2.8-4.7,5.3-5.8c4.9-2.3,9.7-0.7,14.4,1.2c-0.7-2.9-1.5-5.7-3.7-7.8c-2.3-2.2-5.6-2.8-8.7-2.6
	c-4,0.2-7.8,1.9-10.4,5c-3.3,3.9-4.7,9.4-4.2,14.4c0.6,6.3,4.2,12,9.1,15.8c0.3,0.3,0.7,0.5,1,0.8c0.3,0.2,0.7,0.5,1.1,0.7
	c0.4,0.2,0.7,0.4,1.1,0.6c0.4,0.2,0.7,0.4,1.1,0.6c0.4,0.2,0.8,0.4,1.1,0.5c0.4,0.2,0.8,0.3,1.2,0.5c0.4,0.1,0.8,0.3,1.2,0.4
	s0.8,0.2,1.2,0.3c0.4,0.1,0.8,0.2,1.2,0.3c0.4,0.1,0.8,0.2,1.2,0.2c0.4,0.1,0.8,0.1,1.3,0.2c0.4,0,0.8,0.1,1.3,0.1
	c0.4,0,0.8,0,1.3,0c0.4,0,0.8,0,1.3,0c0.4,0,0.8-0.1,1.3-0.1c0.4,0,0.8-0.1,1.3-0.2c5.7-0.9,10.7-3.8,15.1-7.6
	c16-13.9,18.5-35.9,21.9-55.6c1.4-8.8,3.1-17.5,5-26.2c0.9-4,1.8-7.9,2.9-11.8c1.1-3.9,2.3-7.8,3.6-11.6c1.3-3.8,2.7-7.6,4.2-11.4
	c1.5-3.8,3.1-7.5,4.9-11.1c1.5-3.1,3.1-6.2,4.8-9.3c1.7-3,3.5-6,5.3-9c1.9-2.9,3.8-5.8,5.8-8.6c2-2.8,4.1-5.6,6.3-8.3
	c8.2-10.1,16.9-19.3,24.4-30c-8.2,4.8-16.4,9.7-24.6,14.6c-21.8,13.1-40,21.9-66,19.3c10.4-4.3,20.2-9.9,30.4-14.7
	c5.2-2.5,10.6-4.5,16-6.5c-12.3,0.5-25.6-1-37.6,2.2C51.5,188.5,41.5,196.7,35,208c-5.7,9.9-7.6,21-4.5,32.1
	c1.7,6.1,5.1,12.7,10.9,15.8c4.6,2.4,10.3,2.4,15.1,0.8c4.6-1.5,8.8-4.7,11-9.1c2.1-4.2,1.4-8.2-0.1-12.4l-0.4-0.1
	c-0.2,2.3-0.3,4.5-1.7,6.5c-1.6,2.3-4.2,3.8-6.9,4.3c-3.2,0.6-7.2-0.5-9.8-2.4c-2.6-1.8-4.1-4.6-4.6-7.7c-0.5-3.5,0.6-7,2.9-9.7
	c0.3-0.4,0.6-0.7,1-1.1c0.3-0.3,0.7-0.7,1.1-0.9c0.4-0.3,0.8-0.6,1.2-0.8c0.4-0.3,0.8-0.5,1.2-0.7c0.4-0.2,0.9-0.4,1.3-0.6
	c0.4-0.2,0.9-0.3,1.4-0.4c0.5-0.1,0.9-0.2,1.4-0.3c0.5-0.1,0.9-0.1,1.4-0.2c4.7-0.3,9.5,2,13,5.1c4,3.6,6.3,8.9,6.5,14.2
	c0.3,5.9-2.2,11.2-6.2,15.4c-5.3,5.5-12.9,9-20.5,9.1c-0.4,0-0.8,0-1.2,0s-0.8,0-1.2-0.1c-0.4,0-0.8-0.1-1.2-0.1s-0.8-0.1-1.2-0.2
	c-0.4-0.1-0.8-0.2-1.2-0.2c-0.4-0.1-0.8-0.2-1.2-0.3c-0.4-0.1-0.8-0.2-1.2-0.4c-0.4-0.1-0.8-0.3-1.2-0.4c-0.4-0.2-0.8-0.3-1.1-0.5
	c-0.4-0.2-0.7-0.3-1.1-0.5c-0.4-0.2-0.7-0.4-1.1-0.6c-0.4-0.2-0.7-0.4-1-0.6c-0.3-0.2-0.7-0.5-1-0.7c-0.3-0.2-0.7-0.5-1-0.7
	c-0.3-0.3-0.6-0.5-0.9-0.8c-0.3-0.3-0.6-0.5-0.9-0.8c-7-6.7-10.6-17.1-10.7-26.6c-0.2-14.4,6.3-27.6,16.3-37.8
	c10.1-10.3,22.7-16.8,37.3-16.8c-15.3-7.6-29.1-20.4-39.2-34.1c-4-5.5-7.5-11.4-11.4-17c3.2-2.5,6.5-4.9,9.9-7.1
	c3.4-2.2,6.9-4.2,10.5-6c23.7-11.9,40.6-11.1,65.1-2.9c-2.4-6.2-4.3-12.5-5.3-19c-4.1-25.3,6.7-47.3,21-67.3
	c5.1,3.3,10.4,6.1,15.4,9.5c1,0.7,1.9,1.4,2.9,2.1c0.9,0.7,1.9,1.4,2.8,2.2c0.9,0.7,1.8,1.5,2.7,2.3c0.9,0.8,1.8,1.6,2.6,2.4
	c0.9,0.8,1.7,1.6,2.5,2.5c0.8,0.8,1.7,1.7,2.5,2.6c0.8,0.9,1.6,1.7,2.4,2.6c0.8,0.9,1.5,1.8,2.3,2.7c0.7,0.9,1.5,1.9,2.2,2.8
	c0.7,0.9,1.4,1.9,2.1,2.9c0.7,1,1.3,2,2,2.9c0.6,1,1.3,2,1.9,3c0.6,1,1.2,2,1.8,3.1c0.6,1,1.1,2.1,1.7,3.1c0.5,1.1,1.1,2.1,1.6,3.2
	c0.5,1.1,1,2.2,1.4,3.2c0.1-13.2,3.8-24.9,12.1-35.2c0.6-0.7,1.2-1.4,1.8-2.1c0.6-0.7,1.2-1.3,1.9-2c0.6-0.6,1.3-1.3,2-1.9
	c0.7-0.6,1.4-1.2,2.1-1.8s1.4-1.1,2.1-1.7c0.7-0.5,1.5-1.1,2.2-1.6c0.8-0.5,1.5-1,2.3-1.5c0.8-0.5,1.6-0.9,2.4-1.3
	c0.8-0.4,1.6-0.8,2.4-1.2c0.8-0.4,1.7-0.8,2.5-1.1c0.8-0.3,1.7-0.7,2.5-1c0.9-0.3,1.7-0.6,2.6-0.8c0.9-0.3,1.7-0.5,2.6-0.7
	c0.9-0.2,1.8-0.4,2.7-0.6c0.9-0.2,1.8-0.3,2.7-0.5c0.9-0.1,1.8-0.2,2.7-0.3c10.5-1,21.3,1.7,29.5,8.5c6.5,5.3,9.9,12.3,10.5,20.7
	c0.5,6.9-2.1,14.7-6.8,19.9c-3.6,3.9-8.6,6.1-13.9,6.2c-6.9,0.1-14.2-3.3-19.1-8.1c-3.3-3.2-5.9-7.7-5.7-12.4c0.2-3.6,2-6.8,4.7-9.1
	c2.8-2.4,6.1-3.8,9.8-3.4c3.4,0.4,6.5,2.3,8.6,5c2,2.7,3.2,6.2,2.7,9.5c-0.5,3-2.2,5.1-4.6,6.8l-2.8,1.9l-0.1,0.7
	c1,1.2,2.7,1.4,4.2,1.6c4.1,0.5,7.8-0.6,10.9-3.3c3.2-2.7,4.9-7.7,5.2-11.8c0-0.4,0-0.7,0.1-1.1c0-0.4,0-0.7,0-1.1
	c0-0.4,0-0.7-0.1-1.1c0-0.4-0.1-0.7-0.1-1.1c0-0.4-0.1-0.7-0.2-1.1c-0.1-0.4-0.1-0.7-0.2-1.1c-0.1-0.4-0.2-0.7-0.3-1
	c-0.1-0.3-0.2-0.7-0.3-1c-0.1-0.3-0.2-0.7-0.4-1c-0.1-0.3-0.3-0.7-0.4-1c-0.1-0.3-0.3-0.7-0.5-1c-0.2-0.3-0.3-0.6-0.5-0.9
	c-0.2-0.3-0.4-0.6-0.6-0.9c-0.2-0.3-0.4-0.6-0.6-0.9c-0.2-0.3-0.4-0.6-0.7-0.9c-0.2-0.3-0.5-0.6-0.7-0.8c-5.3-6-13-9.1-20.8-9.5
	c-12.4-0.6-25.5,5.4-34.4,13.7c-20,18.6-13.1,36.5-14,60.4c4.4-10.9,5.4-24,12.2-33.8c4.3-6.2,9.6-8.5,16.8-9.9
	c-10.4,12.1-7.1,24-13.3,37.5c-8.2,17.7-20.2,33.5-29.2,50.8c10.4-7.3,19-16.9,28.9-24.9c5.1-4.1,10.3-8,15.7-11.7
	c5.4-3.7,10.9-7.2,16.6-10.4c31.6-18,56.7-20.9,92-21.2c7.5-5.7,15.8-7,24-11c8.9-4.3,15.8-10.8,19-20.2c2.6-7.5,3.1-16.8-0.7-24.1
	c-2.5-4.8-6.7-8.6-11.9-10.2c-0.6-0.2-1.1-0.3-1.7-0.5c-0.6-0.1-1.2-0.2-1.8-0.3s-1.2-0.1-1.8-0.1c-0.6,0-1.2,0-1.8,0.1
	c-0.6,0.1-1.2,0.1-1.8,0.3c-0.6,0.1-1.2,0.3-1.7,0.4c-0.6,0.2-1.1,0.4-1.7,0.6c-0.5,0.2-1.1,0.5-1.6,0.8c-3.9,2.1-7,5.5-8.1,9.9
	c-1.4,5.3,0.7,9.4,3.2,13.9c-0.2-4.8,0.1-9.1,2.9-13.2c2.1-3.1,5.7-5.7,9.5-6.3c3.1-0.5,6.1,0.4,8.6,2.2c3.1,2.4,5.1,6.1,5.7,10
	c0.1,0.5,0.1,1.1,0.2,1.6c0,0.5,0,1.1,0,1.6c0,0.5-0.1,1.1-0.2,1.6c-0.1,0.5-0.2,1.1-0.3,1.6c-0.1,0.5-0.3,1-0.5,1.5
	c-0.2,0.5-0.4,1-0.6,1.5c-0.2,0.5-0.5,1-0.8,1.4c-0.3,0.5-0.6,0.9-0.9,1.3c-3.3,4.1-8.3,5.9-13.4,6.6c-5.6,0.7-10.3-0.2-14.8-3.8
	c-4.8-3.9-8.3-9.9-8.8-16.1c-0.6-6.8,2-13.8,6.4-18.9C333.5,4.3,340.2,1.9,348.3,1.2z"/>
<path class="st0" d="M868,212.4c4.1,1.5,7.8,3.8,10.8,7c4.1,4.5,6.6,10.7,6.1,16.8c-0.4,5.4-3,9.1-7,12.5c-1.6,0.9-3.2,1.7-5.1,1.8
	c-2.6,0.1-5.7-0.8-7.6-2.7c-5-5,0.7-16.7,1.8-22.8C867.8,220.8,868,216.6,868,212.4z"/>
<path class="st0" d="M872.4,773.1c1.7,0.1,3.3,0.4,4.9,1c2.5,1,4.4,3.1,5.4,5.6c4.8,11.9-4.7,30.2-9.4,41.2l-0.2,0.3l-0.4-0.2
	c-0.2-3.6-0.2-7.4-0.9-11c-1.8-9.3-6.4-17.6-8.8-26.6c0.4-1.9,0.9-3.7,1.9-5.4C866.6,774.9,869.1,773.9,872.4,773.1z"/>
<path class="st0" d="M780.6,863.9c7.8,0,16,4.4,23.5,6.4c5.7,1.6,11.2,2.2,17.1,2.6c-3.9,2.8-8,4.9-12.4,6.9
	c-7.2,2.9-15.3,5.4-23.2,4.3c-4.1-0.6-8.5-2.5-11-6c-1.1-1.7-1.6-3.6-1.2-5.6C774.2,868.8,777.5,865.9,780.6,863.9z"/>
<path class="st0" d="M787.4,138.1c3.6-0.3,7.1-0.1,10.5,1.1c7.4,2.8,11.8,9.8,14.9,16.7c-5.3,0-10.4,0.1-15.7,0.8
	c-5.8,1.6-14.3,5.1-19.9,1.9c-1.4-0.8-2.4-2.1-2.9-3.7c-0.8-3.1,0.3-7.1,2-9.7C779,141.1,782.6,139.2,787.4,138.1z"/>
<path class="st0" d="M233.3,140.2c4,0.2,7.8,0.6,11.4,2.7c2.8,1.6,4.6,3.9,5.3,7.1c0.6,2.5,0.8,5.6-0.7,7.8
	c-4.4,6.5-18.3-0.1-24.4-1.3c-4.5-0.9-8.8-1.2-13.4-0.4l-0.7,0.1c-6.4,1.6-11,4.6-16.4,8.3c1-1.5,2-3,3.2-4.4
	C206.7,149.7,219.3,141.3,233.3,140.2z"/>
<path class="st0" d="M163.4,194.4c0.1,0.2,0.3,0.5,0.4,0.7c0,0.3-3.2,4.9-3.6,5.7c-2.6,4.7-4.1,10.2-4.6,15.6
	c-0.9,9.3,7.3,20.3,4.9,28.5c-0.5,1.8-1.7,3.6-3.4,4.5c-2.9,1.5-5.8,0.7-8.7-0.3c-1.6-1.1-3-2.2-4.3-3.7c-3.5-4.3-4.4-9.4-3.8-14.8
	C141.7,215.1,151.9,203.9,163.4,194.4z"/>
<path class="st0" d="M155.3,764.9c0.3,0.1,0.7,0.1,0.8,0.4c0,0.1-4.1,9-2,14.4c1.5,3.8,4.8,6.1,8.5,7.8c-3.4,6-6.5,11.4-6.9,18.4
	c-0.2,3.4,1,8.4-0.3,11.4c-1.3,1.2-2.6,1.5-4.3,1.9c-2.4-1.7-4.2-4.1-5.7-6.6c-4.8-8-7.2-19.9-4.8-29
	C142.7,775.6,148.3,769.2,155.3,764.9z"/>
<path class="st0" d="M236.3,859.9c0.9,1.3,1.5,2.8,2.3,4.2c1.9,3.1,5.8,7,9.4,7.8c4.9,1.2,9.6-1.5,13.6-4.1
	c-1.4,2.8-2.7,5.4-4.7,7.8c-5.9,6.9-14.1,9.4-22.9,10c-8.6-0.3-18.5-2.8-25.6-8.1c-1.4-1-3.1-2.7-3.1-4.6c0-0.2,0.2-1.5,0.3-1.8
	c0.6-1.2,2.8-1.3,3.9-1.4C221,869.1,227.7,868.3,236.3,859.9z"/>
<path class="st0" d="M852.6,835.6c3.3,0.1,7,1,9.7,2.9c3.6,2.4,5.8,6.4,6.5,10.7c0.8,4.8-0.3,9.6-3.3,13.5
	c-3.3,4.3-7.6,5.9-12.8,6.6c-3-0.1-5.9-0.6-8.7-2c-3.8-1.9-6.7-5.2-7.8-9.4c-1.2-4.2-0.4-8.6,1.8-12.4
	C841.4,839.7,846.3,837.1,852.6,835.6z"/>
<path class="st0" d="M18,443.9c0.6,0.5,0.4,0.3,0.8,0.9c3.8,6.1,7.8,12.4,13,17.4C48.2,477.9,71.3,486,77.5,510
	c-16.6-2.7-27.2-6.4-39.7-18.2C23.7,478.5,18.6,462.8,18,443.9z"/>
<path class="st0" d="M945.9,514.8c15.3,0.4,29.2,6.4,40.4,16.9c14.4,13.5,18.9,29.2,19.5,48.4c-2.8-2.5-6.9-11.9-11-16.1
	C978.3,547.3,953.9,538.7,945.9,514.8z"/>
<path class="st0" d="M76.3,514.7l0.4,0l0.5,0.6c-2.5,19.2-31.2,32.9-44.3,45.3c-6.1,5.7-10.5,11.8-14.2,19.3l-0.5,0.4
	c-0.2-0.5-0.2-0.6-0.3-1.2c-0.2-2,0.3-4.5,0.4-6.5c1-12.8,4.8-24.1,12.9-34.1C43,524.2,58.1,516.6,76.3,514.7z"/>
<path class="st0" d="M1005.3,444.3c0.2,0.6,0.2,1.2,0.3,1.8c1,14.6-5.4,30.6-15,41.4c-12.3,13.8-26.1,20.6-44.4,21.6
	c0.1-2.1,1-4.2,1.8-6.1c7.8-18.1,28.4-26.3,42.1-38.9C996.4,458.4,1001,451.7,1005.3,444.3z"/>
<path class="st0" d="M1003.3,597.5c0.8,2.3-0.5,5.9-1.2,8.3c-8.9,32.5-44.6,40.2-57.7,70.9c-1.4-5.8,3.9-25.7,6.1-31.5
	C959.9,620.8,980.5,607.8,1003.3,597.5z"/>
<path class="st0" d="M20.4,597.6c12.5,4,26.3,12.2,35.9,21c17.2,15.8,25.2,39.7,26.1,62.5c-2.2-1.8-6.3-14.6-9.4-18.4
	C53.1,638.3,26.6,633.3,20.4,597.6z"/>
<path class="st0" d="M940.6,341.4c1,1,1.5,3.2,2,4.5c2.6,6.4,6.8,12.8,11.4,18c22.3,25.4,43.1,24.3,50.3,62.8
	c-4.7-0.1-24.4-12.8-28.9-16c-4-2.9-7.7-6-11.1-9.5C950,386.3,940.4,362.1,940.6,341.4z"/>
<path class="st0" d="M83.1,334.8c0.6,1.8,0.5,4.3,0.5,6.3c0,1.5,0,3.1-0.1,4.6c-0.1,1.5-0.2,3.1-0.3,4.6c-0.1,1.5-0.3,3-0.6,4.6
	c-0.2,1.5-0.5,3-0.8,4.5c-0.3,1.5-0.7,3-1,4.5c-0.4,1.5-0.8,2.9-1.3,4.4c-0.5,1.5-1,2.9-1.5,4.3s-1.1,2.8-1.7,4.2
	c-10.7,23.9-32,40.5-56.1,49.7c-0.5-3.2,1-7.2,1.9-10.2c8.3-28.1,35.9-33.6,51.3-55.4C79.1,352.6,80.6,344.4,83.1,334.8z"/>
<path class="st0" d="M153.4,191.5l0.2,0.2c-0.3,2.6-7.6,10-9.4,13c-4.5,7.5-8.4,16.5-9.5,25.2c-2.7,21.3,14.3,32.3,25.9,47.2
	c4.8,6.1,8.3,13.6,7.1,21.6c-1,6.5-5.2,11.4-10.3,15.3c-4.2,2.4-9,3.9-13.9,3.8c-4.8-0.1-9.9-1.6-13.3-5.2c-2.3-2.4-3.5-5.5-4-8.8
	c-1.2-7-0.2-14.7-0.1-21.8c0.1-9.2-0.2-18.4,0.2-27.6C127.3,229.7,134.9,208.6,153.4,191.5z"/>
<path class="st1" d="M144.8,281.2c3.7,0.2,6.4,0.7,9.2,3.3c2.6,2.4,4,5.8,4.1,9.3c0.1,3.4-1,6.8-3.4,9.3c-3.1,3.3-6.5,3.9-10.8,4.1
	c-2.8-0.5-5.5-1.2-7.9-2.9c-2.9-2.1-5-5.1-5.5-8.7c-0.1-0.4-0.1-0.8-0.1-1.2c0-0.4,0-0.8,0-1.2c0-0.4,0.1-0.8,0.1-1.2
	c0.1-0.4,0.2-0.8,0.3-1.2c0.1-0.4,0.2-0.8,0.4-1.2c0.1-0.4,0.3-0.8,0.5-1.1c0.2-0.4,0.4-0.7,0.6-1.1c0.2-0.3,0.5-0.7,0.7-1
	C136.2,282.7,140.3,281.6,144.8,281.2z"/>
<path class="st0" d="M290.5,854.2c2.9,0.1,5.9,0.3,8.7,1.2c6.1,1.8,11.5,6,14.6,11.6c0.2,0.3,0.3,0.7,0.5,1c0.2,0.3,0.3,0.7,0.4,1
	c0.1,0.3,0.3,0.7,0.4,1c0.1,0.3,0.2,0.7,0.3,1c0.1,0.4,0.2,0.7,0.3,1.1c0.1,0.4,0.2,0.7,0.2,1.1c0.1,0.4,0.1,0.7,0.2,1.1
	c0.1,0.4,0.1,0.7,0.1,1.1s0.1,0.7,0.1,1.1c0,0.4,0,0.7,0,1.1c0,0.4,0,0.7,0,1.1c0,0.4-0.1,0.7-0.1,1.1c0,0.4-0.1,0.7-0.2,1.1
	c-0.1,0.4-0.1,0.7-0.2,1.1s-0.2,0.7-0.3,1.1c-0.1,0.4-0.2,0.7-0.3,1.1c-0.1,0.4-0.3,0.7-0.4,1.1c-0.1,0.4-0.3,0.7-0.4,1.1
	c-0.2,0.4-0.3,0.7-0.5,1.1c-0.2,0.4-0.4,0.7-0.6,1c-0.2,0.3-0.4,0.7-0.6,1c-0.2,0.3-0.4,0.7-0.7,1c-0.2,0.3-0.5,0.6-0.7,1
	c-0.2,0.3-0.5,0.6-0.8,0.9c-0.3,0.3-0.5,0.6-0.8,0.9c-0.3,0.3-0.6,0.6-0.8,0.8c-0.3,0.3-0.6,0.5-0.9,0.8c-0.3,0.3-0.6,0.5-0.9,0.7
	c-0.3,0.2-0.6,0.5-1,0.7c-0.3,0.2-0.7,0.4-1,0.6s-0.7,0.4-1,0.6c-0.3,0.2-0.7,0.4-1.1,0.5c-2.3,1.1-4.5,1.7-7,1.8
	c-6,0.3-12.4-0.9-18.4-1c-11.2-0.3-22.3,0.7-33.5-0.8c-7.1-0.9-13.8-2.7-20.5-5c-9.2-3.2-17.7-7.5-24.9-14.1
	c15.2,6.7,27,12.6,44.1,10.6c10.4-1.3,18.7-5.5,23.9-15c2-3.6,3.7-7.5,6.3-10.7C277.7,858,283.3,855.1,290.5,854.2z"/>
<path class="st1" d="M291.8,864.6c2.4-0.3,4.7-0.3,7.1,0.5c0.4,0.1,0.8,0.3,1.2,0.5c0.4,0.2,0.8,0.4,1.1,0.6c0.4,0.2,0.7,0.5,1,0.7
	c0.3,0.3,0.7,0.5,1,0.8c0.3,0.3,0.6,0.6,0.9,0.9c0.3,0.3,0.5,0.7,0.8,1c0.2,0.4,0.5,0.7,0.7,1.1c0.2,0.4,0.4,0.8,0.5,1.2
	c0.2,0.4,0.3,0.9,0.5,1.4c0.1,0.5,0.3,0.9,0.3,1.4c0.1,0.5,0.2,1,0.2,1.4c0,0.5,0.1,1,0.1,1.4c0,0.5,0,1-0.1,1.4
	c-0.1,0.5-0.1,1-0.2,1.4c-0.1,0.5-0.2,0.9-0.4,1.4c-0.1,0.5-0.3,0.9-0.5,1.4c-1.8,4.2-4.8,6.5-8.9,8.2c-2.3,0.2-4.5,0.4-6.7-0.5
	c-0.4-0.1-0.8-0.3-1.2-0.5c-0.4-0.2-0.8-0.4-1.1-0.6c-0.4-0.2-0.7-0.5-1.1-0.7c-0.3-0.3-0.7-0.5-1-0.8c-0.3-0.3-0.6-0.6-0.9-0.9
	c-0.3-0.3-0.6-0.7-0.8-1s-0.5-0.7-0.7-1.1c-0.2-0.4-0.4-0.8-0.6-1.2c-1.6-3.6-1.9-7.9-0.5-11.6C284.3,868,287.5,866.3,291.8,864.6z"
	/>
<path class="st0" d="M876,707.6c4.6-0.6,9.7,0.1,13.7,2.4c4.7,2.7,7.4,7.6,8.8,12.7c2.6,9.7-0.6,18.7-1,28.3
	c-0.3,7.8,1.7,15.6,1.4,23.4c-0.4,14.8-6.9,28.6-12.5,42c-2.1,4.9-4,10.1-6.6,14.8l2.4-8.2c3.2-13.5,7.8-29,6.8-42.8
	c-1.6-22.2-30-24.9-33.9-45.7c-1.1-6.3,1-12.9,4.7-18C863.9,710.9,869.5,708.9,876,707.6z"/>
<path class="st1" d="M875.4,717.6c2.9-0.1,5.6,0.1,8.3,1.2c3.6,1.4,6.6,4.1,8.1,7.7c0.2,0.4,0.3,0.8,0.4,1.2
	c0.1,0.4,0.2,0.8,0.3,1.3c0.1,0.4,0.1,0.8,0.2,1.3c0,0.4,0,0.9,0,1.3s0,0.9-0.1,1.3c-0.1,0.4-0.1,0.8-0.2,1.3
	c-0.1,0.4-0.2,0.8-0.4,1.2c-0.1,0.4-0.3,0.8-0.5,1.2c-2.2,4.8-6.4,7-11.2,8.9c-3.8,0.7-6.9,0.8-10.4-1.1c-3.4-1.8-5.8-5-6.7-8.7
	c-0.1-0.5-0.2-0.9-0.3-1.4c-0.1-0.5-0.1-1-0.1-1.4c0-0.5,0-1,0-1.5c0-0.5,0.1-1,0.1-1.4c0.1-0.5,0.2-1,0.3-1.4
	c0.1-0.5,0.3-0.9,0.4-1.4c0.2-0.5,0.4-0.9,0.6-1.3c0.2-0.4,0.4-0.9,0.7-1.3C867.5,720.4,871.1,718.6,875.4,717.6z"/>
<path class="st0" d="M142.4,707.6c3.6-0.4,7.1-0.3,10.5,1c0.4,0.2,0.8,0.3,1.2,0.5c0.4,0.2,0.8,0.4,1.1,0.5c0.4,0.2,0.7,0.4,1.1,0.6
	c0.4,0.2,0.7,0.4,1.1,0.7c0.4,0.2,0.7,0.5,1,0.7c0.3,0.2,0.7,0.5,1,0.8c0.3,0.3,0.7,0.5,1,0.8c0.3,0.3,0.6,0.6,0.9,0.9
	c0.3,0.3,0.6,0.6,0.9,0.9c0.3,0.3,0.6,0.6,0.8,1c0.3,0.3,0.5,0.7,0.8,1c0.3,0.3,0.5,0.7,0.7,1c0.2,0.4,0.5,0.7,0.7,1.1
	c0.2,0.4,0.4,0.7,0.6,1.1c0.2,0.4,0.4,0.8,0.6,1.1c0.2,0.4,0.3,0.8,0.5,1.2c4.1,10.3,0.2,24.6-8.3,31.8c-1.8,1.5-4.1,2.6-6.2,3.7
	c-6.8,3.5-10.8,8-13.8,15.1c-6,14.2-1.6,29.2,3.9,42.8c1.3,3.2,2.5,6.5,3.8,9.7c-1.9-2.2-3.5-4.7-5.1-7.2
	c-11.6-19.4-18.1-47.2-12.4-69.4c-2.8-2.6-4.8-5.7-5.9-9.4c-1.9-6.5-0.3-13.6,3-19.4C129.6,713.4,135.1,709.6,142.4,707.6z"/>
<path class="st1" d="M143.9,715.6c2.1,0,4.1,0.2,6.1,1.1c3.7,1.5,6.7,4.3,8.2,8.1c0.2,0.4,0.3,0.8,0.4,1.2c0.1,0.4,0.2,0.8,0.3,1.2
	c0.1,0.4,0.1,0.8,0.2,1.3c0,0.4,0,0.9,0,1.3c0,0.4,0,0.9-0.1,1.3c-0.1,0.4-0.1,0.8-0.2,1.3c-0.1,0.4-0.2,0.8-0.4,1.2
	c-0.1,0.4-0.3,0.8-0.5,1.2c-2,4.2-5.1,6-9.4,7.5c-2.7,0.3-5.3,0.2-7.8-1c-0.4-0.2-0.8-0.4-1.2-0.6c-0.4-0.2-0.8-0.5-1.1-0.7
	c-0.4-0.3-0.7-0.5-1-0.8c-0.3-0.3-0.6-0.6-0.9-0.9c-0.3-0.3-0.6-0.7-0.8-1c-0.3-0.4-0.5-0.7-0.7-1.1c-0.2-0.4-0.4-0.8-0.6-1.2
	c-0.2-0.4-0.4-0.8-0.5-1.2c-1.3-3.5-1.2-7.6,0.6-11C136.4,718.5,139.6,716.8,143.9,715.6z"/>
<path class="st0" d="M504.6,948.8c0.5,0,1.1,0.2,1.6,0.3c0.4,0.5,0.5,0.5,0.8,1.2c2.4,4.7-0.8,15.5-2.8,20.1
	c-6,13.5-18.9,24.6-32.6,29.9c-33.4,12.8-66.7,2.6-89.9-23.9c-8.4-9.6-12.1-19.7-24.4-25.2c-0.8-0.2-1.4-0.5-2.2-0.7
	c0.1-0.1,0.2-0.2,0.3-0.2c2.5-1.3,10.2-0.8,13-0.6c38.8,3.8,50.1,49.7,67.7,54.4c4.4,1.2,9.9,0.9,13.9-1.2
	c7.6-4,13.7-12.5,19.2-19.1C479.8,970.9,490,957.5,504.6,948.8z"/>
<path class="st0" d="M438.2,18.2c1.1-0.2,2.3-0.2,3.4-0.2c18.8-0.3,37.8,6.5,51.2,19.8c12.4,12.3,14.3,21.2,14.4,38
	c-20-3.2-42.7-49.9-60-55.7c-4.4-1.5-10.5-1.3-14.6,0.8c-6,5.5-10.4,12-15.3,18.4c-5.4,7.2-11.1,14.4-17.6,20.7
	c-14.5,14.2-23.8,13.7-43.2,13.4c13.2-6.8,14.9-12.1,23.7-23C395.6,31.6,413.9,20.7,438.2,18.2z"/>
<path class="st0" d="M870.8,194.8c0.2,0.1,0.5,0.2,0.7,0.3c7.6,3.6,15.8,18.5,18.8,26c1.3,3.4,2.5,6.9,3.4,10.5
	c0.9,3.6,1.6,7.2,2.1,10.8c1.7,12.3,1.2,24.6,1.5,36.9c0.1,7.1,0.8,14.5,0.3,21.6c-0.2,2.7-0.7,5.5-1.8,8c-1.8,3.9-5.2,6.5-9.2,7.8
	c-7.1,2.4-13.6,1.2-20.2-1.9c-0.3-0.2-0.6-0.4-0.9-0.6c-5.7-3.9-9.6-8.6-10.9-15.5c-0.9-5.2-0.5-10.8,1.7-15.7
	c6.1-13.7,20.3-14.9,27.6-25.8c3.2-4.7,4.4-10.5,4.6-16.1c0.5-13.2-4.1-22-11.2-32.7c-2.7-4.1-5.3-8.3-6.3-13.2
	C870.9,195.2,870.9,195,870.8,194.8z"/>
<path class="st1" d="M874.8,280.6c2.9-0.2,5.4-0.1,8.2,0.9c3.7,1.4,6.9,4.2,8.4,7.9c1.3,3,1.4,6.5,0,9.5c-1.9,4.2-5.6,6.1-9.7,7.6
	c-3.4,0.8-7,0.8-10.2-0.8c-0.4-0.2-0.8-0.4-1.2-0.6c-0.4-0.2-0.7-0.5-1.1-0.7c-0.3-0.3-0.7-0.5-1-0.8c-0.3-0.3-0.6-0.6-0.9-0.9
	c-0.3-0.3-0.6-0.7-0.8-1c-0.3-0.4-0.5-0.7-0.7-1.1c-0.2-0.4-0.4-0.8-0.6-1.2c-0.2-0.4-0.3-0.8-0.5-1.2c-1.2-3.5-0.9-7.6,0.9-10.8
	C867.6,283.5,870.8,281.8,874.8,280.6z"/>
<path class="st0" d="M737.2,123.2c17.7-1.9,43.5,2.2,60.5,7.1c8.5,2.5,27.9,12.9,32.1,20.5l-0.4,0.6c-6.6,0.7-22.4-12-30.8-15
	c-4.4-1.6-9.3-2-13.9-2.1c-2.3,0.1-4.4,0.3-6.7,0.7c-9.2,1.8-17.8,6.8-22.6,15.1c-1.7,2.9-2.9,6.1-4.9,8.9c-3.8,5.5-9.2,9-15.9,10.1
	c-6.3,1-12.7-0.1-17.9-4c-0.3-0.2-0.6-0.4-0.8-0.7c-0.3-0.2-0.5-0.5-0.8-0.7c-0.3-0.2-0.5-0.5-0.8-0.8c-0.3-0.3-0.5-0.5-0.7-0.8
	c-0.2-0.3-0.5-0.6-0.7-0.8c-0.2-0.3-0.4-0.6-0.7-0.9c-0.2-0.3-0.4-0.6-0.6-0.9c-0.2-0.3-0.4-0.6-0.6-0.9c-0.2-0.3-0.3-0.6-0.5-1
	c-0.2-0.3-0.3-0.7-0.5-1c-0.1-0.3-0.3-0.7-0.4-1c-0.1-0.3-0.2-0.7-0.4-1c-0.1-0.3-0.2-0.7-0.3-1c-0.1-0.3-0.2-0.7-0.3-1.1
	c-0.1-0.4-0.1-0.7-0.2-1.1c-0.1-0.4-0.1-0.7-0.1-1.1c-0.7-6.3,1.1-12.9,5.2-17.8C719.7,125.6,728.5,123.9,737.2,123.2z"/>
<path class="st1" d="M728.1,132.5c2-0.1,4.1,0.1,6,0.6c3.7,1.1,6.9,3.5,8.6,7c0.2,0.4,0.4,0.9,0.5,1.3c0.2,0.4,0.3,0.9,0.4,1.3
	c0.1,0.5,0.2,0.9,0.3,1.4c0.1,0.5,0.1,0.9,0.1,1.4c0,0.5,0,0.9,0,1.4c0,0.5-0.1,0.9-0.2,1.4c-0.1,0.5-0.2,0.9-0.3,1.4
	c-0.1,0.4-0.3,0.9-0.4,1.3c-1.7,4.4-5,6.6-9.2,8.3c-2.5,0.2-5.1,0.1-7.5-0.8c-0.4-0.1-0.8-0.3-1.2-0.5c-0.4-0.2-0.8-0.4-1.2-0.6
	c-0.4-0.2-0.7-0.5-1.1-0.7c-0.3-0.3-0.7-0.5-1-0.8c-0.3-0.3-0.6-0.6-0.9-0.9c-0.3-0.3-0.6-0.7-0.8-1c-0.3-0.4-0.5-0.7-0.7-1.1
	c-0.2-0.4-0.4-0.8-0.6-1.2c-0.2-0.4-0.4-0.9-0.5-1.3c-0.1-0.4-0.3-0.9-0.4-1.4c-0.1-0.5-0.2-0.9-0.2-1.4c0-0.5-0.1-0.9-0.1-1.4
	c0-0.5,0-0.9,0.1-1.4c0-0.5,0.1-0.9,0.2-1.4c0.1-0.5,0.2-0.9,0.3-1.4c0.1-0.4,0.3-0.9,0.5-1.3C720.8,136.5,724,134.3,728.1,132.5z"
	/>
<path class="st0" d="M728.9,856.2c10.1-0.5,20.1,2.7,29.6,5.4c-0.6,4.1-0.6,7.8,0.5,11.8c1.6,5.6,5.4,10.1,10.5,12.8
	c15.4,8.2,47.1-1.1,63.1-5.9c-7.2,4.1-15,7.1-22.7,10.2c-8.5,3.4-17.1,5.6-26.1,7.1c-18.6,3.1-51.3,7.9-67-3.9
	c-4.6-3.4-8.1-8.5-8.9-14.3c-0.7-5.7,1.2-11.5,4.9-15.9C717.2,858.5,722.5,856.7,728.9,856.2z"/>
<path class="st1" d="M726.5,867.1c2.3-0.1,4.5,0,6.7,0.7c0.4,0.1,0.8,0.3,1.2,0.5c0.4,0.2,0.8,0.4,1.2,0.6c0.4,0.2,0.7,0.5,1.1,0.7
	c0.3,0.3,0.7,0.5,1,0.8s0.6,0.6,0.9,0.9c0.3,0.3,0.6,0.7,0.8,1c0.3,0.4,0.5,0.7,0.7,1.1c0.2,0.4,0.4,0.8,0.6,1.2
	c1.4,3.2,1.6,7,0.2,10.2c-1.6,3.9-4.5,5.8-8.3,7.3c-2.5,0.2-4.8,0.1-7.2-0.9c-0.4-0.2-0.8-0.3-1.2-0.5c-0.4-0.2-0.8-0.4-1.1-0.7
	c-0.4-0.2-0.7-0.5-1-0.8c-0.3-0.3-0.7-0.6-1-0.9c-0.3-0.3-0.6-0.6-0.9-1c-0.3-0.3-0.5-0.7-0.8-1c-0.2-0.4-0.5-0.7-0.7-1.1
	c-0.2-0.4-0.4-0.8-0.6-1.2c-0.2-0.4-0.3-0.8-0.4-1.2c-0.1-0.4-0.2-0.9-0.3-1.3c-0.1-0.4-0.1-0.9-0.2-1.3c0-0.4,0-0.9,0-1.3
	c0-0.4,0-0.9,0.1-1.3c0.1-0.4,0.1-0.9,0.2-1.3c0.1-0.4,0.2-0.9,0.4-1.3c0.1-0.4,0.3-0.8,0.5-1.2C720.1,870.5,723,868.3,726.5,867.1z
	"/>
<path class="st0" d="M580.3,18.2c22.9-1.2,44,10.3,59.3,26.9c10.8,11.7,18.1,22.5,32.5,30.5c-4.7,0-9.4,0.1-14-0.3
	c-30.6-2.7-40.9-25.8-58.6-46.6c-2.8-2.9-5.9-6.2-9.4-8.2c-5.6-3.2-12.5-1.5-17.5,2c-17.1,11.9-34.4,47.2-54.7,53.4
	c-0.1-0.7-0.1-1.5-0.1-2.2c-0.8-13.7,2.2-23.2,11.5-33.5C542.4,25.5,560.9,19.1,580.3,18.2z"/>
<path class="st0" d="M297.3,123.2c4.1-0.2,9.1,1.9,12.2,4.4c0.3,0.2,0.6,0.5,0.8,0.7c0.3,0.2,0.5,0.5,0.8,0.8
	c0.3,0.3,0.5,0.5,0.8,0.8c0.2,0.3,0.5,0.5,0.7,0.8c0.2,0.3,0.5,0.6,0.7,0.9c0.2,0.3,0.4,0.6,0.6,0.9c0.2,0.3,0.4,0.6,0.6,0.9
	c0.2,0.3,0.4,0.6,0.6,1c0.2,0.3,0.3,0.6,0.5,1c0.2,0.3,0.3,0.7,0.5,1c0.1,0.3,0.3,0.7,0.4,1c0.1,0.3,0.2,0.7,0.4,1
	c0.1,0.4,0.2,0.7,0.3,1.1c0.1,0.4,0.2,0.7,0.3,1.1c0.1,0.4,0.1,0.7,0.2,1.1c0.1,0.4,0.1,0.7,0.2,1.1c0.7,6.5-1.7,13.1-5.8,18.1
	c-0.2,0.3-0.5,0.6-0.7,0.9c-0.3,0.3-0.5,0.6-0.8,0.8c-0.3,0.3-0.5,0.5-0.8,0.8c-0.3,0.3-0.6,0.5-0.9,0.7c-0.3,0.2-0.6,0.5-0.9,0.7
	c-0.3,0.2-0.6,0.4-0.9,0.7c-0.3,0.2-0.6,0.4-1,0.6c-0.3,0.2-0.7,0.4-1,0.6c-0.3,0.2-0.7,0.3-1,0.5c-0.3,0.2-0.7,0.3-1,0.5
	c-0.3,0.1-0.7,0.3-1.1,0.4c-0.4,0.1-0.7,0.2-1.1,0.4c-0.4,0.1-0.7,0.2-1.1,0.3c-0.4,0.1-0.7,0.2-1.1,0.2c-0.4,0.1-0.7,0.1-1.1,0.2
	c-0.4,0.1-0.7,0.1-1.1,0.1c-19.5,1.8-28.4-17.9-41.1-28.2c-8.2-6.6-16.9-7.5-27-6.4c-15,3.2-27.2,12.3-38.4,22.3
	c0.7-1,1.3-1.9,2.1-2.8C220.3,118.7,258.2,127.2,297.3,123.2z"/>
<path class="st1" d="M291.1,132.1c2.9-0.3,5.7-0.3,8.4,0.9c3.3,1.5,5.7,4.2,6.9,7.6c1.2,3.6,0.9,7.9-0.9,11.3
	c-2.1,3.9-5.2,5.7-9.3,7c-2.3,0.1-4.5,0.1-6.7-0.6c-3.5-1.1-6.5-3.5-8-6.9c-1.5-3.3-1.6-7.4-0.3-10.8
	C283,136,286.7,133.9,291.1,132.1z"/>
<path class="st0" d="M869.4,874.3c0.2,0.1,0.4,0.2,0.6,0.3c5.9,3.4,26.1,30.5,29.8,37c1.6,2.8,3,5.6,4.2,8.5c1.2,2.9,2.3,5.9,3.1,9
	c5.3,19.5-0.4,38.2-10.2,55.3c-4.2-2.5-8.4-5.1-12.5-7.8c-0.6-0.4-1.1-0.8-1.7-1.1c-0.5-0.4-1.1-0.8-1.6-1.2
	c-0.5-0.4-1.1-0.8-1.6-1.2c-0.5-0.4-1.1-0.8-1.6-1.3c-0.5-0.4-1-0.9-1.5-1.3c-0.5-0.4-1-0.9-1.5-1.3c-0.5-0.5-1-0.9-1.5-1.4
	c-0.5-0.5-1-0.9-1.4-1.4c-0.5-0.5-0.9-1-1.4-1.4c-0.5-0.5-0.9-1-1.4-1.5c-0.5-0.5-0.9-1-1.3-1.5c-0.4-0.5-0.9-1-1.3-1.5
	c-0.4-0.5-0.8-1-1.3-1.6c-0.4-0.5-0.8-1.1-1.2-1.6c-0.4-0.5-0.8-1.1-1.2-1.6c-0.4-0.6-0.8-1.1-1.1-1.7c-0.4-0.6-0.7-1.1-1.1-1.7
	c-0.4-0.6-0.7-1.1-1.1-1.7c-0.3-0.6-0.7-1.2-1-1.7c-0.3-0.6-0.7-1.2-1-1.8c-0.3-0.6-0.6-1.2-0.9-1.8c-0.3-0.6-0.6-1.2-0.9-1.8
	c-0.3-0.6-0.6-1.2-0.8-1.8c-0.3-0.6-0.5-1.2-0.8-1.9c-0.3-0.6-0.5-1.2-0.7-1.9c-0.2-0.6-0.5-1.3-0.7-1.9c-0.2-0.6-0.4-1.3-0.6-1.9
	c-0.2-0.6-0.4-1.3-0.6-1.9c-0.2-0.6-0.4-1.3-0.6-1.9c-0.2-0.6-0.3-1.3-0.5-2s-0.3-1.3-0.5-2c-0.1-0.7-0.3-1.3-0.4-2
	c-0.4-2.6-0.7-5.2-0.9-7.9c-0.9-13.9,4.3-28.4,13.4-38.9c1.6,9.3,1.7,17.7,1.6,27.1c-0.1,21.4,9.4,37.1,24.1,52
	c-0.3-13.3,2.4-26.6-0.9-39.7C883,901.7,868.9,890.4,869.4,874.3z"/>
<path class="st0" d="M907.3,849.2c1.6-0.2,3.2-0.3,4.8-0.4c1.6-0.1,3.2-0.1,4.8,0c1.6,0.1,3.2,0.2,4.8,0.4c1.6,0.2,3.2,0.4,4.8,0.7
	c16.4,3.2,33.3,13.7,44.4,26.1c5.3,5.9,9.7,12.6,14.1,19.2c-10.5,7.3-22.4,12.5-35.2,13.9c-25.2,2.7-46-13.5-64.5-28.5
	c-3.4-3.1-6.7-6.2-10-9.4l-0.1-0.5l0,0.4c-0.6-0.7-0.5-0.3-0.5-1.1c2.4-1.6,4.9-0.7,7.5-0.1c12.1,2.9,16.1,7.7,26.2,13.5
	c3.2,1.8,6.6,3.3,10.2,4.2c12.2,2.9,26.7,0.7,39.2,0c-15.4-11.6-29.1-22.6-49.2-23.7c-10.2-0.5-20.1-0.4-30.3-1.4
	C887.3,855.6,896,850.7,907.3,849.2z"/>
<path class="st0" d="M79.7,115.2c0.9,0,1.7,0,2.6,0c25.4,0.8,50.4,24.2,66.9,41.9c-11.1-1-16.5-5.1-25.6-10.6
	c-17-10.4-34.7-12-54.1-8.8c11.6,8.6,20.4,19.1,35.2,22.2c10.2,1.5,19.4-1.3,29.4-1.5c4.5-0.1,8.7,0.7,13.1,1.5
	c-4.1,3.3-8.4,6.4-13.1,8.9c-14.8,7.7-31.7,7.2-47.3,2.2c-21.2-6.9-37.9-22.5-48-42.3C51.8,120.9,64.6,116.1,79.7,115.2z"/>
<path class="st0" d="M128.2,38.3c7.4,5.1,15,10.3,21.8,16.3c14.2,12.7,23.8,33.9,24.7,52.8c0.8,16.2-5.1,30.1-15.9,42.1
	c-1.2-10.8,1-21.4,1.7-32.1c1.1-18.6-7.3-29.6-19.1-42.8l-4.2-4.9c-0.5,12.3-1.5,24.7,1.8,36.7c0.7,2.5,1.5,4.9,2.5,7.3
	c1,2.4,2.1,4.7,3.4,6.9c3.6,6.1,8.5,11.5,9.8,18.7c0.5,2.8,0,6-0.3,8.8c-13.4-14.1-31.9-33.3-36.8-52.2
	C112.3,75.6,118,55.9,128.2,38.3z"/>
<path class="st0" d="M941.2,114.7c16.2-0.5,31.3,5.9,44.9,14.1c-9,13.1-18.4,25.2-31.9,34.1c-14.7,9.7-34.2,14.2-51.5,10.5
	c-9.2-2-19.3-6.8-24.6-14.9c11.8-1.8,22.4,1.8,34.1,1.8c20.4-1.8,28.7-11.8,43.7-23.9c-17.2-0.4-37.1-0.9-52.6,7.5
	c-10.7,5.7-13.4,9.2-26,12c1-2.3,2.1-4.2,3.7-6.1c8.5-9.8,29.8-26.6,41.9-31.4C928.9,116,934.8,115.2,941.2,114.7z"/>
<path class="st0" d="M895.8,38.9c0.4,0.5,0.9,0.9,1.2,1.5c9.4,12.2,14,33.6,11.8,48.7c-3.1,20.7-23.8,46.6-40.2,58.9
	c-0.3-12.8,10.8-21.9,14.9-34.6c4.6-14.4,4.5-30.8,4.1-45.7l-3.1,4.4c-5.2,7.2-12.3,13.3-16.5,21.2c-10.8,20.4,0.6,44.4-3.1,53.4
	l-0.9,0.3c-2.7-1.2-4.9-4.4-6.6-6.9c-8.5-12.3-10.5-27.3-7.7-41.8C855.3,69.5,872.8,54.6,895.8,38.9z"/>
<path class="st0" d="M156.3,874.8c0.2,0.1,0.4,0.2,0.6,0.4c2.2,1.9-0.4,8.3-1.3,10.7c-2.4,6.1-6.7,11.2-9.6,17
	c-8.4,16.8-9.4,34.8-9.3,53.2c14.3-13.2,25.6-30.4,24.4-50.5c-0.6-10.1-1.7-18.2,1.1-28.1c1.3,1.6,2.6,3.3,3.9,5
	c9.7,13.2,10.5,26.6,8.1,42.2c-0.1,0.5-0.2,1.1-0.4,1.6c-6.6,28.1-21.2,44.3-45.2,59.2c-7.6-13.8-13.6-28.5-12.6-44.5
	C117.5,913.7,136.8,891.9,156.3,874.8z"/>
<path class="st0" d="M108.8,849.2c14.2-1,27.4,3.2,38.2,12.5c-11.1,2.4-18.3,2.2-29.5,1.8c-21.8-0.8-34.7,11.4-50.4,24.5
	c18.3,0.4,37-0.5,53.6-9.2c11.8-6.2,15-10.8,29.3-12.6c-1.6,2.6-3.3,4.8-5.3,7.1c-13.1,15.1-32.9,30.9-52.9,34.9
	c-19.3,3.9-37.2-2.1-53.1-12.7c4.1-6,7.9-12.1,12.6-17.7C65.6,860.5,86.6,851.1,108.8,849.2z"/>
<path class="st0" d="M582.5,20.9c4.5,4.7,9.2,9.4,13.2,14.4c10.6,13.3,20.4,29.4,34.7,39.1c13.9,9.5,29.1,10.4,45.2,7.2
	c-3.3,1.6-12.5,3.9-14.1,6.9c0.3,0.7,0.3,1,1,1.5c5.5,3.8,21.2-2.5,27.8-3.1c10.3-1,21.1-0.6,31.4,0.2c33.3,2.7,62.8,12.7,88.9,34.3
	c-22.9-11.9-45.6-19.4-71.2-23.1c-45.9-6.6-92.2-3.3-138.3-3.4l-231.1-0.4c-50.1-0.9-101.3-1.1-147.5,21c1.2-1.2,2.5-2.2,3.9-3.2
	c1.5-1,3-2.1,4.5-3c1.5-1,3.1-1.9,4.6-2.9s3.2-1.8,4.8-2.7c1.6-0.9,3.2-1.7,4.8-2.5c1.6-0.8,3.3-1.6,4.9-2.3c1.7-0.8,3.3-1.5,5-2.2
	c1.7-0.7,3.4-1.3,5.1-2c1.7-0.6,3.4-1.2,5.2-1.8c1.7-0.6,3.5-1.1,5.2-1.6c1.8-0.5,3.5-1,5.3-1.4c1.8-0.4,3.5-0.8,5.3-1.2
	c1.8-0.4,3.6-0.7,5.4-1c1.8-0.3,3.6-0.6,5.4-0.8c1.8-0.2,3.6-0.4,5.4-0.6c1.8-0.2,3.6-0.3,5.5-0.4c1.8-0.1,3.6-0.2,5.5-0.2
	c5.2-0.1,10.6-0.3,15.7,0.3c5.1,0.7,10,3,15.2,3.8c7.1,1.1,20.5,1.4,26.3-3.2c0.9-0.7,0.7-0.3,0.8-1.5c-2-1.4-26.5-2.1-33.2-4.2
	l-0.2-0.6c0.5-0.1,1-0.1,1.5-0.2l-0.3,0.9c0.7,0.2,0.6-0.7,1.2-0.9c0.7-0.3,3.1,0,3.9,0.1c11.4,0.6,22.3,3.3,33.9,2.3
	c0.9-0.1,1.8-0.2,2.7-0.3c0.9-0.1,1.8-0.3,2.7-0.5c0.9-0.2,1.8-0.4,2.6-0.6c0.9-0.2,1.7-0.5,2.6-0.8c0.9-0.3,1.7-0.6,2.5-1
	c0.8-0.3,1.7-0.7,2.5-1.1c0.8-0.4,1.6-0.8,2.4-1.3c0.8-0.4,1.5-0.9,2.3-1.4c17-11.2,33.2-38,46.6-54.1c7.3,5.9,13.6,12.3,19.6,19.5
	c10.8,13.1,21.6,31.2,36.7,39.8c7.1,4,18,5.1,25.9,2.8c17.7-5.2,32.7-30.8,44.4-44.5C571.6,33.2,578.7,27.6,582.5,20.9z"/>
<path class="st0" d="M893,199c5,4.8,9.7,12.1,13.6,18c19.4,29.3,25.6,58.9,31.3,92.8c0.8,4.5,3.5,14.1,2.6,18.3
	c-0.8,0.3-1.6,0.6-2.4,0.9c-1.3,0.5-1.8,0.7-2.3,2.1c-5.4,15.1,0.1,36.3,6.4,50.3c12.3,27,35.4,42.1,62.3,52.2
	c-14.2,31.2-50.9,39.5-63.8,67c-13.8,29.7,30.3,50.6,47.2,67.3c6.7,6.6,11.6,14,14.9,22.8c-16,6.4-31.1,14-43.1,26.7
	c-23.2,24.6-25.2,54.2-24.3,86.2c0.8,7.1,1.6,14.3,1.3,21.5c-0.3,7.4-1.8,14.7-3.5,21.9c-6.1,25.3-17.9,47.8-37.2,65.5
	c7.9-16.3,17.2-32.1,23.4-49.2c1.2-3.3,2.3-6.7,3.3-10.1c1-3.4,1.8-6.8,2.5-10.3c0.7-3.5,1.3-7,1.8-10.5c0.5-3.5,0.8-7,1-10.6
	c1.4-22.9,0.2-46.7,0.2-69.6l-0.4-142.9l0.3-122c0.1-30.4,1.6-61-2.7-91.2c-3.7-26.6-11.3-53.8-22.5-78.2c-2.9-6.4-7-12.1-9.9-18.4
	L893,199z"/>
<path class="st0" d="M129.3,201.5c-0.2,1.2-12.6,23.4-14.5,28.6c-2.2,6.1-4.3,12.2-6.1,18.4c-1.8,6.2-3.5,12.4-4.9,18.7
	c-1.5,6.3-2.7,12.6-3.8,19c-1.1,6.4-1.9,12.8-2.6,19.2c-2.2,23.6-1.3,47.6-1.4,71.4l0.5,136.6l-0.6,127.1c0,27.8-0.7,55.1,2.5,82.9
	c2.9,25.1,7.4,50.9,16.6,74.6c2.7,7,6.2,13.6,9.3,20.4c-18.6-24.2-29.8-53-35.3-82.8c-2-11.1-3.2-22.4-4.8-33.6
	c-0.4-2.9-2.1-7.7-1.5-10.5c0.7,0,1.3-0.1,2-0.3c1.4-0.4,2.4-1.1,3.1-2.4c4.1-7.7-1.9-32.2-4.8-40.3c-7.3-20.9-20.5-37.2-40.1-47.7
	c-7.1-3.8-14.6-6.7-21.8-10.2c2.8-6.7,6-13.2,10.8-18.8C47.4,554,81,541.1,85.2,516.1c4.5-26.1-32.4-44.3-48.2-59
	c-7.1-6.6-12.4-15.1-17.9-23c28.8-12.3,50.5-24.9,63.7-54.8c5.4-12.3,7.9-25.2,7.7-38.6c0-2.4,0.1-5.6-1-7.8c-0.7-1.4-1.5-2.1-3-2.6
	c-1.7-0.6-2.4-0.8-3.3-2.4c-0.2-8,1.7-16.3,3.1-24.2C92.5,267.5,104.2,229.3,129.3,201.5z"/>
<path class="st0" d="M221,908c7.9,4,15.8,7.7,24.2,10.6c18.2,6.2,37.7,8.9,56.8,10.2c22.7,1.6,45.6,0.7,68.4,0.8l142.5,0.2
	l107.6-0.4c38.7,0.1,78,1.1,116.5-3.7c3-0.4,6-0.8,9.1-1.3c3-0.5,6-1.1,9-1.7c3-0.6,6-1.3,8.9-2.1c3-0.8,5.9-1.6,8.8-2.5
	c2.9-0.9,5.8-1.8,8.7-2.8c2.9-1,5.7-2.1,8.6-3.2c2.8-1.1,5.6-2.3,8.4-3.6c2.8-1.2,5.5-2.6,8.3-3.9c-4.3,4.1-9.6,7.3-14.7,10.3
	c-26.7,15.8-61.2,24.2-92.4,22.2c-10.8-0.7-38.1-7.1-46.8-3.4c-1.3,0.6-1.4,0.8-2,2l0.5,1.2c2,1.8,4.6,2.6,7.1,3.6
	c-8.6,1.7-16.7,3.5-24.5,7.5c-5.3,2.8-10,6.3-14.3,10.6c-10,10-17.2,22.4-26.5,33c-2.3,2.7-10.2,9.1-11.1,11.8
	c0.6,1,0.8,1.3,2.1,1.4c11.1,1,28.9-28.5,36.2-36.6c9.5-10.6,20.7-18.2,35.3-19.2c7.4-0.5,14.9,0,22.3-0.4c-3.7,1.5-7.4,2.2-11,4.1
	c-13.8,7.2-22.5,22.5-33.8,32.9c-15.7,14.3-33.6,21.2-54.9,20.1c-18.9-0.9-37.4-8.8-50.1-23c-9.5-10.6-11.6-20.9-10.8-34.8
	c22.1,8.5,38.1,42.9,57.2,55.1c1.8,1.1,4.2,1.7,6.2,1c0.7-0.2,0.7-0.5,1-1.2c-0.1-0.5-0.1-0.7-0.4-1.3c-1.7-2.9-11.6-12.3-14.7-15.8
	c-13.6-15.7-24.9-36.1-44.9-44.3c-2.3-1-4.9-2.2-7.4-2.4c-22-2.3-42,28.7-54.3,43.7c-5.8,7.1-12,14-19.1,19.9
	c-11.3-12.6-20.7-26.5-32.2-38.9c-10-10.8-22.2-19.4-37.2-21.6c-4.2-0.6-8.6-0.4-12.8-0.6c2-1.8,8.5-1.2,11.3-2
	c1.2-0.3,1.3-0.3,2-1.4l-0.4-1c-2.3-1.8-5.5-2.1-8.3-2.3c-6.5-0.5-20.8-1-26.9,0.5c-1.1,0.3-1.8,0.9-2.6,1.6c-2,1-3.9,1.6-6.1,1.8
	c-2,0.3-4,0.6-6.1,0.8c-7.9,0.8-15.8,0.2-23.6-0.8C270.2,935.5,242.7,925.9,221,908z"/>
<path class="st2" d="M327.6,938.8c-0.8-0.3-1.3-0.5-1.8-1.2c-0.5-0.6-0.3-0.4-0.1-1.4c0.5-0.5,0.6-0.6,1.3-1
	c1.3-0.7,3.7-0.8,5.1-0.2c1.3,0.5,1.2,0.8,1.7,2C331.7,938.1,329.8,938.7,327.6,938.8z"/>
<path class="st0" d="M302.1,103.7c7.5-0.6,15.2-0.1,22.7-0.1l34.7,0.1h117.7l141.3-0.1c35.4-0.1,71.2-1.4,106.5,1.6
	c18.8,1.6,38.2,5.8,55.9,12.5c-14.5-2.1-28.6-3.5-43.3-2c-10.7,1.1-21.8,3.2-28.9,12c-5.1,6.4-7.8,15.3-6.8,23.5
	c0.1,0.5,0.1,0.9,0.2,1.4c0.1,0.5,0.2,0.9,0.3,1.4c0.1,0.5,0.2,0.9,0.3,1.4c0.1,0.5,0.3,0.9,0.4,1.3c0.1,0.4,0.3,0.9,0.5,1.3
	c0.2,0.4,0.3,0.9,0.5,1.3c0.2,0.4,0.4,0.9,0.6,1.3c0.2,0.4,0.4,0.8,0.7,1.2c0.2,0.4,0.5,0.8,0.7,1.2s0.5,0.8,0.8,1.2
	c0.3,0.4,0.5,0.8,0.8,1.1c0.3,0.4,0.6,0.7,0.9,1.1c0.3,0.4,0.6,0.7,0.9,1c0.3,0.3,0.7,0.7,1,1c0.3,0.3,0.7,0.6,1,0.9
	c0.4,0.3,0.7,0.6,1.1,0.9c6.6,5.1,15,6.7,23.2,5.5c9.6-1.5,16.5-6.4,22-14.1c1.4,5.6,3.5,11.6,7.6,15.8c2.7,2.8,6.5,4.9,10.4,4.9
	c8.6,0,11.5-9.4,17-14.3c4.3-3.9,9.9-5.5,15.7-5c12.9,1.1,21,10.9,28.9,20c-1.4-4.6-2.6-9.3-1.7-14.1c0.7-4,2.8-7.5,6.2-9.8
	c4.4-3,10.3-3.8,15.5-2.7c3.4,0.7,6.6,2.5,8.6,5.6c2.5,4,2.5,9,1.4,13.4c-1.2,4.7-3.7,8.6-8,11c-6.1,3.3-11.3,2.5-17.6,0.7
	c5.2,4.5,10.8,9.2,14.7,15.1c4.1,6.3,5.7,13.9,4.1,21.3c-1.3,5.5-5.2,11.6-10.3,14.3c-2.5,1.3-5.4,2.3-7.7,3.9
	c-1.6,1.1-2.5,2.6-2.7,4.6c-0.4,3.7,1.4,7.9,3.8,10.7c5.1,6.1,12.4,7.8,20,8.3c-3.1,2.2-6,4.5-8.4,7.4c-5.7,6.8-8.2,15.3-7.4,24.1
	c0,0.5,0.1,1,0.2,1.5c0.1,0.5,0.2,1,0.2,1.5c0.1,0.5,0.2,1,0.3,1.5c0.1,0.5,0.2,1,0.4,1.5c0.1,0.5,0.3,1,0.5,1.4
	c0.2,0.5,0.3,0.9,0.5,1.4c0.2,0.5,0.4,0.9,0.6,1.4c0.2,0.5,0.4,0.9,0.7,1.3c0.2,0.4,0.5,0.9,0.7,1.3c0.3,0.4,0.5,0.9,0.8,1.3
	c0.3,0.4,0.6,0.8,0.9,1.2c0.3,0.4,0.6,0.8,0.9,1.2c0.3,0.4,0.6,0.8,1,1.1c0.3,0.4,0.7,0.7,1,1.1c0.4,0.4,0.7,0.7,1.1,1
	c0.4,0.3,0.8,0.7,1.1,1c0.4,0.3,0.8,0.7,1.2,1c0.4,0.3,0.8,0.6,1.3,0.9c0.4,0.3,0.9,0.6,1.3,0.8c0.4,0.3,0.9,0.5,1.4,0.8
	c0.5,0.2,0.9,0.5,1.4,0.7c0.5,0.2,0.9,0.4,1.4,0.6c0.5,0.2,1,0.4,1.5,0.6c0.5,0.2,1,0.3,1.5,0.5c0.5,0.1,1,0.3,1.5,0.4
	c0.5,0.1,1,0.2,1.5,0.3c0.5,0.1,1,0.2,1.5,0.3c0.5,0.1,1,0.1,1.6,0.2c0.5,0,1,0.1,1.6,0.1c0.5,0,1,0,1.6,0c0.5,0,1,0,1.6-0.1
	c0.5,0,1-0.1,1.6-0.1c6.9-0.7,13.5-3.3,17.9-8.9c2.5-3.3,3.6-7.2,4.7-11.2c6-21.1,2.3-42.1-0.6-63.3c2.9,7.9,5.8,15.7,7.9,23.8
	c3.9,14.7,7,29.9,7.9,45.1c0.8,12.1,0.6,24.3,0.6,36.4l0.2,54.6l0,154.8l0.1,111.5l0.1,34.7c0,6.7,0.4,13.7-0.3,20.4
	c-2,21-7.4,46.8-18,65.1c0.8-17.2,7.7-32,7-50.9c-0.4-10.9-3.1-21.8-11.4-29.4c-0.4-0.3-0.7-0.6-1.1-0.9c-0.4-0.3-0.7-0.6-1.1-0.9
	c-0.4-0.3-0.8-0.6-1.2-0.8c-0.4-0.3-0.8-0.5-1.2-0.8c-0.4-0.2-0.8-0.5-1.2-0.7c-0.4-0.2-0.8-0.4-1.3-0.6c-0.4-0.2-0.9-0.4-1.3-0.6
	c-0.4-0.2-0.9-0.3-1.3-0.5c-0.5-0.2-0.9-0.3-1.4-0.4c-0.5-0.1-0.9-0.3-1.4-0.4c-0.5-0.1-0.9-0.2-1.4-0.3c-0.5-0.1-0.9-0.2-1.4-0.2
	c-0.5-0.1-0.9-0.1-1.4-0.2c-0.5,0-1-0.1-1.4-0.1s-1,0-1.4,0c-0.5,0-1,0-1.4,0.1c-8.4,0.5-16.6,4.5-22,10.9
	c-5.3,6.2-8.3,14.7-7.6,22.8c1,11.1,8.5,19.5,16.6,26.4c-4.3-0.6-8.4-0.3-12.5,1.6c-0.3,0.1-0.6,0.3-0.9,0.4
	c-0.3,0.1-0.6,0.3-0.8,0.5c-0.3,0.2-0.5,0.3-0.8,0.5c-0.3,0.2-0.5,0.4-0.8,0.5c-0.3,0.2-0.5,0.4-0.8,0.6c-0.2,0.2-0.5,0.4-0.7,0.6
	c-0.2,0.2-0.5,0.4-0.7,0.7c-0.2,0.2-0.4,0.5-0.7,0.7c-0.2,0.2-0.4,0.5-0.6,0.7c-0.2,0.2-0.4,0.5-0.6,0.8s-0.4,0.5-0.5,0.8
	c-0.2,0.3-0.3,0.5-0.5,0.8c-0.2,0.3-0.3,0.6-0.5,0.8c-0.1,0.3-0.3,0.6-0.4,0.9c-0.1,0.3-0.3,0.6-0.4,0.9c-0.1,0.3-0.2,0.6-0.3,0.9
	c-1.2,3.5-1.2,7.5,0.6,10.8c2.6,4.6,7.1,5.9,11.8,7.1c3.1,3.2,5.8,7,7.3,11.2c3.4,9.7-2.5,14.4-7.2,21.8c-2.3,3.5-4,7.4-5.8,11.1
	c-6.7,4.2-10.4,8.7-14.7,15.1c-9.8,2.8-17.5,12.5-23.9,13.2c-7,0.7-13.6-4.3-18.8-8.4c-1.7-4.3-3-8.5-7.3-11c-3-1.7-6.5-1.8-9.7-0.9
	c-6.3,1.8-10.7,6.7-13.6,12.3c-10.6-3.6-22.8-6.3-34-5c-7.3,0.9-13.8,4-18.3,9.9c-0.3,0.4-0.6,0.8-0.8,1.2c-0.3,0.4-0.5,0.8-0.8,1.2
	c-0.2,0.4-0.5,0.8-0.7,1.2c-0.2,0.4-0.4,0.8-0.6,1.3c-0.2,0.4-0.4,0.9-0.6,1.3c-0.2,0.4-0.4,0.9-0.5,1.3c-0.2,0.4-0.3,0.9-0.5,1.3
	c-0.1,0.5-0.3,0.9-0.4,1.4c-0.1,0.5-0.2,0.9-0.3,1.4c-0.1,0.5-0.2,0.9-0.3,1.4c-0.1,0.5-0.1,0.9-0.2,1.4c0,0.5-0.1,0.9-0.1,1.4
	c0,0.5,0,0.9,0,1.4c0,0.5,0,0.9,0,1.4c0,0.5,0,0.9,0.1,1.4c0,0.5,0.1,0.9,0.2,1.4c0.1,0.5,0.2,1,0.3,1.4c0.1,0.5,0.2,0.9,0.3,1.4
	c0.1,0.5,0.3,0.9,0.4,1.4c0.1,0.5,0.3,0.9,0.5,1.4c0.2,0.5,0.3,0.9,0.5,1.3c0.2,0.4,0.4,0.9,0.6,1.3c0.2,0.4,0.4,0.9,0.7,1.3
	c0.2,0.4,0.5,0.8,0.7,1.3c0.3,0.4,0.5,0.8,0.8,1.2c0.3,0.4,0.6,0.8,0.8,1.2c0.3,0.4,0.6,0.8,0.9,1.1c0.3,0.4,0.6,0.7,1,1.1
	c0.3,0.4,0.7,0.7,1,1c0.3,0.3,0.7,0.7,1.1,1c0.4,0.3,0.7,0.6,1.1,0.9c0.4,0.3,0.8,0.6,1.2,0.9c16.8,11.9,48.7,9,68,5.8
	c-7.6,3.1-15.6,5.3-23.6,7.3c-27.2,6.8-52.5,7.7-80.3,8c-18.9,0.2-37.7,0.3-56.6,0.2l-198.7,0l-67.1-0.1c-17.2,0-34.1,0.2-51.2-1.2
	c-21.7-1.9-63.2-7.3-81.6-18.9c5,0.7,10,3,14.9,4.2c12.1,2.8,39.6,6.3,51.3,5c9.9-1.1,21.5-6.9,27.7-14.8c0.3-0.4,0.6-0.8,0.9-1.2
	c0.3-0.4,0.6-0.8,0.8-1.3c0.3-0.4,0.5-0.9,0.8-1.3c0.2-0.4,0.5-0.9,0.7-1.3c0.2-0.5,0.4-0.9,0.6-1.4c0.2-0.5,0.4-0.9,0.6-1.4
	c0.2-0.5,0.3-0.9,0.5-1.4c0.1-0.5,0.3-1,0.4-1.4c0.1-0.5,0.2-1,0.3-1.5c0.1-0.5,0.2-1,0.3-1.5c0.1-0.5,0.1-1,0.2-1.5
	c0.1-0.5,0.1-1,0.1-1.5c0-0.5,0-1,0-1.5c0-0.5,0-1,0-1.5c0-0.5-0.1-1-0.1-1.5c0-0.5-0.1-1-0.2-1.5c-1.1-7.9-5.5-14.7-11.9-19.4
	c-6.2-4.6-14.1-7.1-21.8-5.8c-9.8,1.6-17.2,8.3-22.6,16.2c-0.2-2.1-0.2-4.3-0.8-6.3c-1.4-5.4-5.5-10.6-10.4-13.3
	c-2.6-1.4-5.5-2.1-8.5-1.7c-11.5,1.8-11,16-21.9,18.8c-12.7,3.3-25.1-6.7-35.5-12.6c-0.1,5-0.4,10.1-4.2,13.9
	c-3.1,3.1-7.9,4.3-12.2,4.2c-4.3-0.1-8.6-1.6-11.5-4.8c-3-3.3-4.1-7.7-3.9-12.1c0.2-4.3,1.8-8.4,5.1-11.2c4.2-3.5,8.7-3.6,13.8-3.2
	c-4.2-11.1-15.6-22-13.9-34.7c1.1-8,9.7-10.2,15.3-14.4c2.4-1.8,4.5-4.3,4.9-7.4c0.6-4.4-2.3-10-5.1-13.4c-3.6-4.4-8.2-6.1-13.7-6.5
	c1.5-2,3.1-4,4.5-6c5.5-8.2,7.9-19.2,5.9-29c-0.1-0.5-0.2-1-0.3-1.5c-0.1-0.5-0.3-1-0.4-1.5c-0.1-0.5-0.3-1-0.5-1.4
	c-0.2-0.5-0.4-0.9-0.6-1.4c-0.2-0.5-0.4-0.9-0.6-1.4c-0.2-0.5-0.5-0.9-0.7-1.4c-0.2-0.4-0.5-0.9-0.8-1.3c-0.3-0.4-0.5-0.9-0.8-1.3
	c-0.3-0.4-0.6-0.8-0.9-1.2c-0.3-0.4-0.6-0.8-0.9-1.2s-0.7-0.8-1-1.1c-0.3-0.4-0.7-0.7-1.1-1.1c-0.4-0.4-0.7-0.7-1.1-1
	c-0.4-0.3-0.8-0.7-1.2-1c-0.4-0.3-0.8-0.6-1.2-0.9c-0.4-0.3-0.8-0.6-1.3-0.9c-6.6-4.3-14.5-5.5-22.2-3.9
	c-8.2,1.7-14.8,6.8-19.2,13.7c-12,18.7-3.6,50.5,1,70.9c-0.6-1.4-1.2-2.8-1.7-4.2c-8.8-22.7-11.9-48.3-13.8-72.4
	c-2-25.6-1.3-51.4-1.3-77l-0.1-110.2l0-125.3c-0.1-29.4-1.1-59.3,1.3-88.7c1.4-17.6,7-48.9,13.9-64.6c-0.2,22.5-5.6,36.8,0,60.2
	c1.2,4.8,2.6,9.9,5.8,13.8c4.1,4.9,10.5,7.3,16.8,7.7c8.7,0.7,17.4-2.6,23.9-8.4c5.9-5.2,10.2-12.8,10.5-20.8
	c0.5-13.1-8.8-22.5-16.9-31.5c2.2,0.2,4.4,0.4,6.5,0.4c5.1,0,9.7-1.1,13.4-4.9c2.6-2.7,4.7-6.2,4.5-10.1
	c-0.4-7.7-8.2-12.3-13.2-17.1c-4.1-4-7-9.1-7-14.9c0.1-13.3,12.7-21.1,21.1-29.4c-5.3,2.3-11,3.2-16.6,1c-0.5-0.2-1-0.4-1.5-0.7
	c-0.5-0.2-1-0.5-1.4-0.8c-0.5-0.3-0.9-0.6-1.3-0.9c-0.4-0.3-0.8-0.7-1.2-1.1c-0.4-0.4-0.8-0.8-1.1-1.2c-0.4-0.4-0.7-0.8-1-1.3
	c-0.3-0.4-0.6-0.9-0.9-1.4c-0.3-0.5-0.5-1-0.7-1.5c-1.8-4.3-1.7-9.5,0.2-13.7c1.8-4,5.3-6.8,9.4-8.2c4.4-1.5,9.7-1.7,13.9,0.5
	c3.8,2,6.8,5.9,8,10.1c1.9,6.6-0.6,12.6-3.8,18.3l1.4-1.2c6.9-5.6,10.4-14.3,17.9-19.5c3.1-2.1,6.7-3.2,10.4-3.6
	c17.9-2,18.4,18.6,32.3,20.4c3.5,0.5,6.8-0.9,9.5-3c6-4.8,7-11.1,7.8-18.3c3.4,3.2,6.8,6,10.7,8.4c7.7,4.6,16.2,7.1,25.1,4.9
	c8.2-2.1,14.7-7.6,18.9-14.8c4.1-7.1,5.9-16,3.6-24c-2.3-8-8.2-13.6-15.3-17.5c-5.5-3.1-11.7-5.4-18-6.2
	c-11.9-1.5-40.5,2.9-52.8,5.7c-5.7,1.3-11.3,3.2-16.9,4.8C243.5,110.9,276.3,105.4,302.1,103.7z"/>
<path class="st1" d="M512,159.9c9.5,6.6,17,18.9,19,30.2c1.3,7.3,0.2,14.2-4.1,20.4c6.2,0.5,17.7,0.3,22.5,4.1
	c1.9,1.5,3.9,4.2,4.1,6.6c0.1,1.9-0.6,3.4-1.9,4.7c-4.3,4.3-15.5,7.1-21.5,6.8c-1.6-0.1-2.5-0.5-3.6-1.6l0.1-1
	c3.7-5.5,13.4-4.2,18.9-7.7l-0.4-0.7c-5.4-2.2-22.7-3.2-29.4-4.1c-8.2-0.8-29.6,1.9-37.3,4.6c5.5,2.4,12.4,2.3,17.4,5.9
	c1.1,0.8,1.5,1.3,1.8,2.6c-0.9,1.2-1.8,1.6-3.2,1.9c-5.5,1-14.4-1.3-19-4.5c-2-1.4-4-3.6-4.3-6.1c-0.3-2,0.4-3.9,1.7-5.4
	c4.8-5.7,16.3-5.4,23.2-5.7c-2.2-5.8-3.7-11.7-3.2-17.9C493.8,179.9,502.3,168.1,512,159.9z"/>
<path class="st0" d="M511.8,171.3c5.2,5.2,9.1,11.1,10.6,18.4c1.3,6.5,0.6,12.6-3.1,18.2c-2.5,1.2-4.8,1.9-7.5,2.5
	c-2-0.4-4-0.7-5.7-1.9c-3.3-2.4-4.8-5.8-5.3-9.7C499.6,188.2,505.4,179.1,511.8,171.3z"/>
<path class="st1" d="M468.8,231.2c11.4-1.3,29.8,10.6,42.7,10.7c12.4,0,25.8-7.7,38.2-10c8.1-1.5,15.8,0.8,22.4,5.4
	c7.9,5.4,14.6,13.7,16.4,23.3c11-1.8,21.8-0.6,32.1,4c11.4,5.2,22,15,26.6,26.8c1.9-1.7,3.9-3.3,6.1-4.5c8.1-4.6,17.9-6.2,27-3.8
	c10.4,2.8,16.6,9,21.8,18.1c2.4-6.8,5.5-12.8,10.9-17.7c10.3-9.3,23.7-10,36.8-9.2c0.5,9.5,0.8,18.6-3.3,27.5
	c-4.8,10.4-13.5,17.3-24.1,21.2c2,0.8,3.9,1.7,5.7,2.9c7.4,5.2,13,13,14.5,22c1.8,10.7-2.5,20.4-8.6,29c1.3,0.8,2.6,1.6,3.8,2.4
	c1.3,0.8,2.5,1.7,3.7,2.7c1.2,0.9,2.4,1.9,3.5,2.9c1.1,1,2.2,2.1,3.3,3.1c1.1,1.1,2.1,2.2,3.1,3.4c1,1.2,1.9,2.3,2.8,3.5
	c0.9,1.2,1.8,2.5,2.6,3.7c0.8,1.3,1.6,2.6,2.3,3.9c5.6,10.3,5.9,21.5,2.6,32.7c6.7,1.3,12.6,3.5,18,7.9c9.2,7.4,13.2,17.8,14.4,29.2
	c1.5-1.1,2.9-2.3,4.5-3.2c2-1.2,3.7-2,6.1-1.4c0.9,0.7,1.4,1,1.6,2.1c0.5,2.5-0.2,6,0.1,8.7c0.7,6.5,2.7,12.9,4.3,19.2
	c5.4-2.5,10.4-3.7,16.3-3.8c9.4-0.2,21.4,2.2,28.3,9.1c3.8,3.8,4.1,7.1,4.1,12.2c-3.2,4.8-7.6,7.9-12.8,10.2
	c-11.7,5.1-24.1,4.6-35.8,0.1c-1.9,7-4.5,14.5-4.4,21.8c0,1.8,0.7,7-0.4,8.2c-0.8,0.9-1.7,1.2-2.9,1.1c-3.3-0.1-6.5-3.7-8.4-6
	c0.7-8.2,4-16.5,8-23.6c1.7-3.1,3.9-6.3,5-9.7c0.8-2.7,1-5.4,0.5-8.1c-0.9-4.7-10.6-25.3-13.3-30.5c-3,5.2-4.2,10.8-5.6,16.6
	c-1.2,4.9-2.9,10.2-3.2,15.2c-0.4,5.9,3.2,20.2,4.9,26.2c0.8,2.9,2.1,5.8,2.7,8.7c1.8,8.2-2.1,18.6-6.5,25.5
	c-6,9.3-14.7,15-25.5,17.3c0.2,0.8,0.3,1.6,0.5,2.4c0.1,0.8,0.3,1.6,0.4,2.4c0.1,0.8,0.2,1.6,0.3,2.4c0.1,0.8,0.1,1.6,0.1,2.4
	c0,0.8,0,1.6,0,2.4c0,0.8,0,1.6-0.1,2.4c0,0.8-0.1,1.6-0.2,2.4c-0.1,0.8-0.2,1.6-0.3,2.4c-0.1,0.8-0.3,1.6-0.4,2.4
	c-0.2,0.8-0.3,1.6-0.5,2.4c-0.2,0.8-0.4,1.6-0.6,2.4c-0.2,0.8-0.5,1.6-0.7,2.3c-0.3,0.8-0.5,1.5-0.9,2.3c-0.3,0.8-0.6,1.5-1,2.3
	c-0.3,0.7-0.7,1.5-1.1,2.2c-0.4,0.7-0.8,1.4-1.2,2.2c-6.1,10.7-14.7,17.3-26.5,20.6c4,3.2,7.1,6.6,9.3,11.2
	c3.6,7.8,3.3,16.9,0.2,24.8c-3.4,8.8-9.3,14-17.8,17.8c6.4,2.7,11.9,6.1,16.7,11.3c10.3,11.4,12.1,22.6,11.4,37.4
	c-6.9,0.2-13.7,0.5-20.5-1.6c-13-4-21.3-12.6-27.6-24.2c-3.3,6.6-7.7,12.3-14.3,15.8c-6.9,3.7-15.7,4.9-23.2,2.5
	c-8.2-2.6-13.5-8.5-17.4-15.8c-0.6,2.6-1.2,5.1-2,7.7c-3.4,10.4-10.8,18.4-20.6,23.3c-12.5,6.3-24.7,6.3-37.8,1.9
	c-0.8,10.9-5,21.8-13.3,29.1c-5.5,4.8-12.3,7.2-19.6,6.7c-11.8-0.8-17.3-7-24.5-15.3c3,8.8,7.8,13.7,15.6,18.4
	c4,2.1,8.5,2.3,12.3,4.2c1.2,0.6,1.4,1.2,1.8,2.4c-0.4,1.3-0.8,2.3-1.7,3.3c-1.7,1.9-4.3,2.4-6.8,2.5c-7.7,0.2-14.2-3.2-19.5-8.5
	c-0.9,1.3-1.9,2.8-2.3,4.3c-1.2,5,3.1,14.6,3.3,20.5c0.6,14.8-9.9,26.1-19.3,36.3c-3.6-3.8-7.3-7.6-10.5-11.8
	c-7-9.1-11-19.4-8.6-30.9c0.8-3.8,2.5-7.6,2.9-11.5c0.3-2.9-1-4.4-2.7-6.6c-2.1,1.9-4.2,4-6.5,5.5c-3.7,2.4-8.8,4.3-13.2,3.3
	c-1.6-0.4-3.3-1.5-4.1-3c-3-5.8,12.7-10.2,16.3-13.4c4.5-4,6.8-9.1,9-14.6c-5.3,6.8-11,11.6-20,12.6c-7.6,0.9-15.1-1.5-21.1-6.2
	c-9.3-7.2-13-16.8-14.4-28.1c-3.6,1.9-7.3,3.6-11.2,4.7c-9.7,2.7-19.1,1.2-27.8-3.8c-11.2-6.4-17.8-16.5-21.2-28.7
	c-2.6,3.1-5.3,5.8-8.7,7.9c-6.7,4.2-14.8,5.3-22.4,3.6c-11.9-2.7-19.3-10.8-25.5-20.7c-0.4,1.5-0.9,3-1.4,4.5
	c-3.3,9.3-11.8,17.9-20.7,21.9c-5.5,2.5-14.5,4.3-20.2,1.9c-0.3-0.1-0.6-0.3-0.9-0.4c-0.3-0.2-0.6-0.3-0.8-0.5
	c-0.3-0.2-0.5-0.4-0.8-0.6c-0.3-0.2-0.5-0.4-0.7-0.7c-0.2-0.2-0.4-0.5-0.7-0.8c-0.2-0.3-0.4-0.5-0.6-0.8c-0.2-0.3-0.3-0.6-0.5-0.9
	c-0.1-0.3-0.3-0.6-0.4-0.9c-2.3-6.1-0.4-14.6,2.2-20.4c5-11.2,14-17.8,25.2-22.1c-4.8-2.2-9-5.2-12.5-9.2
	c-5.9-6.9-9.2-16.4-8.4-25.5c0.8-8.9,5.1-15.9,11.8-21.6c-1.8-0.6-3.6-1.2-5.3-1.9c-11.2-4.4-20.5-14.7-25.1-25.6
	c-4.5-10.6-3.7-20.4,0.5-30.9c-3.4-0.7-6.9-1.4-10.1-2.7c-9.5-4-13.8-11.5-20.4-18.8c-4.9-5.4-10-9.4-12.7-16.4
	c-2.8-7.3-1.3-13.3,1.8-20.2c-1.3-1.2-2.7-2.3-4.1-3.3c-9.6,4.2-19.7,6.6-30.1,4c-10-2.5-16.2-8.7-21.4-17.3c2.1-4.1,4.5-7.7,8-10.8
	c8.4-7.2,21.3-9.9,31.8-6.5c3.4,1.1,7.4,3.5,11,3.6c2.3,0.1,4-2,5.6-3.4c-1.8-2.7-3.4-5.3-4.2-8.5c-1.6-6.3,0.1-12.3,3.5-17.7
	c3-4.8,7.3-7.8,11.2-11.7c10.5-10.4,15.3-17.3,30.6-20.7c-0.7-1.7-1.4-3.4-1.9-5.1c-2.8-9.7-1.3-21.6,3.4-30.4
	c6-11.1,16.2-18.5,28.1-22.1c-1.7-1.6-3.3-3.4-4.7-5.3c-5.4-7.3-6.9-16.7-5.5-25.5c1.6-10.3,7.2-19.3,15.5-25.4c-4-2-7.8-4.1-11.2-7
	c-12.5-10.5-13.7-26.9-15-42c8.7,1.2,17.2,0.9,25.7,4.1c10.8,4,18.3,12.4,23,22.7c1.6-2.5,3.4-4.8,5.5-6.9
	c7.1-6.8,16.5-10.3,26.4-10c10.3,0.3,18.1,4.3,25,11.7c3.4-9.6,8.5-17.6,16.6-23.9c12.1-9.6,26.2-11.9,41.2-10.2
	c1.4-5.6,3.8-10.4,7.3-15C449.4,237.5,458.5,232.5,468.8,231.2z"/>
<path class="st0" d="M318.2,402.9c1.1,0.8,1.2,0.8,1.5,2.1c-1.5,2.3-4.3,3.2-6,5.5c-0.1,0.1-0.2,0.2-0.2,0.3c-0.1,0-0.2-0.1-0.3-0.1
	c-0.9-0.8-0.9-1.1-0.9-2.2C313.6,406,315.8,404.4,318.2,402.9z"/>
<path class="st0" d="M640,351.5c0.9,0.8,1.8,1.5,2.7,2.2c7.5,5,17.7,4,26.1,2.6c-2.9,10.7-2.8,16.6,1.3,27.1l0.1,0.4l-0.5,0.3
	c-3.8-2.1-7-5.4-10.5-8l-6,1.7c-2-1.8-3.9-3.7-5.7-5.8c0.1-2.1,0.4-4.2,0.6-6.3C644.8,361.1,641.7,357,640,351.5z"/>
<path class="st0" d="M363.1,644.5c3.4,0,6.4,0.6,9.4,2.4c4.2,2.5,6.3,6.2,7.6,10.7c-0.3,1.4-0.6,2.8-1.1,4.1
	c-1.3,3.4-3.4,5.4-6.6,6.9c-2.6,0.3-5.5,0.5-8-0.3c-0.4-0.1-0.9-0.3-1.3-0.5c-0.4-0.2-0.8-0.4-1.2-0.6c-0.4-0.2-0.8-0.5-1.1-0.7
	c-0.4-0.3-0.7-0.6-1.1-0.9c-0.3-0.3-0.7-0.6-1-1c-0.3-0.3-0.6-0.7-0.9-1.1c-0.3-0.4-0.5-0.7-0.8-1.1c-0.2-0.4-0.4-0.8-0.6-1.2
	c-1.4-3.1-1.8-6.8-0.6-10C357.4,647.6,359.8,645.9,363.1,644.5z"/>
<path class="st0" d="M353.2,353.6c10.6,2.6,20.6,3,31.4,1.1c-3,6.9-5.8,13-11,18.6c-5.5,5-11.5,8.2-18.2,11.3
	C356.2,373.9,355,364.1,353.2,353.6z"/>
<path class="st0" d="M828.8,501.6c0.7-0.1,1.5-0.1,2.2-0.1c8.6,0,16,4.1,21.9,10.1c-6.3,5.8-10.7,9-19.4,10.4
	c-10,0-17.2-4.1-24.9-10C814.6,506.4,820.7,503.1,828.8,501.6z"/>
<path class="st0" d="M510.4,248.6c1.8,0,3.6,0,5.4,0.5c6.3,1.7,8.9,7.3,11.8,12.5c1.3-1.7,2.6-3.6,3.8-5.4l4.2,2.3
	c-10.6,6.6-18.9,14.3-23.3,26.3c-0.8,0.2-3.9-7.4-4.7-8.6c-4.9-7.6-11.8-13.3-19.5-17.9l4.8-1.9c1,2.2,2.2,4.1,3.4,6.2
	c0.8-1.8,1.7-3.6,2.7-5.4C501.7,252.2,505.1,250.1,510.4,248.6z"/>
<path class="st0" d="M706.1,706.3c6.8,0.6,13.9,2.5,19.6,6.3c10.2,6.8,14.8,17.9,17,29.5c-7.6-1.2-14.5-2.8-21-7.2
	C711.2,727.8,708.3,718.2,706.1,706.3z"/>
<path class="st0" d="M280.9,281.6c7.5,1.6,15.3,3.4,21.6,8c10,7.1,11.9,16.8,13.7,28.2c-6.9-1.1-13.6-2.2-19.5-6.1
	C286,304.7,283.4,293.5,280.9,281.6z"/>
<path class="st0" d="M765.8,486.8c2.7,2.6,9.2,20.2,11.1,24.9c-3.4,9-6.7,17.9-11,26.5c-1.1-3.6-2.4-6.9-4.3-10.2
	c-5.7-8.4-12.8-12.5-22.1-16.2c2.6-1,5.1-1.9,7.5-3.1C756.6,503.9,762.4,497,765.8,486.8z"/>
<path class="st0" d="M739.7,282.7c0.9,0,0.4-0.1,1.5,0.4c1.4,3.8-1.1,11.5-2.7,15.1c-5.9,13.5-20.3,17-32.8,21.8l-1.1,0.2
	c-0.1-2,6-19.2,7.1-21.6c1-2.3,2.4-4.5,4-6.4C721.8,285,730.7,283.5,739.7,282.7z"/>
<path class="st0" d="M321.4,702l0.4,0.6c-5.2,10.9-8.1,27.3-18.8,34.7c-5.8,4-12.5,6.2-19.5,5c-0.3-0.5-0.6-1-0.9-1.5
	c-1.6-3.1-0.6-7.2,0.4-10.4c5.9-18.3,23-20.3,37.8-28C321,702.2,321.2,702.1,321.4,702z"/>
<path class="st0" d="M519.1,778.5c0.4,0.4,0.3,0.2,0.5,0.8c2.2,5.9,6.4,11.7,9.6,17.2c-4.6,5.3-9.9,9.2-16.5,11.7
	c5.2,3.9,8.1,8.5,9.2,15c1.9,11.4-3.4,20.5-9.7,29.5l-3.8-5.7c-3.9-5.9-6.7-12.5-6.4-19.7c0.3-8.1,3.5-14,9.4-19.4
	c-6-1.1-12.2-6.3-16.3-10.7c3-6.2,6.6-12.1,10.1-18c1.5,1,3.1,2.4,4.9,2.7C513.5,782.5,516.4,780.3,519.1,778.5z"/>
<path class="st0" d="M711.9,650.6c5.6-0.5,10.9,0.1,15.5,3.8c4.4,3.5,6.7,9.2,7.1,14.7c0.5,6.8-2.2,13.9-6.7,19
	c-0.3,0.3-0.5,0.6-0.8,0.9c-0.3,0.3-0.6,0.6-0.9,0.8c-0.3,0.3-0.6,0.5-0.9,0.8c-0.3,0.3-0.6,0.5-0.9,0.8c-0.3,0.2-0.6,0.5-1,0.7
	c-0.3,0.2-0.7,0.4-1,0.7c-0.3,0.2-0.7,0.4-1,0.6c-0.4,0.2-0.7,0.4-1.1,0.6c-0.4,0.2-0.7,0.3-1.1,0.5c-0.4,0.2-0.7,0.3-1.1,0.4
	c-0.4,0.1-0.8,0.3-1.1,0.4c-0.4,0.1-0.8,0.2-1.2,0.3c-0.4,0.1-0.8,0.2-1.2,0.3c-0.4,0.1-0.8,0.2-1.2,0.2c-0.4,0.1-0.8,0.1-1.2,0.2
	c-0.4,0-0.8,0.1-1.2,0.1c-3.6,0.2-9.9-0.5-12.4-3.4c-2-2.3-1.6-5.5-1.6-8.4c0.3-0.8,0.7-1.3,1.2-2c4-0.6,9,3.9,14.4,3.1
	c2.7-0.4,4.8-1.8,6.4-3.9c0.9-1.2,1.9-2.9,1.7-4.4c-0.5-0.3-1.2-0.8-1.8-1c-3.4-1-8.8,4-12.2,5.2c-2.1,0.8-4.6,1.1-6.7,0.1
	c-1.8-0.9-2.9-2.6-3.5-4.5c-1.6-5.3,0.3-13,3-17.7C702.3,654.5,706.4,652.1,711.9,650.6z"/>
<path class="st1" d="M705.3,661.1c2.1-0.1,4.4-0.2,6.3,0.7c2.9,1.4,3.7,4.8,4.6,7.7l-5-1.7c-4.7-1.9-8.7-3.4-13.7-3.6
	C700.1,662.8,702.4,661.7,705.3,661.1z"/>
<path class="st0" d="M229.9,469.4c1,1.2,0.9,3.2,1.2,4.7c1.7,10.7,5,17.4,13.2,24.5c-2.9,2.6-4.7,5.7-5.4,9.5
	c-1.1,6.2,1.2,11.6,4.6,16.6c-8.8,8.1-10.8,16.2-13.3,27.6c-1.7-1.9-3.1-3.6-3.9-6.1c-1.6-4.9,0.9-9.1,3.2-13.3
	c-0.3-1.6-0.7-3.1-1.3-4.6c-2.1-5.6-5.8-8.8-11.2-11.1c-8-0.1-13,6.5-23.6,5.5c-7.7-0.7-14.3-4.8-19.3-10.6c3-4,6.9-7.3,11.5-9.2
	c15.3-6.3,24.3,6.3,33.3,3.2c5.9-2,8.8-8.9,11.2-14.2c-2.2-2.9-4-5.4-4.5-9.1C224.7,477.6,226.9,473.4,229.9,469.4z"/>
<path class="st0" d="M478.7,706.1c3.4-0.3,6.2-0.2,9.4,1.1c6.9,2.9,12,9.6,14.6,16.4c2.9,7.6,2.9,16.3-0.6,23.7
	c-3.1,6.5-8,9.8-14.4,12.3c-0.3,0.1-0.6,0.2-0.9,0.2c-3,0.8-5.5-0.4-8-2c-8.1-4.9-14.8-14.4-17.1-23.6c-1.5-6.3-1.1-13.6,2.4-19.1
	C467.6,709.8,472.8,707.4,478.7,706.1z"/>
<path class="st1" d="M485.4,722.6c2.3-0.2,4.9-0.5,7.1,0.4c2.7,1.1,5,3.1,6.2,5.9c0.1,0.3,0.3,0.7,0.4,1c0.1,0.4,0.2,0.7,0.3,1.1
	c0.1,0.4,0.1,0.7,0.2,1.1c0,0.4,0.1,0.7,0,1.1c0,0.4,0,0.7-0.1,1.1c0,0.4-0.1,0.7-0.2,1.1c-0.1,0.4-0.2,0.7-0.3,1.1
	c-0.1,0.4-0.3,0.7-0.4,1c-1.5,3.4-4.2,5.2-7.5,6.5c-2.2,0.3-4.4,0.6-6.7,0c-2.6-0.7-4.9-2.5-6.1-4.8c-1.4-2.7-1.5-5.9-0.5-8.7
	C479.1,726.5,481.8,724.3,485.4,722.6z"/>
<path class="st0" d="M479.3,264.5c3.5,0.2,7,1.6,10,3.2c6.6,3.5,12.3,9.4,14.4,16.7c2,7.1,0.3,15.6-3.3,22
	c-3.4,6.1-7.9,9.3-14.4,11.1c-4.2,0.7-8.7,0.7-12.9-0.6c-5-1.6-9.3-5.2-11.5-10c-3.3-7.1-1.7-17.6,1.1-24.7
	C465.7,274.3,471.4,267.9,479.3,264.5z"/>
<path class="st1" d="M483.5,281.5c1.6-0.1,3.3-0.2,4.9,0.2c2.9,0.7,5.7,2.6,7.2,5.2c0.1,0.3,0.3,0.5,0.4,0.8
	c0.1,0.3,0.2,0.5,0.3,0.8c0.1,0.3,0.2,0.6,0.2,0.8c0.1,0.3,0.1,0.6,0.2,0.9c0,0.3,0.1,0.6,0.1,0.9c0,0.3,0,0.6,0,0.9
	c0,0.3-0.1,0.6-0.1,0.9c-0.1,0.3-0.1,0.6-0.2,0.9c-1,3.5-3.7,5.4-6.8,7c-1.8,0.4-3.8,0.5-5.6,0c-2.9-0.8-5.3-2.6-6.6-5.3
	c-0.1-0.3-0.3-0.6-0.4-0.9c-0.1-0.3-0.2-0.6-0.3-1c-0.1-0.3-0.2-0.6-0.2-1c-0.1-0.3-0.1-0.7-0.1-1c0-0.3,0-0.7,0-1
	c0-0.3,0-0.7,0.1-1c0-0.3,0.1-0.7,0.2-1c0.1-0.3,0.2-0.6,0.3-1C478.3,284.4,480.5,283,483.5,281.5z"/>
<path class="st0" d="M544.6,264.1c4,2.1,7.3,4.4,10.4,7.7c0.4,0.5,0.8,0.9,1.2,1.4c0.4,0.5,0.8,1,1.1,1.5c0.4,0.5,0.7,1,1.1,1.5
	c0.3,0.5,0.7,1,1,1.6c0.3,0.5,0.6,1.1,0.9,1.6c0.3,0.5,0.6,1.1,0.8,1.7s0.5,1.1,0.8,1.7c0.2,0.6,0.5,1.2,0.7,1.7
	c0.2,0.6,0.4,1.2,0.6,1.8c0.2,0.6,0.3,1.2,0.5,1.8c0.1,0.6,0.3,1.2,0.4,1.8c0.1,0.6,0.2,1.2,0.3,1.8c0.1,0.6,0.2,1.2,0.2,1.8
	c0.1,0.6,0.1,1.2,0.1,1.9c0,0.6,0,1.2,0,1.9c0,0.6,0,1.2-0.1,1.9c-0.3,5.4-2.4,10.4-6.5,13.9c-5.3,4.5-11.7,5.4-18.4,5
	c-2.4-0.5-4.7-1-6.8-2.2c-6.8-3.8-10.7-10.6-12.6-18c-1.8-6.8-1.5-13.4,2.2-19.6C527.7,269.7,535.4,266.5,544.6,264.1z"/>
<path class="st1" d="M535.7,281.6c1.8-0.1,3.8-0.1,5.5,0.5c2.4,0.9,4.3,2.7,5.3,5c1,2.4,0.9,5.2-0.1,7.6c-1.5,3.6-4.2,5.2-7.6,6.7
	c-2,0.1-3.7,0-5.5-0.8c-2.7-1.1-4.9-3.1-5.9-5.9c-0.1-0.3-0.2-0.6-0.3-0.9c-0.1-0.3-0.1-0.6-0.2-0.9c0-0.3-0.1-0.6-0.1-1
	c0-0.3,0-0.6,0-1s0.1-0.6,0.1-1c0.1-0.3,0.1-0.6,0.2-0.9c0.1-0.3,0.2-0.6,0.3-0.9c0.1-0.3,0.2-0.6,0.4-0.9
	C529.6,283.9,532.3,282.7,535.7,281.6z"/>
<path class="st0" d="M730.8,518.7c5.9-0.2,11.7,1.3,16.7,4.7c5.2,3.5,9.3,9.1,10.4,15.4c0.8,5-0.8,9.7-3.7,13.7
	c-4.9,6.9-12.6,11.1-20.9,12.4c-0.4,0-0.9,0-1.3,0c-0.4,0-0.9,0-1.3,0c-0.4,0-0.9,0-1.3-0.1c-0.4,0-0.9-0.1-1.3-0.1
	c-0.4-0.1-0.9-0.1-1.3-0.2c-0.4-0.1-0.9-0.2-1.3-0.2s-0.9-0.2-1.3-0.3c-0.4-0.1-0.8-0.2-1.3-0.4c-0.4-0.1-0.8-0.3-1.2-0.4
	c-0.4-0.1-0.8-0.3-1.2-0.5c-0.4-0.2-0.8-0.3-1.2-0.5c-0.4-0.2-0.8-0.4-1.2-0.6c-0.4-0.2-0.8-0.4-1.1-0.6c-0.4-0.2-0.7-0.5-1.1-0.7
	c-0.4-0.2-0.7-0.5-1.1-0.7c-0.4-0.3-0.7-0.5-1-0.8c-4.3-3.4-7.6-7.9-8.2-13.4c-0.7-6.2,1.7-12.8,5.6-17.5
	C716.3,521.6,723.1,519.4,730.8,518.7z"/>
<path class="st1" d="M731.1,525.5c1.8-0.1,3.6-0.1,5.2,0.5c2.5,0.9,4.8,2.6,5.9,5c1.2,2.4,1.2,5.2,0.2,7.7c-1.5,3.8-4.1,5.4-7.6,7
	c-2.4,0.4-4.5,0.4-6.8-0.5c-2.3-0.9-4.1-2.6-5-4.9c-1.1-2.6-0.9-5.6,0.2-8.1C724.9,528.7,727.6,527,731.1,525.5z"/>
<path class="st0" d="M727.1,459.1c0.7-0.1,1.4-0.1,2.1-0.2c0.7,0,1.4,0,2.2,0c0.7,0,1.4,0.1,2.2,0.2c0.7,0.1,1.4,0.2,2.1,0.3
	c0.7,0.1,1.4,0.3,2.1,0.5c0.7,0.2,1.4,0.4,2.1,0.6c0.7,0.2,1.3,0.5,2,0.8c0.7,0.3,1.3,0.6,1.9,0.9c6.2,3.3,12.1,9.4,13.9,16.3
	c1.3,4.8,0.1,9.8-2.4,14c-4,6.7-10.4,10.4-17.8,12.2c-7.5,1.3-15.1,0-21.4-4.3c-0.3-0.2-0.7-0.5-1-0.7c-0.3-0.2-0.6-0.5-1-0.8
	c-0.3-0.3-0.6-0.5-0.9-0.8c-0.3-0.3-0.6-0.6-0.9-0.8c-0.3-0.3-0.6-0.6-0.8-0.9c-0.3-0.3-0.5-0.6-0.8-0.9c-0.3-0.3-0.5-0.6-0.7-1
	c-0.2-0.3-0.5-0.7-0.7-1c-0.2-0.3-0.4-0.7-0.6-1c-0.2-0.3-0.4-0.7-0.6-1.1c-0.2-0.4-0.4-0.7-0.5-1.1c-0.2-0.4-0.3-0.7-0.5-1.1
	c-0.2-0.4-0.3-0.8-0.4-1.1c-0.1-0.4-0.3-0.8-0.4-1.2c-0.1-0.4-0.2-0.8-0.3-1.2c-0.1-0.4-0.2-0.8-0.2-1.2c-1-5.4-0.1-10.4,3.1-14.9
	C713.1,463.7,719.8,460.5,727.1,459.1z"/>
<path class="st1" d="M729.4,478.6c1.8-0.3,3.7-0.4,5.5,0.1c3.2,0.9,6,3.3,7.5,6.2c1.2,2.4,1.4,5,0.4,7.5c-1.2,3.1-3.6,4.5-6.6,5.8
	c-1.7,0.3-3.6,0.6-5.3,0.2c-2.6-0.5-5.1-2.2-6.5-4.4c-0.2-0.3-0.4-0.6-0.5-0.9c-0.2-0.3-0.3-0.6-0.4-0.9c-0.1-0.3-0.2-0.6-0.3-1
	c-0.1-0.3-0.2-0.7-0.2-1c-0.1-0.3-0.1-0.7-0.1-1c0-0.3,0-0.7,0-1c0-0.3,0-0.7,0.1-1c0-0.3,0.1-0.7,0.2-1
	C723.9,482.4,726.2,480.4,729.4,478.6z"/>
<path class="st0" d="M540.7,705.1c3.7,0.1,7.2,0.8,10.5,2.6c6.6,3.4,10.7,9.8,12.8,16.7c2.1,7.3,2.1,15.5-1.8,22.2
	c-4.1,7.3-11.1,10.8-18.9,12.8c-4.8,0.6-8.8-0.2-13-2.7c-5.8-3.5-9.9-9.5-11.5-16c-1.8-7.3,0.5-14.6,4.3-20.9
	C527.2,713.3,533.1,707,540.7,705.1z"/>
<path class="st1" d="M532.1,721.6c2.2-0.1,4.3,0,6.5,0.6c3,0.8,5.7,2.8,7.2,5.5c1.3,2.4,1.4,5.3,0.6,7.9c-1.2,3.9-4.3,6.7-7.8,8.6
	c-1.7,0.3-3.5,0.4-5.2,0.1c-3.4-0.8-6.2-2.7-7.9-5.7c-0.2-0.3-0.4-0.7-0.5-1c-0.2-0.4-0.3-0.7-0.4-1.1c-0.1-0.4-0.2-0.7-0.3-1.1
	c-0.1-0.4-0.1-0.8-0.2-1.2c0-0.4-0.1-0.8-0.1-1.2c0-0.4,0-0.8,0.1-1.2c0-0.4,0.1-0.8,0.2-1.1c0.1-0.4,0.2-0.8,0.3-1.1
	C525.7,725.5,528.4,723.4,532.1,721.6z"/>
<path class="st0" d="M294.8,457.7c0.5,0,0.6-0.1,1.2,0c6,0.2,11.9,1.6,16.1,6.1c4.3,4.7,5.7,12.1,5.4,18.3
	c-0.3,6.6-3.8,12.4-8.6,16.7c-6.1,5.4-12.1,6.6-20,6.2c-5.5-0.8-11.2-2.4-15.8-5.7c-0.3-0.2-0.6-0.4-0.8-0.6
	c-0.3-0.2-0.5-0.5-0.8-0.7c-0.3-0.2-0.5-0.5-0.8-0.7c-0.3-0.2-0.5-0.5-0.7-0.8c-0.2-0.3-0.5-0.5-0.7-0.8c-0.2-0.3-0.4-0.6-0.7-0.8
	c-0.2-0.3-0.4-0.6-0.6-0.9c-0.2-0.3-0.4-0.6-0.6-0.9c-0.2-0.3-0.4-0.6-0.5-0.9c-0.2-0.3-0.3-0.6-0.5-1c-0.1-0.3-0.3-0.6-0.4-1
	c-0.1-0.3-0.3-0.7-0.4-1c-0.1-0.3-0.2-0.7-0.3-1c-0.1-0.3-0.2-0.7-0.3-1s-0.1-0.7-0.2-1c-0.1-0.4-0.1-0.7-0.2-1.1
	c-0.6-5.4,1.1-10.4,4.6-14.6C275.6,462.7,285.2,458.8,294.8,457.7z"/>
<path class="st1" d="M287,476c2.3-0.3,4.4-0.3,6.5,0.6c0.3,0.2,0.7,0.3,1,0.5c0.3,0.2,0.6,0.4,1,0.6c0.3,0.2,0.6,0.5,0.9,0.7
	c0.3,0.2,0.6,0.5,0.8,0.8c0.3,0.3,0.5,0.6,0.7,0.9c0.2,0.3,0.5,0.6,0.7,0.9c0.2,0.3,0.4,0.6,0.6,1c0.2,0.3,0.3,0.7,0.5,1
	c0.9,2.5,1,5.2-0.2,7.6c-1.4,2.9-3.8,4.2-6.7,5.3c-1.9,0.4-3.9,0.6-5.8,0.1c-0.3-0.1-0.6-0.2-1-0.3c-0.3-0.1-0.6-0.2-0.9-0.4
	c-0.3-0.1-0.6-0.3-0.9-0.5c-0.3-0.2-0.6-0.4-0.8-0.6c-0.3-0.2-0.5-0.4-0.8-0.6c-0.2-0.2-0.5-0.5-0.7-0.7c-0.2-0.3-0.4-0.5-0.6-0.8
	c-0.2-0.3-0.4-0.6-0.5-0.8c-0.2-0.3-0.3-0.7-0.5-1c-0.1-0.3-0.3-0.7-0.4-1.1c-0.1-0.4-0.2-0.7-0.3-1.1c-0.1-0.4-0.1-0.7-0.1-1.1
	c0-0.4,0-0.7,0-1.1c0-0.4,0-0.7,0.1-1.1s0.1-0.7,0.2-1.1c0.1-0.4,0.2-0.7,0.3-1.1C281.4,479.2,283.7,477.6,287,476z"/>
<path class="st0" d="M289.1,518.7c1.3-0.1,2.6-0.2,3.9-0.2c6.8,0.1,12.9,3.7,17.4,8.5c4.9,5.2,7.4,11.4,7.2,18.6
	c-0.2,6.3-1.9,12.8-6.8,17.2c-4.6,4.1-10.5,4.9-16.4,4.6c-6.3-0.8-12.2-3.5-17.4-7c-5.7-3.9-11-9.2-12.2-16.3
	c-0.1-0.3-0.1-0.7-0.1-1c0-0.3-0.1-0.7-0.1-1c0-0.3,0-0.7,0-1c0-0.3,0-0.7,0-1c0-0.3,0-0.7,0.1-1c0-0.3,0.1-0.7,0.1-1
	c0-0.3,0.1-0.7,0.2-1c0.1-0.3,0.1-0.6,0.2-1s0.2-0.6,0.3-1c0.1-0.3,0.2-0.6,0.3-0.9c0.1-0.3,0.2-0.6,0.4-0.9
	c0.1-0.3,0.3-0.6,0.4-0.9c0.1-0.3,0.3-0.6,0.4-0.9c0.2-0.3,0.3-0.6,0.5-0.9c0.2-0.3,0.3-0.6,0.5-0.8c0.2-0.3,0.4-0.5,0.6-0.8
	C273.3,522.3,281.3,520,289.1,518.7z"/>
<path class="st1" d="M288.3,527.1c1.8-0.1,3.8,0,5.5,0.7c0.3,0.1,0.6,0.3,0.9,0.4c0.3,0.2,0.6,0.3,0.8,0.5s0.5,0.4,0.8,0.6
	c0.3,0.2,0.5,0.4,0.7,0.7c0.2,0.2,0.4,0.5,0.7,0.7c0.2,0.3,0.4,0.5,0.6,0.8c0.2,0.3,0.3,0.6,0.5,0.8c0.2,0.3,0.3,0.6,0.4,0.9
	c0.1,0.3,0.2,0.7,0.3,1c0.1,0.3,0.2,0.7,0.2,1c0.1,0.3,0.1,0.7,0.1,1c0,0.3,0,0.7,0,1c0,0.3,0,0.7-0.1,1c0,0.3-0.1,0.7-0.2,1
	c-0.1,0.3-0.2,0.7-0.3,1c-0.1,0.3-0.2,0.7-0.4,1c-1.6,3.5-4.3,5-7.8,6.3c-2.2,0.1-4.2,0.1-6.3-0.8c-0.3-0.1-0.6-0.3-0.9-0.5
	c-0.3-0.2-0.6-0.3-0.8-0.5s-0.5-0.4-0.8-0.6c-0.2-0.2-0.5-0.5-0.7-0.7c-0.2-0.2-0.4-0.5-0.6-0.8c-0.2-0.3-0.4-0.5-0.6-0.8
	c-0.2-0.3-0.3-0.6-0.5-0.9c-0.1-0.3-0.3-0.6-0.4-0.9c-0.1-0.3-0.2-0.7-0.3-1.1c-0.1-0.4-0.2-0.7-0.2-1.1c0-0.4-0.1-0.7-0.1-1.1
	c0-0.4,0-0.7,0-1.1c0-0.4,0.1-0.7,0.2-1.1s0.2-0.7,0.3-1.1c0.1-0.4,0.2-0.7,0.4-1c0.1-0.3,0.3-0.7,0.5-1
	C282.1,529.2,284.8,528,288.3,527.1z"/>
<path class="st0" d="M683.3,636.7c10.3-1,19,3.3,28.4,6.9c-8.5,2.4-17.9,5.9-23.6,13c-8.1,10.1-2.8,19.5,1.5,29.5
	c3,6.9,6.4,14.8,7.1,22.4c0.7,7-1.3,13.7-6,19.1c-0.3,0.3-0.5,0.6-0.8,0.9c-0.3,0.3-0.6,0.6-0.8,0.8c-0.3,0.3-0.6,0.5-0.9,0.8
	c-0.3,0.3-0.6,0.5-0.9,0.8c-0.3,0.2-0.6,0.5-1,0.7c-0.3,0.2-0.7,0.5-1,0.7c-0.3,0.2-0.7,0.4-1,0.6c-0.3,0.2-0.7,0.4-1.1,0.6
	c-0.4,0.2-0.7,0.3-1.1,0.5c-0.4,0.2-0.7,0.3-1.1,0.5c-0.4,0.1-0.7,0.3-1.1,0.4c-0.4,0.1-0.8,0.2-1.1,0.4c-0.4,0.1-0.8,0.2-1.2,0.3
	c-0.4,0.1-0.8,0.2-1.2,0.2c-0.4,0.1-0.8,0.1-1.2,0.2c-0.4,0.1-0.8,0.1-1.2,0.1c-5.7,0.4-10.6-1.3-14.9-5c-4.6-4-7.6-10.6-7.8-16.6
	c-0.1-4.4,1.4-8.5,4.4-11.7c4.2-4.3,11.5-6.8,17.5-6.9c3,0,6,0.7,8.1,2.9c6.1,6.5-2.8,13.1-3.1,19.8c1,1.3,1.4,1.8,3.1,2.3
	c1.2-0.2,1.5-0.1,2.3-1c5.1-5.6,4-18.3,3.8-25.3c-5-4.2-9.8-9.4-16.5-10.6c-0.6-0.1-1.2-0.2-1.8-0.2c-0.6,0-1.2-0.1-1.8,0
	c-0.6,0-1.2,0.1-1.8,0.1c-0.6,0.1-1.2,0.2-1.8,0.3c-0.6,0.1-1.2,0.3-1.7,0.5c-0.6,0.2-1.1,0.4-1.7,0.7c-0.6,0.2-1.1,0.5-1.6,0.8
	c-0.5,0.3-1,0.6-1.5,1c-8.1,5.7-11.7,17.4-13.3,26.7c-5.8-22.5-12.4-27.1-2.7-50.6c1,2.9,2,5.7,3.8,8.2c7.5,10,22.8,6.4,33.7,8.2
	c-0.5-8.4,0.9-21.1-2.8-28.5c-2.8-5.6-7.7-7.7-13.3-9.5c3.4-1.2,6.8-2.1,10.2-2.9C676.2,637.7,679.7,637.1,683.3,636.7z"/>
<path class="st1" d="M665.6,702.9c0.4,0.3,0.7,0.7,1,1c2.5,3.1,5.4,9.9,5,13.9c-0.6-0.1-1.5-0.2-2.1-0.4c-1.9-0.9-3.5-3.4-4.2-5.3
	C664.2,708.9,664.1,705.9,665.6,702.9z"/>
<path class="st0" d="M668,290.1c6.5-0.8,12.6,0.2,18.1,3.9c5.1,3.4,9,9.1,10,15.2c0.9,5.5-0.6,11.5-3.9,16c-0.2,0.2-0.4,0.5-0.5,0.7
	c-0.2,0.2-0.4,0.5-0.6,0.7c-0.2,0.2-0.4,0.4-0.6,0.7c-0.2,0.2-0.4,0.4-0.7,0.6c-0.2,0.2-0.5,0.4-0.7,0.6c-0.2,0.2-0.5,0.4-0.7,0.5
	c-0.2,0.2-0.5,0.3-0.7,0.5c-0.3,0.2-0.5,0.3-0.8,0.5c-0.3,0.2-0.5,0.3-0.8,0.4c-0.3,0.1-0.5,0.3-0.8,0.4c-0.3,0.1-0.6,0.2-0.8,0.3
	c-0.3,0.1-0.6,0.2-0.8,0.3c-0.3,0.1-0.6,0.2-0.9,0.3c-0.3,0.1-0.6,0.1-0.9,0.2c-0.3,0.1-0.6,0.1-0.9,0.2c-0.3,0-0.6,0.1-0.9,0.1
	c-5.1,0.6-11-0.7-15-4c-3.2-2.6-6-7.1-6.2-11.3c-0.1-2,0.5-3.8,1.9-5.2c1.9-1.9,4.8-2.8,7.5-2.8c3.8,0,7.6,1.9,10.2,4.6
	c2.5,2.7,3.3,5.6,3.1,9.1c0,0.2,0,0.4,0,0.5l1-0.3l-0.4,0.3c0.1-0.1,0.3-0.2,0.4-0.4c1.8-1.9,2.9-5.2,2.9-7.8c0-3.3-1.6-6.1-3.8-8.4
	c-2.7-2.7-6.2-4.7-10.1-4.5c-6.9,0.2-12,6.9-16.4,11.5c-1.4-1.8-2.7-3.7-4.5-5.1c-0.9,0.5-0.7,0.1-1,1c-2,4.8-1,12.3,0.9,16.9
	c0.2,0.4,0.3,0.7,0.5,1.1c0.2,0.4,0.4,0.7,0.5,1.1c0.2,0.4,0.4,0.7,0.6,1c0.2,0.3,0.4,0.7,0.7,1c0.2,0.3,0.5,0.7,0.7,1
	c0.2,0.3,0.5,0.6,0.8,0.9c0.3,0.3,0.5,0.6,0.8,0.9c0.3,0.3,0.6,0.6,0.8,0.9s0.6,0.5,0.9,0.8c0.3,0.3,0.6,0.5,0.9,0.8
	c0.3,0.2,0.6,0.5,1,0.7c0.3,0.2,0.7,0.4,1,0.7c0.3,0.2,0.7,0.4,1,0.6c0.4,0.2,0.7,0.4,1.1,0.6c0.4,0.2,0.7,0.3,1.1,0.5
	c0.4,0.2,0.7,0.3,1.1,0.4c8.2,3,16.9,0.7,24.5-2.9c-3.8,7.7-6.7,15.8-3.8,24.4c0.1,0.3,0.2,0.7,0.4,1c0.1,0.3,0.3,0.7,0.4,1
	c0.1,0.3,0.3,0.6,0.5,1c0.2,0.3,0.3,0.6,0.5,0.9c0.2,0.3,0.4,0.6,0.6,0.9c0.2,0.3,0.4,0.6,0.6,0.9c0.2,0.3,0.4,0.6,0.6,0.8
	c0.2,0.3,0.5,0.5,0.7,0.8c0.2,0.3,0.5,0.5,0.7,0.8c0.3,0.3,0.5,0.5,0.8,0.7c0.3,0.2,0.5,0.5,0.8,0.7c0.3,0.2,0.6,0.4,0.8,0.7
	c0.3,0.2,0.6,0.4,0.9,0.6c0.3,0.2,0.6,0.4,0.9,0.6c0.3,0.2,0.6,0.4,0.9,0.5c0.3,0.2,0.6,0.3,1,0.5c4.3,2,9.3,2.7,13.7,0.8
	c5.8-2.4,8.7-8,10.8-13.5c0.2-0.9,0.3-1.6,0.4-2.5c0-1-0.1-0.9-0.7-1.5c-2.8,0.9-5.2,5-7.6,7c-1.6,1.3-3.9,2.3-6,2
	c-4.1-0.7-8.8-4.8-11.2-8c-2.5-3.3-3.4-6.8-2.7-10.9c0.9-5.4,5.5-11.1,10-14.2c4.1-2.8,8.9-3.9,13.8-3c6.1,1.2,11.8,5.3,15.3,10.5
	c0.2,0.3,0.4,0.6,0.6,0.9c0.2,0.3,0.4,0.6,0.5,1c0.2,0.3,0.3,0.7,0.5,1c0.2,0.3,0.3,0.7,0.4,1c0.1,0.3,0.3,0.7,0.4,1
	c0.1,0.3,0.2,0.7,0.3,1.1c0.1,0.4,0.2,0.7,0.3,1.1c0.1,0.4,0.2,0.7,0.2,1.1c0.1,0.4,0.1,0.7,0.2,1.1c0,0.4,0.1,0.7,0.1,1.1
	c0,0.4,0.1,0.7,0.1,1.1c0,0.4,0,0.7,0,1.1c0,0.4,0,0.7,0,1.1c0,0.4-0.1,0.7-0.1,1.1c0,0.4-0.1,0.7-0.2,1.1c-0.1,0.4-0.1,0.7-0.2,1.1
	c-2,9.4-8.3,16.9-16.3,21.9c-7.1,4.4-24.4,11.8-32.6,9.5c-3.1-0.9-5.4-3.7-6.8-6.4c-5.8-11.4-3.6-24.2,0.1-35.8
	c-11.3,2.6-26.6,5.5-37-1.4c-2.5-1.6-3.8-3.6-4.3-6.5c-1.7-10.5,6-28.7,12-37.1C654.5,294.6,660.5,291.4,668,290.1z"/>
<path class="st1" d="M709,339.5c2.6-0.1,4.8,0,7.2,1.2c2.1,1.1,3.7,3,4.4,5.3c0.4,1.6,0.6,3.2-0.3,4.6c-0.5,0.8-0.3,0.6-1.3,0.8
	l-1.6-1.2c-4.8-4.3-9.1-4.6-15.3-4.9C704.1,342.6,705.8,341,709,339.5z"/>
<path class="st0" d="M348.5,291.2c6.4-0.8,13.3,0.6,18.6,4.2c8.9,6,16.4,23.5,18.3,33.8c0.7,3.8,1.6,16.8-0.4,19.7
	c-0.3-0.2-0.8-0.5-1.1-0.6c-2.8-1-10.4,0.1-13.9-0.3c-6.2-0.6-11.8-2.8-17.9-3.9c-1.9-0.4-3.9,0.1-5.8-0.1c-1.4-0.1-3-0.7-4.3-0.1
	c-0.9,6.4,3.9,14.3,5.1,20.7c1.4,7,0.8,14.4,0.2,21.4c-6.2,0.7-12.1,1.1-18.2,0c-11.5-2-27.9-8.5-34.7-18.5
	c-3.9-5.7-4.9-12.9-3.7-19.6c1.3-7,5.2-13.9,11.2-17.9c3.9-2.6,9.1-4.2,13.8-3.2c4.4,1,7.7,4.1,10,7.8c3.1,5.1,5.7,12.5,4,18.4
	c-1.5,5.1-5.2,8.2-9.6,10.7c-2.2,0.7-4.6,1.5-6.8,0.3c-3-1.6-4-6-5-9.1c4.2-15.3,7.1-7.3,14.2-12.8c-0.3-0.6-0.5-0.9-1.2-1.3
	c-3.1-1.9-6.8-2.5-10.3-1.4c-3,0.9-5.3,2.8-6.7,5.6c-2,4-1.9,9.1-0.3,13.2c1.2,3.1,3.2,5.9,6.3,7.2c1.5,0.6,2,0.9,2.9,2.3
	c1.5,2.2,3,4.1,5.5,5.2c3.1,1.4,6.8,1,9.9-0.4c0.5-0.2,1-0.5,1.5-0.8c0.5-0.3,1-0.6,1.5-0.9c0.5-0.3,0.9-0.7,1.4-1.1
	c0.4-0.4,0.8-0.8,1.2-1.2c0.4-0.4,0.8-0.9,1.1-1.3c0.3-0.5,0.7-0.9,1-1.4c0.3-0.5,0.6-1,0.8-1.5c0.2-0.5,0.5-1.1,0.7-1.6
	c3.7-10.2-1.9-22.3-6.2-31.3c6.7,2.1,18,7.6,24.3,7.9c4.2,0.2,8.7-1.4,11.7-4.4c3.1-3.1,4.6-7.2,4.5-11.6c-0.1-5.4-2.1-10.4-6-14.2
	c-1.4,0.7-3,1.3-4.3,2.2c0.1,0.7,0,0.4,0.4,1.2c0.4,1.1,0.9,2.1,1.2,3.2c0.7,2.6-0.1,5.2-1.5,7.4c-2.1,3.4-5.6,5.2-9.4,5.9
	c-6.6,1.2-16.5-0.2-21.9-4.3c-2.8-2.1-4.8-6.8-5.3-10.2c-0.6-4.7,1.7-9.3,4.5-12.8C334.5,295.5,341.1,292.2,348.5,291.2z"/>
<path class="st1" d="M349.4,303.1c1.7,0,3.7,0.1,5.2,0.8c1.9,0.8,3.1,2.1,3.8,4c-2.6,1.3-5.5,1.6-8.3,2.4c-3.8,1.1-6,3.2-7.9,6.6
	l-0.3,0.5l-1.1,5.3l-0.7-0.4c-1.1-1.5-1.8-2.9-2.2-4.7c-0.1-0.4-0.1-0.7-0.2-1.1c0-0.4-0.1-0.7-0.1-1.1c0-0.4,0-0.7,0-1.1
	c0-0.4,0.1-0.7,0.2-1.1c0.1-0.4,0.2-0.7,0.3-1.1c0.1-0.4,0.2-0.7,0.4-1c0.1-0.3,0.3-0.7,0.5-1c0.2-0.3,0.4-0.6,0.6-0.9
	C341.9,305.6,345.3,303.9,349.4,303.1z"/>
<path class="st0" d="M334.3,637.2c7.6-1.1,16.1,0.3,23.4,2.4c-0.2,0.2-0.5,0.3-0.7,0.5c-1.5,1-3,2.2-4.2,3.6
	c-2.2,2.8-8.4,15.1-9.1,18.7c-0.7,3.9,0.1,8.1,2.4,11.3c4.1,5.7,11.9,7.8,18.6,8.7c3.6-2.6,15.2-10,17.2-12.7c1-1.3,1.6-3.1,2.3-4.7
	c2.7,9.2,3.7,18.3,2.9,27.9c-1.1,13.1-7.1,28.5-17.6,36.9c-4.9,4-10.9,6-17.3,5.3c-7.4-0.9-14.3-5.6-18.9-11.4
	c-3.3-4.1-5.9-9.4-5.2-14.8c0.6-4.4,3.4-7.8,6.9-10.2c5.4-3.8,13.1-5.8,19.6-4.5c3.5,0.7,6.9,2.5,8.9,5.6c1.6,2.4,2.4,5.7,1.6,8.5
	c-0.7,2.5-2.8,4.8-5.1,6.1c-2.7,1.5-6.9,1.5-9.8,0.4c-4.8-1.7-2.7-6.1-4.3-9.6l-0.9-0.1c-0.6,0.4-1.2,0.7-1.6,1.2
	c-1.3,1.4-2.3,3.5-2.2,5.4c0.1,2.4,1.8,4.5,3.5,6.1c3.4,3,7.8,4.2,12.2,3.9c6.3-0.4,10.2-3.1,14.1-7.8c0.9-1.5,1.8-3.1,2.3-4.8
	c1.2-4.3,0.6-8.8-1.6-12.7c-0.3-0.6-0.7-1.1-1.1-1.7c-0.4-0.5-0.8-1.1-1.2-1.5c-0.4-0.5-0.9-1-1.4-1.4c-0.5-0.5-1-0.9-1.5-1.3
	c-0.5-0.4-1.1-0.8-1.6-1.1c-0.6-0.4-1.1-0.7-1.7-1c-0.6-0.3-1.2-0.6-1.8-0.8c-0.6-0.2-1.2-0.5-1.9-0.6c-10.9-3-22.2,3.9-31.3,9
	c4.7-8.3,9.9-19.4,8.7-29.3c-0.6-5.1-3.1-9.7-7.3-12.8c-3.8-2.8-8.5-4.3-13.2-3.5c-4.6,0.8-8.9,4.3-11.6,8.1
	c-2.7,3.9-4.4,9-3.3,13.7c0.8,3.6,3.2,6.9,6.4,8.7c2.2,1.3,5.1,1.7,7.5,0.9c1.5-0.5,3.1-1.4,3.9-2.8c-1.6-1.8-5.4-1.9-7.7-3.1
	c-1.9-1-3.3-2.5-3.8-4.6c-0.6-2.6,0.9-5.8,2.2-7.9c1.4-2.3,3.6-4.2,6.3-4.7c2.7-0.5,5.3,0.4,7.4,1.9c0.4,0.3,0.8,0.6,1.1,0.9
	c0.4,0.3,0.7,0.6,1,1c0.3,0.3,0.6,0.7,0.9,1.1c0.3,0.4,0.6,0.8,0.8,1.2c0.3,0.4,0.5,0.8,0.7,1.3s0.4,0.9,0.6,1.3
	c0.2,0.4,0.3,0.9,0.4,1.4c0.1,0.5,0.2,0.9,0.3,1.4c1,6.3-1.6,14.7-5.4,19.8c-2.5,3.4-5.6,5.6-9.8,6.2c-5.2,0.7-10.4-1.5-14.5-4.6
	c-6.1-4.7-10.7-12.2-11.4-19.9c0-0.4-0.1-0.7-0.1-1.1c0-0.4,0-0.7,0-1.1c0-0.4,0-0.7,0-1.1c0-0.4,0-0.7,0.1-1.1
	c0-0.4,0.1-0.7,0.1-1.1c0.1-0.4,0.1-0.7,0.2-1.1c0.1-0.4,0.2-0.7,0.2-1.1c0.1-0.4,0.2-0.7,0.3-1.1c0.1-0.4,0.2-0.7,0.4-1.1
	c0.1-0.3,0.3-0.7,0.4-1c0.1-0.3,0.3-0.7,0.5-1c0.2-0.3,0.3-0.7,0.5-1c0.2-0.3,0.4-0.6,0.6-1c0.2-0.3,0.4-0.6,0.6-0.9
	c0.2-0.3,0.4-0.6,0.7-0.9c0.2-0.3,0.5-0.6,0.7-0.9C303.3,644.1,320.5,638.3,334.3,637.2z"/>
<path class="st0" d="M553.3,239.6c4.6-0.8,10.5,1.3,14.4,3.5c7.2,4,11.5,9.2,13.8,17.2c-3,2.7-7.5,6.9-7.6,11.2c0,0.8,0.4,1,0.9,1.6
	c3.3,0.9,6-1.2,8.8-2.7c9-4.5,20.4-3.9,29.7-0.7c13.8,4.7,21.8,14.4,28.1,27c-3.2,9.5-8.2,17.7-10.3,27.7c-2.7,13-1.3,27.4,6.2,38.7
	c3.3,5,7.6,7.8,11.9,11.8c2.6,2.5,4.5,5.6,6.9,8.3c5.8,6.3,15.1,10.7,23.4,12.3c17.5,3.4,34.9-4.7,49.1-14.2
	c9.6,6.4,19.8,14.9,24.6,25.7c3.5,7.8,4.5,17.6,0.4,25.5c-1.5,3-4,5.8-5,9c-0.4,1.3-0.3,1.7,0.3,2.8c3.6,2.2,9.3-1.9,13.4-1
	c7.9,1.6,15.1,7.6,19.1,14.3c8.3,13.8,1.7,25.7-1.8,39.6c-3.8-12.2-9.7-20.5-18.6-29.6c-10.1-10.4-16-15.4-31.1-15.6
	c4.8-4,9-8.5,11.5-14.2c3-6.9,3.2-14.6,0.3-21.6c-3.4-8-10.3-14.6-18.3-17.9c-6.2-2.5-13.9-3.4-20.1-0.6c-3.2,1.5-6.7,4.4-7.8,7.9
	c-0.7,2.2-0.4,4.6,0.7,6.6c2,3.7,6.3,6.4,10.2,7.5c2.2,0.6,4.7,0.7,6.7-0.5c1.6-1,2.5-2.7,3-4.5c0.6-2.5,0.4-5.8-1.2-7.9
	c-1.6-2.1-4.5-2.1-6.9-2.5c1.2-1,3.2-1.2,4.8-1.2c5.9-0.3,12.7,3.7,16.9,7.7c4.1,4,7,9.7,6.9,15.6c-0.3,15.8-17.7,21.9-27.4,31.2
	c-11.7,11.3-10.9,15.2-12.6,30.2c-0.8,6.8-1.6,13.5-1.8,20.4c2.6-4.7,5.7-7.7,9.8-11.3c6.2,7.4,13.1,11.6,21.8,15.5
	c-9.3,3-15.2,7.3-22.1,14.1c-3.9-3-7-5.4-9.4-9.8c0,6.6,1.1,12.9,1.9,19.4c0.5,4,0.2,8.6,1.2,12.4c2.6,10,11.7,18,19.7,23.9
	c5.4,4,11.2,7.8,14.8,13.6c3.4,5.3,4.1,11.7,2.6,17.8c-1.6,6.3-5.6,11.3-11.1,14.7c-4.3,2.6-11,5.6-16,4c-1.1-0.3-1.7-0.7-2.2-1.6
	c2,0.3,4.2,0.6,6-0.7c1.4-1,1.9-2.5,2.1-4.1c0.2-2.5-0.8-5.2-2.4-7.1c-1.5-1.7-3.5-2.7-5.8-2.7c-2.6,0-5,1.3-6.9,3.1
	c-2.6,2.6-4.4,6.5-4.2,10.2c0.2,3,2.1,6.1,4.3,8c3.8,3.2,8.9,3.6,13.6,3.1c9.3-1.1,18-6.4,23.7-13.8c0.3-0.4,0.7-0.9,1-1.3
	c0.3-0.5,0.6-0.9,0.9-1.4c0.3-0.5,0.6-1,0.9-1.4c0.3-0.5,0.5-1,0.8-1.5c0.3-0.5,0.5-1,0.7-1.5c0.2-0.5,0.4-1,0.6-1.6
	c0.2-0.5,0.4-1,0.6-1.6c0.2-0.5,0.3-1.1,0.5-1.6c0.1-0.5,0.3-1.1,0.4-1.6c0.1-0.5,0.2-1.1,0.3-1.6c0.1-0.6,0.2-1.1,0.2-1.7
	c0.1-0.6,0.1-1.1,0.2-1.7c0-0.6,0.1-1.1,0.1-1.7c0-0.6,0-1.1,0-1.7c0-0.6-0.1-1.1-0.1-1.7c0-0.6-0.1-1.1-0.2-1.7
	c-1.3-9.4-7.1-15.2-14.3-20.7c6.2,0.1,11.4-0.3,17.1-3c6.5-3.1,23.5-19.8,27.2-26.2c2.9-4.9,4.3-10.8,6.2-16.2
	c1.4,7.8,5,15.4,5.6,23.3c0.6,8-2.2,15.5-7.4,21.4c-5.1,5.8-10.9,10.2-19,9.2c-2.6-0.3-5.4-1-8.1-0.7c-1.6,0.2-2.4,0.5-3.4,1.7
	c-0.1,0.9,0.1,1.5,0.5,2.4c0.1,0.2,0.2,0.3,0.2,0.5c1,2.2,2.7,2.9,4.7,4c1.2,2.4,2.1,4.5,2.5,7.1c2,10.6-1.7,23.5-7.9,32.1
	c-3.3,4.6-7.7,8.6-12.9,10.8c-13.8,6-23.4-3.7-35.9-7.1c-7.2-1.9-15-1.9-22.4-0.7c-11.7,2-21.8,6.5-28.8,16.4c4.9-0.9,10-1.7,14.6,1
	c2.7,1.6,4.4,4.2,5.1,7.2c0.6,2.9,0.1,6.2-1.6,8.7c-1.6,2.3-4,3.6-6.7,4c-2.9,0.4-6.5,0-8.9-1.9c-4.9-3.8-4.7-11.1-5.2-16.7
	c-4.3,3.1-7.6,7-10.1,11.6c-6.8,12.3-8.1,25.9-3.4,39.2c2,5.6,4.6,10.9,6.2,16.7c2,7.4,1.7,14.8-2.2,21.6
	c-4.9,8.4-14.6,13.8-23.8,16.2c-10.6,2.8-21.3,1.5-30.7-4c0.1,3.7,0,7.3-0.7,11c-1.6,8.6-5.8,17.2-13.3,22.1
	c-4.9,3.2-10.6,4.3-16.3,2.9c-7.2-1.8-14.6-7.7-18.4-14.1c1.1,0,2.2,0,3.3-0.1c10-0.5,19.9-5.5,26.6-12.9c8.1-9.1,9.5-18.3,8.9-30
	c2.8,3.4,5.7,6.6,9.2,9.3c6.2,4.9,13.6,8,21.7,6.9c8.7-1.2,16.3-6.5,21.5-13.5c5.4-7.2,8.7-17.4,7.3-26.4c-0.6-3.9-2.5-7.6-5.8-9.8
	c-2.1-1.4-4.9-1.6-7.3-1c-3.3,0.8-7.1,4.2-8.6,7.2c-1.1,2-1.5,4.5-0.7,6.7c0.6,1.8,2,3.2,3.8,3.9c2,0.8,4.1,0.7,6.1-0.1
	c3.6-1.5,4.7-4.4,6.1-7.8c-0.7,10-3.7,17.3-10.8,24.5c-4.6,4.7-11.4,9.8-18.3,9.7c-16.1-0.3-20.5-21.9-29.9-31.2
	c-5.8-5.7-13.7-8.5-21.8-8.4c-7.1,0.1-14.3,2.6-19.3,7.7c-0.5,0.5-0.9,1-1.3,1.5c-0.4,0.5-0.8,1-1.3,1.5c-0.4,0.5-0.8,1-1.2,1.6
	c-0.4,0.5-0.7,1.1-1.1,1.6c-0.4,0.6-0.7,1.1-1,1.7c-0.3,0.6-0.6,1.2-0.9,1.7c-0.3,0.6-0.6,1.2-0.8,1.8c-0.3,0.6-0.5,1.2-0.8,1.8
	c-0.2,0.6-0.5,1.2-0.7,1.9c-0.2,0.6-0.4,1.3-0.6,1.9c-0.2,0.6-0.3,1.3-0.5,1.9c-0.1,0.6-0.3,1.3-0.4,1.9c-0.1,0.6-0.2,1.3-0.3,1.9
	c-0.1,0.7-0.1,1.3-0.2,2c0,0.7-0.1,1.3-0.1,2c0,0.7,0,1.3,0,2c0.3,11.7,7.7,21.2,15.8,28.9c-0.1,0.1-0.1,0.2-0.2,0.4
	c-2.4,3.7-9.5,9.8-13.8,10.6c-5.7,1.1-15-6.6-19.7-9.6c4-3.2,7.7-6.6,10.5-10.9c5.6-8.5,6.9-19.2,4.8-29c-1.9-8.8-6.8-18-14.6-22.9
	c-4.7-2.9-10.1-3.5-15.5-3.3c-30.8,1-31.3,33.1-49.8,36.8c-5.3,1.1-10.4-0.8-14.7-3.8c-9.2-6.4-13.8-15.7-15.8-26.4
	c1.4,2.2,2.7,4.5,4.7,6.1c2,1.6,4.5,3,7.1,2.7c1.6-0.2,2.9-1,3.9-2.3c1.6-2,2.1-4.9,1.8-7.4c0-0.4-0.1-0.7-0.2-1.1
	c-0.1-0.3-0.2-0.7-0.3-1c-0.1-0.3-0.3-0.7-0.4-1c-0.2-0.3-0.3-0.6-0.5-0.9c-0.2-0.3-0.4-0.6-0.6-0.9c-0.2-0.3-0.5-0.6-0.7-0.8
	c-0.2-0.3-0.5-0.5-0.8-0.7c-0.3-0.2-0.6-0.4-0.9-0.7c-2.8-1.9-6.5-2.5-9.8-1.8c-2.6,0.5-4.8,2.1-6.2,4.4c-3.1,5.3-2.6,14-1.1,19.7
	c0.2,0.6,0.3,1.2,0.5,1.7c0.2,0.6,0.4,1.1,0.6,1.7c0.2,0.6,0.4,1.1,0.7,1.7c0.2,0.6,0.5,1.1,0.8,1.6c0.3,0.5,0.5,1.1,0.8,1.6
	c0.3,0.5,0.6,1,0.9,1.6c0.3,0.5,0.7,1,1,1.5s0.7,1,1.1,1.5c0.4,0.5,0.7,0.9,1.1,1.4c0.4,0.5,0.8,0.9,1.2,1.3
	c0.4,0.4,0.8,0.9,1.3,1.3c0.4,0.4,0.9,0.8,1.3,1.2c0.5,0.4,0.9,0.8,1.4,1.2c0.5,0.4,1,0.7,1.5,1.1c0.5,0.3,1,0.7,1.5,1
	c0.5,0.3,1,0.6,1.6,0.9c5.5,3.1,11.5,4.1,17.6,2.3c10.7-3.3,17.1-12.6,22.2-21.8c0.7,12.2,4.2,23.1,11.2,33.1
	c7.8,10,16.7,14.5,29.1,16.8c-0.9,0.9-1.8,1.7-2.7,2.5c-5.9,5-12.6,9.2-20.7,8.3c-6.5-0.7-12.2-4.4-16.3-9.3c-7.4-9-8-20.5-6.7-31.6
	c-4.3,6.5-9.8,11-17.1,13.5c-7.7,2.6-15.5,1.6-22.7-2c-10-5-21.1-17.1-20.2-29.1c0.4-5,3.3-10.3,4.9-15.1
	c4.3-12.9,5.9-31.3,1.4-44.4c-2.9-8.4-8.2-14.3-16.2-18.1c-1.2-3-2.6-5.5-4.8-7.8c-11.9-12.3-35.4-11.7-50.7-7.5
	c-6.7,1.9-14.8,6.5-21.8,6.1c-8.7-0.5-17.9-6.8-23.4-13.3c-7.6-9.1-10.7-21.4-6.7-32.8c1-2.8,3.5-6.9,3.6-9.9c0-1.1-1.3-1.7-2.2-2
	c-9.4-3-13.5,1.2-23.2-8.2c-5.8-5.6-9.3-13.8-9.3-21.9c0-6.3,4.3-14.2,8.9-18.5c1.1-1,1.8-1.3,3.3-1.2l0.7,1.1l-1.3,0
	c-1,0.6-1.1,0.8-1.5,1.8c-0.9,2.1-0.4,4.6,0.5,6.6c1.5,3.3,3.7,4.5,7,5.7l0.6,0.2c0.9,2.4,1.8,4.8,3,7c6.5,12,20.2,19,32.8,22.7
	c-6.9,7-11.7,16.7-11.6,26.7c0,0.4,0,0.9,0,1.3c0,0.4,0.1,0.9,0.1,1.3c0,0.4,0.1,0.8,0.2,1.3c0.1,0.4,0.1,0.8,0.2,1.3
	c0.1,0.4,0.2,0.8,0.3,1.2c0.1,0.4,0.2,0.8,0.4,1.2c0.1,0.4,0.3,0.8,0.4,1.2c0.2,0.4,0.3,0.8,0.5,1.2c0.2,0.4,0.4,0.8,0.5,1.2
	c0.2,0.4,0.4,0.8,0.6,1.1c0.2,0.4,0.4,0.7,0.7,1.1c0.2,0.4,0.5,0.7,0.7,1.1c0.2,0.4,0.5,0.7,0.8,1s0.5,0.7,0.8,1
	c0.3,0.3,0.6,0.6,0.9,1c0.3,0.3,0.6,0.6,0.9,0.9c6.8,6.5,17.9,10.3,27.3,9.9c3.8-0.2,7.7-1.3,10.4-4.2c2.1-2.4,2.9-5.4,2.7-8.5
	c-0.3-3.3-1.8-6.6-4.4-8.7c-2.1-1.8-4.8-2.5-7.6-2.2c-2.3,0.3-4.3,1.3-5.6,3.2c-1.6,2.2-1.9,5.2-1.4,7.8c0.4,2,0.9,3.5,2.6,4.6
	c0.3-1,0.1-0.6,0.8-1.4l1.2,0.9c1.3,0,2.2,0,3.5,0.3l-0.3,0.6c-0.9,0.4-1.7,0.7-2.6,0.9c-4.8,0.8-10.5-2.5-14.3-5.2
	c-6-4.4-11.3-10.7-12.4-18.2c-0.4-3.3,0-6.8,1.1-9.9c4.6-13.2,20.4-12.1,28.2-22.4c1.8-2.3,3-5,4.2-7.6c4.7-9.9,3.8-16.2,2.6-26.6
	c-0.3-2.6,3.6-4.1,5-6.2c0.8-1.2,0.8-1.8,0.7-3.2l-0.6-0.3c-2.3,0.8-4.5,1.5-7,0.9c-3.4-0.9-6.4-4.1-9.3-6.1
	c-6.5-4.6-16.4-7.1-24.3-6.3c-9.6,0.9-17.5,6.5-23.5,13.7c-3.5-0.9-7.3-1.7-10.6-3.2c-3.6-1.7-7-4.5-8.3-8.4
	c-0.8-2.3-0.4-4.6,0.8-6.7c3.5-6.4,11.7-7.9,18.2-9.7c5.9,6.9,13.1,11.7,22.1,13.2c13.4,2.2,21.7-2.9,32.1-10.2
	c3.1-2.2,6.6-1,10-0.4l0.6-0.7c0.1-4.1-4.7-4.8-5.7-7.7c-0.2-0.7,0.9-8.1,1-9.6c0-1.5,0-3.1-0.2-4.6c-0.1-1.5-0.4-3.1-0.7-4.6
	c-0.3-1.5-0.7-3-1.2-4.5c-0.5-1.5-1-2.9-1.7-4.3c-8.2-17.8-26-14-32.8-31.6c-1.7-4.3-1.9-9.6,0.2-13.8c3.3-6.6,12.1-11.4,18.9-13.6
	c0.2,2.8,0.5,5.4,1.9,7.9c1.4,2.6,3.7,4.8,6.7,5.6c0.3,0.1,0.6,0.1,0.9,0.2c0.3,0,0.6,0.1,1,0.1c0.3,0,0.6,0,1,0
	c0.3,0,0.6-0.1,1-0.1c0.3-0.1,0.6-0.1,0.9-0.2c0.3-0.1,0.6-0.2,0.9-0.3c0.3-0.1,0.6-0.3,0.9-0.4c0.3-0.2,0.6-0.3,0.8-0.5
	c3.7-2.5,4.7-6.1,5.6-10.2c-0.8-2.9-1.7-6.4-3.7-8.6c-2.1-2.3-5.4-3.3-8.5-3.4c-9.6-0.4-22.9,3.3-29.9,10
	c-5.1,4.8-7.7,11.4-7.8,18.3c-0.2,10.1,5.3,18.5,12,25.6c-4.9,1.4-9.5,3.2-14,5.6c-9.1,4.8-18.1,12.4-21.3,22.6
	c-3.5,1.8-6.8,3.7-8.3,7.5c-1.2,3,0.4,5.5,1.7,8.2c-1.9-0.9-3.8-2.9-5.2-4.5c-4.7-5.4-7.4-11.2-6.7-18.5c0.8-7.9,5.3-15,11.3-20
	c4.3-3.6,11-7,16.8-6.1c2.3,0.4,4.3,1.2,6.6,1.4c1.3-0.5,2-1.5,2.9-2.5c-1.6-4.9-5.8-9.1-7-14.1c-1.9-8.6-0.4-18.5,4.2-26.1
	c6.3-10.4,16.2-15.8,27.8-18.6c5.2,2.2,10.1,5.1,15.5,7.2c14.2,5.4,31.8,5.3,45.7-1.1c25.2-11.5,37.3-38,31.5-64.6
	c-1.7-7.7-6.3-14.7-7.6-22.4c-0.6-3.6,0.5-7.6,1.8-11c3.5-9.3,11-16.8,20.1-20.8c8.4-3.7,20.5-5.4,29.4-2.5
	c3.3,1.1,6.8,3.7,10.1,4.4c1.2,0.3,1.4-0.2,2.3-0.8c0.2-0.6,0.3-0.7,0.3-1.4c0-3.2-4.1-7.1-6.2-9.3c0.1-0.4,0.2-0.8,0.3-1.1
	c1.7-7,5.5-12.7,11.8-16.5c13.1-7.8,27.4-2,40.9,1.5c-3.9,0.6-9.1,1.4-12.3,3.7c-3.2,2.3-5.5,6.2-8.5,8.8
	c-14.9,13-19.7,14.7-23.4,35.7c-0.1-0.1-0.1-0.3-0.2-0.4l-0.3-0.7c-0.7-1.5-1.3-3-2.4-4.3c-4.5-5.8-11.8-9-19-9.9
	c-8.2-1-17.3,1.1-23.8,6.4c-7.7,6.3-9.4,15-10.6,24.3c-0.1,1-0.3,1.9-0.3,2.9c0,2.7,0.4,5.3,2.4,7.2c0.9,0.1,0.8,0.3,1.4-0.2
	c1.6-1.1,2.4-2.8,2.8-4.6c0.1-0.7-0.1-0.3,0.6-0.8c0.5,0.5,1,1,1.4,1.5c0.7,1.1,0.8,1.8,0.6,3.1c-2.1,2.2-5.5,1.8-8.3,1.9
	c0.6,2.2,1.3,4.5,2.9,6.2c1.8,2,4.5,3.2,7.2,3.3c0.4,0,0.7,0,1.1,0c0.4,0,0.7-0.1,1.1-0.1c0.4-0.1,0.7-0.1,1.1-0.2
	c0.4-0.1,0.7-0.2,1.1-0.3c0.3-0.1,0.7-0.3,1-0.4c0.3-0.2,0.7-0.3,1-0.5c0.3-0.2,0.6-0.4,0.9-0.6c0.3-0.2,0.6-0.5,0.8-0.7
	c2.1-2,3.8-5.3,3.8-8.2c0-6.1-7.8-6.8-11.1-10.3c-1.2-1.2-1.6-2.8-1.4-4.5c0.6-5.1,4.7-10,8.7-12.9c4.8-3.5,12.1-5.8,18.1-4.8
	c12.2,2.1,14.8,15.7,20.8,24.4c5.3,7.7,13.5,13.6,22.8,15.2c7.2,1.3,14.9,0.2,20.9-4.2c9.4-6.9,12.7-17.8,14.5-28.8
	c1.7,6.6,3.3,13.5,6.7,19.4c3.5,6.2,9.3,11.4,16.3,13.1c15.1,3.8,29.4-4,37.8-16.5c4.5-6.7,7.2-16,14.5-20.2
	c4.9-2.8,11.9-2.6,17.3-1.2c5.1,1.3,9.8,4.6,12.4,9.3c1.6,3,3,8.3,1.8,11.6c-0.2,0.7-6.3,1.8-7.6,2.4c-1.9,1-3.9,2.6-4.5,4.8
	c-0.8,3,0.6,6.4,2.2,8.9c1.6,2.6,4.1,4.9,7.2,5.5c0.3,0.1,0.6,0.1,1,0.1c0.3,0,0.6,0,1,0c0.3,0,0.6,0,1-0.1c0.3,0,0.6-0.1,1-0.2
	c0.3-0.1,0.6-0.2,0.9-0.3c0.3-0.1,0.6-0.2,0.9-0.3c0.3-0.1,0.6-0.3,0.9-0.4c0.3-0.2,0.6-0.3,0.8-0.5c3.9-2.7,4.4-5.7,5.1-10.1
	c-1.7,0.6-3.4,1.2-5.3,1.3c-1.7,0.1-3.2,0-4.5-1.1c-0.1-1.2,0.2-1.4,0.7-2.4c1.2,0.3,2.7,0.7,3.9,0.4c1.3-0.4,2.4-1.5,3.1-2.7
	c2.4-4.1,1.7-11.8,0.5-16.3c-0.1-0.4-0.2-0.8-0.3-1.2c-0.1-0.4-0.3-0.8-0.4-1.1c-0.1-0.4-0.3-0.7-0.5-1.1c-0.2-0.4-0.3-0.7-0.5-1.1
	c-0.2-0.4-0.4-0.7-0.6-1.1c-0.2-0.3-0.4-0.7-0.6-1c-0.2-0.3-0.4-0.7-0.7-1c-0.2-0.3-0.5-0.6-0.7-1c-0.2-0.3-0.5-0.6-0.8-0.9
	c-0.3-0.3-0.5-0.6-0.8-0.9c-0.3-0.3-0.6-0.6-0.9-0.8c-0.3-0.3-0.6-0.5-0.9-0.8c-0.3-0.3-0.6-0.5-0.9-0.8c-0.3-0.2-0.6-0.5-1-0.7
	c-0.3-0.2-0.7-0.4-1-0.7c-0.3-0.2-0.7-0.4-1-0.6c-7.8-4.4-17.7-5.3-26.3-2.8c-7.6,2.2-12.8,6.4-16.5,13.4
	c-1.2-5.4-2.6-10.8-5.1-15.8c-2.8-5.4-7.1-10.6-12.1-14.2c-2.1-1.5-4.5-2.7-6.4-4.5c-3.3-3.1-5.4-6.8-9.3-9.4
	c-2.7-1.8-6.2-2.7-9.3-3.7C537.7,243.4,545.5,241.1,553.3,239.6z"/>
<path class="st1" d="M511.6,356.3c1.9,0.7,3.9,2.3,5.6,3.5c10.5,7.7,15.3,19.5,17.3,32c8.4-12.4,17.4-20.9,32.2-24.6
	c3.5,3.3,6.6,6.9,9,11.1c5.9,10,6.4,21.4,3.5,32.4c2.7-1.7,5.5-3.4,8.4-4.7c10.9-5.1,20.9-4.7,32.1-0.7c1.1,3,2.1,6,2.8,9.1
	c2.2,11.3-1.1,20.9-7.3,30.3c5.5-1.4,10.7-1.8,16.3-1.1c10.1,1.2,20,6,26.4,14c-5,15.3-9.9,23.3-23.8,31.7c2.6,0.2,5.1,0.5,7.7,1.2
	c11.7,3.1,19.3,11.6,25.2,21.7c-1.5,2.8-3.2,5.5-5.2,8c-7.3,9.4-16.6,13.8-28.3,15.2c2.6,1.2,5.1,2.6,7.4,4.3
	c10,7,14.1,17.5,16.2,29.1c-2,2.1-4.3,4-6.7,5.6c-11.1,7.3-23.1,7.8-35.8,5.2c4.3,5.4,7.5,10.8,9,17.6c1.4,6.3,1.4,13.7-2.3,19.3
	c-2.7,4.2-7.2,6.6-12,7.4c-11,1.9-21.3-2.7-30-9c2.6,8.4,2.9,16.5,0.2,24.9c-1.8,5.7-5.2,11.5-10.7,14.2c-3.7,1.8-7.7,1.5-11.5,0.1
	c-10.5-3.7-17.2-12.1-22-21.8c-1.9,6.6-3.7,13.1-7.7,18.7c-5.1,7-10.3,8.7-13.7,17.6l-1.5,0.9c-0.1,0-0.3-0.1-0.4-0.1
	c-1.7-0.9-4.3-5.4-5.6-7.1c-11.6-14.3-12.5-10.8-17.5-29.8c-3.7,6.4-7.3,12-13.4,16.5c-4.7,3.5-10.9,6.5-16.8,5.4
	c-4.4-0.8-7.7-3.8-10.1-7.5c-6.1-9.5-6.4-20.9-4-31.6c-5.1,3.8-10.3,6.6-16.5,7.9c-8.9,1.9-17.8,0.7-25.5-4.3
	c-2.5-4.7-3.7-10.6-3.7-15.9c-0.1-9.5,3.3-17.4,10-24.1c-2.4,0.7-4.8,1.2-7.3,1.5c-14.5,1.5-23.8-4.4-34.6-13.2
	c0.4-2.2,0.8-4.4,1.4-6.5c3.7-12.3,12-20,23.1-25.8c-3.7-0.6-7.4-1.4-11-2.6c-10.8-3.6-19.6-9.7-24.8-20c0.6-1.4,1.3-2.7,2.1-4
	c7-11.5,21.4-15.6,33.6-18.7c-2.1-1.1-4-2.3-6-3.7c-10.8-7.5-16.1-17.1-18.5-29.8c1.6-1.4,3.3-2.7,5.1-3.9
	c11.9-8.1,23.3-9.5,37.2-6.9c-1.5-2-2.8-4-3.9-6.2c-5.4-11-3.5-21.7,0.5-32.8c2.4-1.1,4.9-1.7,7.5-2.3c11.8-2.6,21.8-0.4,31.9,6
	c-0.9-3.8-1.5-7.7-1.5-11.7c0-12.6,6.2-21.8,14.8-30.5c14,3.8,23.3,11.4,30.8,23.6C492.6,376.6,498.9,365.2,511.6,356.3z"/>
<path class="st0" d="M512,366.5c2.5,1.1,4.5,3.1,6.4,5.1c3.3,3.6,5.7,7.8,7.6,12.3c7.7,17.7-0.9,32-1.7,49.8
	c-2.9-7.7-5.5-15.2-12.2-20.4c-0.2,0.1-0.5,0.3-0.7,0.4c-6,3.8-9,13.2-10.4,19.8c-1.9-12.8-7.5-26.7-5.5-39.7
	C497,383.6,503.5,372.6,512,366.5z"/>
<path class="st0" d="M621,494.7c4.5-0.6,9.5-0.1,13.9,1c9.7,2.4,17.6,8.2,22.8,16.8c-3.1,4.8-7,8.9-11.9,12
	c-10.2,6.5-21.7,6.3-33.1,3.7c-7.2-1.8-14.6-3-21.9-4.5c1.4-0.4,2.9-0.8,4.2-1.3c4.1-1.5,11.3-4.4,12.9-8.7c0.5-1.3,0.4-2.5-0.2-3.7
	c-2.6-5.2-11.8-8-17-9.6C601.1,499.3,610.8,496,621,494.7z"/>
<path class="st0" d="M394.3,495.2c11.2-2,27.5,2.7,38.7,4.9c-4.7,1.8-16.1,5.4-18.1,10.4c-0.5,1.3-0.5,2.2,0.1,3.5
	c2.2,5,13.1,8.1,18,9.8c-4.4,1-8.8,1.8-13.2,2.8c-9.1,2.1-18.3,3.9-27.6,2.5c-0.7-0.1-1.4-0.2-2.1-0.4c-0.7-0.1-1.4-0.3-2-0.5
	c-0.7-0.2-1.3-0.4-2-0.6c-0.7-0.2-1.3-0.4-2-0.7c-0.7-0.2-1.3-0.5-1.9-0.8c-0.6-0.3-1.3-0.6-1.9-0.9c-0.6-0.3-1.3-0.6-1.9-0.9
	c-0.6-0.3-1.2-0.7-1.8-1c-0.6-0.4-1.2-0.7-1.8-1.1c-0.6-0.4-1.1-0.8-1.7-1.2c-0.6-0.4-1.1-0.8-1.6-1.3s-1.1-0.9-1.6-1.4
	c-0.5-0.5-1-1-1.5-1.4c-0.5-0.5-1-1-1.4-1.5c-0.5-0.5-0.9-1-1.4-1.6c-0.4-0.5-0.9-1.1-1.3-1.7C371.9,502.8,382.3,497,394.3,495.2z"
	/>
<path class="st0" d="M523.2,589.8c2.1,5.1,5,19.1,6,24.6c3.9,22.5-5.8,28.6-17.3,44.9c-4-6.4-9.8-11.2-13.5-17.9
	c-9.1-18.5-0.8-32.9,0.9-51.8c2.1,5.6,5.4,14.8,9.9,18.8c1.2,1.1,2,1.1,3.6,1C518.3,606.4,521.4,595.5,523.2,589.8z"/>
<path class="st0" d="M422.8,410.7c3.1,0.1,6,0.3,9,1c17.1,3.9,25.6,19.3,34.2,33c-6.5-2.2-16.3-6.2-23-5.1c-1.5,0.2-3,1.1-3.7,2.5
	c-1.1,2.2,0.1,5.3,0.7,7.5c1.3,5.6,2.7,11.2,5.1,16.4c-10.7-7.1-23.8-13.2-30.7-24.4c-5.6-9.1-5.4-19.1-3-29.2
	C415,411.5,418.8,411.1,422.8,410.7z"/>
<path class="st0" d="M460.3,377.3c4.7,0.7,9.4,3.1,13.3,5.8c16.1,11.3,18.7,30,21.8,48c-3.7-3.9-9.9-9.4-15.2-10.6
	c-1.3-0.3-1.6,0.1-2.6,0.8c-3.8,6.7-5.7,13.4-7.2,20.9c-7.7-11.4-16.9-23.1-18.7-37.2C450.2,394.1,453.6,385.8,460.3,377.3z"/>
<path class="st0" d="M602.8,410.2c1.8,0,3.6,0,5.4,0c2.1,0,3.8,0.3,5.2,2c2.9,3.4,2,12.9,1.3,17c-3.6,18.8-21.5,27.2-35.8,37
	c1.9-4.2,3.3-8.1,4-12.7c0.5-4.5,0.3-8.5-0.5-13c-9.5-0.1-15.9,0.6-24.6,4.6c4.7-6.3,8.3-13.4,13.5-19.4
	C579.5,416.3,590.3,411.2,602.8,410.2z"/>
<path class="st0" d="M563.2,376.4l1,0.2c4.7,3.8,7.5,10.8,8.5,16.6c3.2,19.2-8.5,34.3-18.9,49c-0.6-6.7-2.7-12.4-5.8-18.4
	c-0.8-1.1-1.3-2.4-2.8-2.7c-4.9-0.7-12.6,6.6-16.2,9.5c1.6-9.1,2.8-18.4,6.2-27C540.3,390.4,550.4,382.1,563.2,376.4z"/>
<path class="st0" d="M430.8,529.2l0,0.5c-3.1,3-9.5,9.7-10.4,14.1c-0.3,1.2-0.1,2.3,0.6,3.3c2.8,3.7,17.5,5.4,21.9,5.6
	c-13.5,11-26.7,20.2-44.7,20.3c-9.3-0.9-16.5-3-23-10.2c1.3-3.4,3.2-6.8,5.4-9.8C392.6,536,411.5,532.5,430.8,529.2z"/>
<path class="st0" d="M397.8,451.2c16.6-0.6,33,9.9,45.6,19.7c-6,0.6-14.7,1.6-19.8,4.7c-1.3,0.8-2.4,1.9-2.6,3.5
	c-0.5,4.8,6.6,12,9.6,15.4l0,0.1l-0.7,0.3c-9.8-1.8-20-3.3-29.3-7.2c-12.1-5.2-20.4-14.7-25.2-26.9
	C381.6,454.3,389,451.9,397.8,451.2z"/>
<path class="st0" d="M469.4,581.5l0.3,0.4c1.1,7.3,3,14.9,7.4,21c6.3-2.4,11.7-5.2,16.7-9.8c-3.3,18.2-3.6,31.3-17.5,45.1
	c-3.3,3.2-7.9,7-12.5,8c-2.3,0.5-4.5,0.2-6.4-1.2c-4.1-3-5.9-9.9-6.6-14.8C448.1,611.2,458.7,595.9,469.4,581.5z"/>
<path class="st0" d="M621.5,451.2c0.5,0,1.1-0.1,1.6-0.1c9.1-0.3,18,2,24.8,8.2c-1,5.7-3.5,10.9-7,15.5
	c-10.8,14-26.7,16.6-43.3,18.6l-5.1,0.5c4.8-5.2,8.1-9.4,10.2-16.3c-6.5-4-14.3-5.8-21.8-6.7C593.3,461.2,605.5,452.9,621.5,451.2z"
	/>
<path class="st0" d="M553,580.2c5.9,4.5,19.4,29.7,20.5,37.4c1.1,8,0.3,19.8-5,26.4c-1.3,1.6-2.9,2.8-5,3
	c-5.4,0.5-11.4-4.4-15.4-7.6c-15.4-14.1-13.6-28.5-18.3-46.9l-0.2-0.8c4.6,5.4,10.7,8.8,17.1,11.4C551.2,595.6,553,588.8,553,580.2z
	"/>
<path class="st0" d="M591.7,529.4c12.9,2.4,25.9,3,37.5,9.8c9.8,5.7,16.5,15.6,19.4,26.5c-5.9,4.3-12.4,6.6-19.5,7.8
	c-20.9,0.5-32-8.5-48.1-20.2c5.3-0.6,14.9-2,19-5.4c1.3-1,1.7-2.3,1.7-3.9C601.7,538.9,595.2,532.7,591.7,529.4z"/>
<path class="st0" d="M579.9,559c11.3,7.3,24,14.2,31.3,26c3.9,6.2,7.3,15.9,5.4,23.2c-0.8,2.9-2.5,5.4-5.2,6.8
	c-5.7,3-12.9,1.4-18.8-0.3c-18.5-7.9-23.5-19.7-33.6-35.9c5.1,2.2,13.6,4.7,19,3.2c1.6-0.5,3-1.4,3.8-2.9
	C584.7,573.7,581.5,564.3,579.9,559z"/>
<path class="st0" d="M443.9,558c0.6,1.2-0.1,1.9-0.6,3.1c-3,6.9-3.3,14-3.3,21.4c8.8,0.2,16.6-0.6,25.1-3.2
	c-9,14-16.5,27.2-31.9,34.8c-5.3,1.9-10.6,3.1-16.2,2.3c-3-0.4-6.2-1.5-8.1-4.1c-2.9-3.9-3.2-10.4-2.5-15.1
	C409,578.6,430.1,568,443.9,558z"/>
<path class="st0" d="M511.7,440.4c0.2,0.1,0.4,0.1,0.6,0.2c15.6,7.9,7.2,29.3,4.7,42.2c-0.4,1.8-1.2,4.5-0.8,6.3
	c1.2-6.1,2.7-12.1,4.2-18.2c3.3-13.4,6.3-19.5,17.7-27.9c4.1,6.3,6,12.2,6.3,19.7c-2.7,5.8-7.2,11.1-10.8,16.4
	c-3.5,5.1-6.6,10.5-10.1,15.5c-0.1,0.2-0.2,0.3-0.3,0.5l0.5,0.8l-0.2,0.1l-0.2-0.7l0.6,0.5l-0.7,0.4l0.3-0.5l11.7-17.5
	c9.6-14.2,14.4-16.7,30.8-20c-7,26.5-13.6,26-35.3,39.8l0.4,1.5c-0.5-0.1-0.7-0.4-1.1-0.7l0.1,0.4c9.9-3.2,20.7-15.9,30-18.4
	c7.1-1.9,13.6,1.6,19.6,4.9c-1.1,2.1-2.2,4.2-3.7,6.1c-7.8,9.5-21.9,11-33.2,13.5c-4.4,0.9-8.6,2.4-13.1,2.8L529,508l0.5,0.5l-1-0.5
	l-0.5,0.3c6.9,1.7,30.9-8.7,42.1-6.2c6.3,1.4,9.8,5.6,13.1,10.8c-0.8,0.9-1.7,1.8-2.6,2.7c-14.4,13.6-34.8,0.4-51.5,0l1,0.3
	l-1.3-0.2l1,0.6c4.5,0.1,28.9,5.6,33.5,7.1c8,2.7,12.5,8.1,16.1,15.4c-20.7,10.6-24.2,1.4-41-9.6c-3.2-2.1-6.1-4.2-9.8-5.3
	c10.2,7.1,25.7,14.1,31.7,25.5c2.5,4.9,3.7,10.5,5,15.8c-5.6-1.2-11.6-1.9-16.8-4.3c-0.6-0.3-1.2-0.6-1.8-0.9
	c-0.6-0.3-1.1-0.7-1.7-1.1c-0.5-0.4-1.1-0.8-1.6-1.3c-0.5-0.4-1-0.9-1.4-1.4c-3.4-3.6-14.2-19.2-15.8-23.5c-0.2-0.5-0.3-1-0.5-1.4
	c-0.4-0.8-0.7-1-1.5-1.2l-0.2,0.5c2.3,5.8,8.3,14,12.1,19.1c2.1,2.8,4.7,5.7,6.2,8.9c3.3,6.8-0.8,14.8-3,21.4
	c-13.2-8.6-16.4-15.2-20-30.3c-1.2-5-2.6-10-3.8-14.9l0.2,0.4l-1.5,0.5l1.4,0c2.1,11.7,8.9,28,4.1,39l-0.3,0.6
	c-2.1,3.5-4.2,5.8-7.6,8.2c-1.6-0.9-3.1-2-4.4-3.3c-12.3-13.3-0.7-31.4-0.4-46.6c0-0.3,0-0.5,0-0.8l0.5,0.2l-0.7,0.1
	c0.4,4-3.9,19.8-5,24.4c-2.7,11.4-8.3,16.8-17.9,22.6c-2.1-6.6-4.3-12.6-4.8-19.5c1.7-3.3,4.4-6.3,6.6-9.3c4.4-6,9-12.4,12.3-19.1
	c-3.9,3.2-9.1,13.4-12.3,18c-7.2,10.2-15.6,12.7-27.2,14.8c0.1-0.7,0.3-1.3,0.5-2c3.2-13.3,6.7-18.7,17.8-26.9
	c4.8-3.6,9.9-7.1,15.1-10.2l0.6-0.4l0-0.4c-3.3-0.3-22.2,16.3-28.1,17.8c-6.7,1.7-14.2-1.3-20-4.6c1.2-2.6,2.7-5.2,4.5-7.4
	c7.4-9,21.3-9.7,31.9-11.8c2.9-0.6,6.4-2,9.3-2.2c0.2,0,0.4,0,0.6,0l0.1-0.8l0.2,0.5c-1-0.5-28.3,5.5-33.3,5.5
	c-4.4,0-8.6-1.1-11.8-4.4c-1.6-1.7-3.8-4.3-3.5-6.9c0.2-1.9,2.1-4.2,3.5-5.4c11-9.2,34.1,1.5,47.2,2.6l0.9,0.1l0.6,0.5l0.6-0.3
	c-3.4,0.1-29.6-6.5-34.3-8c-8.5-2.6-12.9-7.6-16.9-15.2c3-1.6,6.1-3.2,9.4-4.2c3.6-1,7.3-1.4,11-0.2c6,2,11.6,7.3,16.8,10.9
	c4.6,3.1,9.5,6.1,14.5,8.8l-0.6,0l0.6-0.3c-3-2.5-6.8-4.5-10-6.6c-18-11.6-21.6-13.8-27.4-35c21.4,4.1,24.8,10.5,35.9,28.4
	c1,1.7,2.6,5.2,4.2,6.1c-1.1-6.6-17.3-23.9-19-30.1c-1.7-6,3.3-13.9,6-19.1c17.4,11.8,17.2,24.5,21.2,43.3l0.6,0.1l0.2-0.5l0,1
	l-0.6,0.2l0.5,1.1c0.4-3.2-1.2-7.2-2-10.4c-1.6-6.5-4.3-17.4-3.4-23.9C502.9,448.2,506.5,444.1,511.7,440.4z"/>
</svg>
